<ttFont>
    <TTGlyph name=".notdef" xMin="50" yMin="0" xMax="450" yMax="750">
      <contour>
        <pt x="50" y="0" on="1"/>
        <pt x="50" y="750" on="1"/>
        <pt x="450" y="750" on="1"/>
        <pt x="450" y="0" on="1"/>
      </contour>
      <contour>
        <pt x="400" y="50" on="1"/>
        <pt x="400" y="700" on="1"/>
        <pt x="100" y="700" on="1"/>
        <pt x="100" y="50" on="1"/>
      </contour>
    </TTGlyph>
    <TTGlyph name="A" xMin="20" yMin="0" xMax="483" yMax="693">
      <contour>
        <pt x="299" y="693" on="1"/>
        <pt x="323" y="618" on="0"/>
        <pt x="370" y="465" on="0"/>
        <pt x="415" y="297" on="0"/>
        <pt x="460" y="109" on="0"/>
        <pt x="483" y="0" on="1"/>
        <pt x="393" y="0" on="1"/>
        <pt x="385" y="45" on="0"/>
        <pt x="368" y="133" on="0"/>
        <pt x="359" y="177" on="1"/>
        <pt x="141" y="177" on="1"/>
        <pt x="131" y="133" on="0"/>
        <pt x="115" y="45" on="0"/>
        <pt x="107" y="0" on="1"/>
        <pt x="20" y="0" on="1"/>
        <pt x="42" y="109" on="0"/>
        <pt x="88" y="297" on="0"/>
        <pt x="133" y="465" on="0"/>
        <pt x="180" y="618" on="0"/>
        <pt x="204" y="693" on="1"/>
      </contour>
      <contour>
        <pt x="250" y="591" on="1"/>
        <pt x="225" y="508" on="0"/>
        <pt x="179" y="340" on="0"/>
        <pt x="158" y="252" on="1"/>
        <pt x="341" y="252" on="1"/>
        <pt x="321" y="340" on="0"/>
        <pt x="275" y="508" on="0"/>
      </contour>
    </TTGlyph>
    <TTGlyph name="AE" xMin="2" yMin="0" xMax="684" yMax="693">
      <contour>
        <pt x="357" y="0" on="1"/>
        <pt x="357" y="177" on="1"/>
        <pt x="155" y="177" on="1"/>
        <pt x="137" y="132" on="0"/>
        <pt x="103" y="43" on="0"/>
        <pt x="89" y="0" on="1"/>
        <pt x="2" y="0" on="1"/>
        <pt x="32" y="87" on="0"/>
        <pt x="106" y="269" on="0"/>
        <pt x="187" y="449" on="0"/>
        <pt x="273" y="619" on="0"/>
        <pt x="314" y="693" on="1"/>
        <pt x="668" y="693" on="1"/>
        <pt x="668" y="616" on="1"/>
        <pt x="447" y="616" on="1"/>
        <pt x="447" y="401" on="1"/>
        <pt x="647" y="401" on="1"/>
        <pt x="647" y="326" on="1"/>
        <pt x="447" y="326" on="1"/>
        <pt x="447" y="77" on="1"/>
        <pt x="684" y="77" on="1"/>
        <pt x="684" y="0" on="1"/>
      </contour>
      <contour>
        <pt x="357" y="247" on="1"/>
        <pt x="357" y="612" on="1"/>
        <pt x="312" y="527" on="0"/>
        <pt x="226" y="345" on="0"/>
        <pt x="186" y="252" on="1"/>
        <pt x="356" y="252" on="1"/>
      </contour>
    </TTGlyph>
    <TTGlyph name="AEacute" xMin="2" yMin="0" xMax="684" yMax="934">
      <component glyphName="AE" x="0" y="0" flags="0x204"/>
      <component glyphName="acute" x="277" y="156" flags="0x4"/>
    </TTGlyph>
    <TTGlyph name="Aacute" xMin="20" yMin="0" xMax="483" yMax="928">
      <component glyphName="A" x="0" y="0" flags="0x204"/>
      <component glyphName="acute" x="95" y="150" flags="0x4"/>
    </TTGlyph>
    <TTGlyph name="Abreve" xMin="20" yMin="0" xMax="483" yMax="904">
      <component glyphName="A" x="0" y="0" flags="0x204"/>
      <component glyphName="breve" x="94" y="150" flags="0x4"/>
    </TTGlyph>
    <TTGlyph name="Acircumflex" xMin="20" yMin="0" xMax="483" yMax="918">
      <component glyphName="A" x="0" y="0" flags="0x204"/>
      <component glyphName="circumflex" x="93" y="150" flags="0x4"/>
    </TTGlyph>
    <TTGlyph name="Adieresis" xMin="20" yMin="0" xMax="483" yMax="882">
      <component glyphName="A" x="0" y="0" flags="0x204"/>
      <component glyphName="dieresis" x="94" y="150" flags="0x4"/>
    </TTGlyph>
    <TTGlyph name="Agrave" xMin="20" yMin="0" xMax="483" yMax="928">
      <component glyphName="A" x="0" y="0" flags="0x204"/>
      <component glyphName="grave" x="94" y="150" flags="0x4"/>
    </TTGlyph>
    <TTGlyph name="Alpha" xMin="20" yMin="0" xMax="483" yMax="693">
      <component glyphName="A" x="0" y="0" flags="0x204"/>
    </TTGlyph>
    <TTGlyph name="Alphatonos" xMin="12" yMin="0" xMax="483" yMax="711">
      <component glyphName="A" x="0" y="0" flags="0x204"/>
      <component glyphName="tonos.cap" x="-80" y="0" flags="0x4"/>
    </TTGlyph>
    <TTGlyph name="Amacron" xMin="20" yMin="0" xMax="483" yMax="861">
      <component glyphName="A" x="0" y="0" flags="0x204"/>
      <component glyphName="uni02C9" x="94" y="150" flags="0x4"/>
    </TTGlyph>
    <TTGlyph name="Aogonek" xMin="20" yMin="-187" xMax="485" yMax="693">
      <contour>
        <pt x="485" y="-176" on="1"/>
        <pt x="457" y="-187" on="0"/>
        <pt x="423" y="-187" on="1"/>
        <pt x="379" y="-187" on="0"/>
        <pt x="323" y="-144" on="0"/>
        <pt x="323" y="-106" on="1"/>
        <pt x="323" y="-74" on="0"/>
        <pt x="359" y="-24" on="0"/>
        <pt x="393" y="0" on="1"/>
        <pt x="385" y="45" on="0"/>
        <pt x="368" y="133" on="0"/>
        <pt x="359" y="177" on="1"/>
        <pt x="141" y="177" on="1"/>
        <pt x="131" y="133" on="0"/>
        <pt x="115" y="45" on="0"/>
        <pt x="107" y="0" on="1"/>
        <pt x="20" y="0" on="1"/>
        <pt x="42" y="109" on="0"/>
        <pt x="88" y="297" on="0"/>
        <pt x="133" y="465" on="0"/>
        <pt x="180" y="618" on="0"/>
        <pt x="204" y="693" on="1"/>
        <pt x="299" y="693" on="1"/>
        <pt x="323" y="618" on="0"/>
        <pt x="370" y="465" on="0"/>
        <pt x="415" y="297" on="0"/>
        <pt x="460" y="109" on="0"/>
        <pt x="483" y="0" on="1"/>
        <pt x="444" y="-21" on="0"/>
        <pt x="401" y="-62" on="0"/>
        <pt x="401" y="-83" on="1"/>
        <pt x="401" y="-103" on="0"/>
        <pt x="426" y="-120" on="0"/>
        <pt x="444" y="-120" on="1"/>
        <pt x="463" y="-120" on="0"/>
        <pt x="480" y="-113" on="1"/>
      </contour>
      <contour>
        <pt x="250" y="591" on="1"/>
        <pt x="225" y="508" on="0"/>
        <pt x="179" y="340" on="0"/>
        <pt x="158" y="252" on="1"/>
        <pt x="341" y="252" on="1"/>
        <pt x="321" y="340" on="0"/>
        <pt x="275" y="508" on="0"/>
      </contour>
    </TTGlyph>
    <TTGlyph name="Aring" xMin="20" yMin="0" xMax="483" yMax="826">
      <contour>
        <pt x="336" y="741" on="1"/>
        <pt x="336" y="719" on="0"/>
        <pt x="319" y="685" on="0"/>
        <pt x="305" y="674" on="1"/>
        <pt x="328" y="602" on="0"/>
        <pt x="373" y="452" on="0"/>
        <pt x="418" y="289" on="0"/>
        <pt x="461" y="106" on="0"/>
        <pt x="483" y="0" on="1"/>
        <pt x="393" y="0" on="1"/>
        <pt x="385" y="45" on="0"/>
        <pt x="368" y="133" on="0"/>
        <pt x="359" y="177" on="1"/>
        <pt x="141" y="177" on="1"/>
        <pt x="131" y="133" on="0"/>
        <pt x="115" y="45" on="0"/>
        <pt x="107" y="0" on="1"/>
        <pt x="20" y="0" on="1"/>
        <pt x="42" y="106" on="0"/>
        <pt x="85" y="288" on="0"/>
        <pt x="129" y="452" on="0"/>
        <pt x="174" y="601" on="0"/>
        <pt x="197" y="673" on="1"/>
        <pt x="183" y="684" on="0"/>
        <pt x="166" y="718" on="0"/>
        <pt x="166" y="741" on="1"/>
        <pt x="166" y="780" on="0"/>
        <pt x="216" y="826" on="0"/>
        <pt x="251" y="826" on="1"/>
        <pt x="286" y="826" on="0"/>
        <pt x="336" y="780" on="0"/>
      </contour>
      <contour>
        <pt x="250" y="591" on="1"/>
        <pt x="225" y="508" on="0"/>
        <pt x="179" y="340" on="0"/>
        <pt x="158" y="252" on="1"/>
        <pt x="341" y="252" on="1"/>
        <pt x="321" y="340" on="0"/>
        <pt x="275" y="508" on="0"/>
      </contour>
      <contour>
        <pt x="291" y="741" on="1"/>
        <pt x="291" y="761" on="0"/>
        <pt x="268" y="782" on="0"/>
        <pt x="251" y="782" on="1"/>
        <pt x="234" y="782" on="0"/>
        <pt x="211" y="761" on="0"/>
        <pt x="211" y="741" on="1"/>
        <pt x="211" y="721" on="0"/>
        <pt x="234" y="700" on="0"/>
        <pt x="251" y="700" on="1"/>
        <pt x="268" y="700" on="0"/>
        <pt x="291" y="721" on="0"/>
      </contour>
    </TTGlyph>
    <TTGlyph name="Aringacute" xMin="20" yMin="0" xMax="483" yMax="962">
      <contour>
        <pt x="336" y="741" on="1"/>
        <pt x="336" y="719" on="0"/>
        <pt x="319" y="685" on="0"/>
        <pt x="305" y="674" on="1"/>
        <pt x="328" y="602" on="0"/>
        <pt x="373" y="452" on="0"/>
        <pt x="418" y="289" on="0"/>
        <pt x="461" y="106" on="0"/>
        <pt x="483" y="0" on="1"/>
        <pt x="393" y="0" on="1"/>
        <pt x="385" y="45" on="0"/>
        <pt x="368" y="133" on="0"/>
        <pt x="359" y="177" on="1"/>
        <pt x="141" y="177" on="1"/>
        <pt x="131" y="133" on="0"/>
        <pt x="115" y="45" on="0"/>
        <pt x="107" y="0" on="1"/>
        <pt x="20" y="0" on="1"/>
        <pt x="42" y="106" on="0"/>
        <pt x="85" y="288" on="0"/>
        <pt x="129" y="452" on="0"/>
        <pt x="174" y="601" on="0"/>
        <pt x="197" y="673" on="1"/>
        <pt x="183" y="684" on="0"/>
        <pt x="166" y="718" on="0"/>
        <pt x="166" y="741" on="1"/>
        <pt x="166" y="780" on="0"/>
        <pt x="216" y="826" on="0"/>
        <pt x="251" y="826" on="1"/>
        <pt x="286" y="826" on="0"/>
        <pt x="336" y="780" on="0"/>
      </contour>
      <contour>
        <pt x="250" y="591" on="1"/>
        <pt x="225" y="508" on="0"/>
        <pt x="179" y="340" on="0"/>
        <pt x="158" y="252" on="1"/>
        <pt x="341" y="252" on="1"/>
        <pt x="321" y="340" on="0"/>
        <pt x="275" y="508" on="0"/>
      </contour>
      <contour>
        <pt x="330" y="891" on="1"/>
        <pt x="173" y="834" on="1"/>
        <pt x="152" y="884" on="1"/>
        <pt x="303" y="962" on="1"/>
      </contour>
      <contour>
        <pt x="291" y="741" on="1"/>
        <pt x="291" y="761" on="0"/>
        <pt x="268" y="782" on="0"/>
        <pt x="251" y="782" on="1"/>
        <pt x="234" y="782" on="0"/>
        <pt x="211" y="761" on="0"/>
        <pt x="211" y="741" on="1"/>
        <pt x="211" y="721" on="0"/>
        <pt x="234" y="700" on="0"/>
        <pt x="251" y="700" on="1"/>
        <pt x="268" y="700" on="0"/>
        <pt x="291" y="721" on="0"/>
      </contour>
    </TTGlyph>
    <TTGlyph name="At" xMin="63" yMin="-85" xMax="761" yMax="777">
      <component glyphName="at" x="0" y="68" flags="0x204"/>
    </TTGlyph>
    <TTGlyph name="Atilde" xMin="20" yMin="0" xMax="483" yMax="888">
      <component glyphName="A" x="0" y="0" flags="0x204"/>
      <component glyphName="tilde" x="94" y="150" flags="0x4"/>
    </TTGlyph>
    <TTGlyph name="B" xMin="84" yMin="-5" xMax="477" yMax="700">
      <contour>
        <pt x="174" y="398" on="1"/>
        <pt x="236" y="398" on="1"/>
        <pt x="360" y="398" on="0"/>
        <pt x="360" y="510" on="1"/>
        <pt x="360" y="545" on="0"/>
        <pt x="339" y="590" on="0"/>
        <pt x="305" y="615" on="0"/>
        <pt x="260" y="625" on="0"/>
        <pt x="235" y="625" on="1"/>
        <pt x="220" y="625" on="0"/>
        <pt x="189" y="623" on="0"/>
        <pt x="174" y="621" on="1"/>
      </contour>
      <contour>
        <pt x="174" y="326" on="1"/>
        <pt x="174" y="76" on="1"/>
        <pt x="193" y="73" on="0"/>
        <pt x="230" y="69" on="0"/>
        <pt x="248" y="69" on="1"/>
        <pt x="276" y="69" on="0"/>
        <pt x="326" y="81" on="0"/>
        <pt x="363" y="109" on="0"/>
        <pt x="384" y="158" on="0"/>
        <pt x="384" y="194" on="1"/>
        <pt x="384" y="256" on="0"/>
        <pt x="317" y="326" on="0"/>
        <pt x="246" y="326" on="1"/>
      </contour>
      <contour>
        <pt x="84" y="683" on="1"/>
        <pt x="119" y="691" on="0"/>
        <pt x="192" y="700" on="0"/>
        <pt x="228" y="700" on="1"/>
        <pt x="273" y="700" on="0"/>
        <pt x="354" y="683" on="0"/>
        <pt x="416" y="642" on="0"/>
        <pt x="453" y="575" on="0"/>
        <pt x="453" y="525" on="1"/>
        <pt x="453" y="463" on="0"/>
        <pt x="401" y="384" on="0"/>
        <pt x="360" y="365" on="1"/>
        <pt x="411" y="345" on="0"/>
        <pt x="477" y="263" on="0"/>
        <pt x="477" y="191" on="1"/>
        <pt x="477" y="137" on="0"/>
        <pt x="442" y="63" on="0"/>
        <pt x="378" y="16" on="0"/>
        <pt x="289" y="-5" on="0"/>
        <pt x="236" y="-5" on="1"/>
        <pt x="201" y="-5" on="0"/>
        <pt x="125" y="3" on="0"/>
        <pt x="84" y="11" on="1"/>
      </contour>
    </TTGlyph>
    <TTGlyph name="Backslash" xMin="-26" yMin="-138" xMax="296" yMax="830">
      <component glyphName="backslash" x="0" y="47" flags="0x204"/>
    </TTGlyph>
    <TTGlyph name="Beta" xMin="84" yMin="-5" xMax="477" yMax="700">
      <component glyphName="B" x="0" y="0" flags="0x204"/>
    </TTGlyph>
    <TTGlyph name="Braceleft" xMin="37" yMin="-138" xMax="260" yMax="830">
      <component glyphName="braceleft" x="0" y="47" flags="0x204"/>
    </TTGlyph>
    <TTGlyph name="Braceright" xMin="6" yMin="-138" xMax="229" yMax="830">
      <component glyphName="braceright" x="0" y="47" flags="0x204"/>
    </TTGlyph>
    <TTGlyph name="Bracketleft" xMin="94" yMin="-138" xMax="275" yMax="830">
      <component glyphName="bracketleft" x="0" y="47" flags="0x204"/>
    </TTGlyph>
    <TTGlyph name="Bracketright" xMin="6" yMin="-138" xMax="187" yMax="830">
      <component glyphName="bracketright" x="0" y="47" flags="0x204"/>
    </TTGlyph>
    <TTGlyph name="Bullet" xMin="50" yMin="234" xMax="278" yMax="460">
      <component glyphName="bullet" x="0" y="-6" flags="0x204"/>
    </TTGlyph>
    <TTGlyph name="C" xMin="55" yMin="-15" xMax="454" yMax="709">
      <contour>
        <pt x="307" y="-15" on="1"/>
        <pt x="185" y="-15" on="0"/>
        <pt x="55" y="167" on="0"/>
        <pt x="55" y="357" on="1"/>
        <pt x="55" y="454" on="0"/>
        <pt x="92" y="588" on="0"/>
        <pt x="158" y="672" on="0"/>
        <pt x="248" y="709" on="0"/>
        <pt x="301" y="709" on="1"/>
        <pt x="345" y="709" on="0"/>
        <pt x="421" y="686" on="0"/>
        <pt x="445" y="669" on="1"/>
        <pt x="418" y="594" on="1"/>
        <pt x="394" y="610" on="0"/>
        <pt x="339" y="630" on="0"/>
        <pt x="303" y="630" on="1"/>
        <pt x="223" y="630" on="0"/>
        <pt x="151" y="497" on="0"/>
        <pt x="151" y="357" on="1"/>
        <pt x="151" y="216" on="0"/>
        <pt x="227" y="64" on="0"/>
        <pt x="313" y="64" on="1"/>
        <pt x="354" y="64" on="0"/>
        <pt x="405" y="84" on="0"/>
        <pt x="429" y="100" on="1"/>
        <pt x="454" y="29" on="1"/>
        <pt x="431" y="11" on="0"/>
        <pt x="356" y="-15" on="0"/>
      </contour>
    </TTGlyph>
    <TTGlyph name="Cacute" xMin="55" yMin="-15" xMax="454" yMax="928">
      <component glyphName="C" x="0" y="0" flags="0x204"/>
      <component glyphName="acute" x="126" y="150" flags="0x4"/>
    </TTGlyph>
    <TTGlyph name="Ccaron" xMin="55" yMin="-15" xMax="454" yMax="918">
      <component glyphName="C" x="0" y="0" flags="0x204"/>
      <component glyphName="caron" x="128" y="150" flags="0x4"/>
    </TTGlyph>
    <TTGlyph name="Ccedilla" xMin="55" yMin="-189" xMax="454" yMax="709">
      <contour>
        <pt x="296" y="-40" on="1"/>
        <pt x="325" y="-51" on="0"/>
        <pt x="349" y="-86" on="0"/>
        <pt x="349" y="-109" on="1"/>
        <pt x="349" y="-147" on="0"/>
        <pt x="289" y="-189" on="0"/>
        <pt x="245" y="-189" on="1"/>
        <pt x="230" y="-189" on="0"/>
        <pt x="194" y="-184" on="0"/>
        <pt x="177" y="-178" on="1"/>
        <pt x="187" y="-123" on="1"/>
        <pt x="197" y="-125" on="0"/>
        <pt x="219" y="-130" on="0"/>
        <pt x="231" y="-130" on="1"/>
        <pt x="249" y="-130" on="0"/>
        <pt x="275" y="-119" on="0"/>
        <pt x="275" y="-103" on="1"/>
        <pt x="275" y="-92" on="0"/>
        <pt x="253" y="-76" on="0"/>
        <pt x="223" y="-70" on="1"/>
        <pt x="228" y="-56" on="0"/>
        <pt x="241" y="-23" on="0"/>
        <pt x="248" y="-9" on="1"/>
        <pt x="154" y="11" on="0"/>
        <pt x="55" y="191" on="0"/>
        <pt x="55" y="357" on="1"/>
        <pt x="55" y="454" on="0"/>
        <pt x="92" y="588" on="0"/>
        <pt x="158" y="672" on="0"/>
        <pt x="248" y="709" on="0"/>
        <pt x="301" y="709" on="1"/>
        <pt x="345" y="709" on="0"/>
        <pt x="421" y="686" on="0"/>
        <pt x="445" y="669" on="1"/>
        <pt x="418" y="594" on="1"/>
        <pt x="394" y="610" on="0"/>
        <pt x="339" y="630" on="0"/>
        <pt x="303" y="630" on="1"/>
        <pt x="223" y="630" on="0"/>
        <pt x="151" y="497" on="0"/>
        <pt x="151" y="357" on="1"/>
        <pt x="151" y="216" on="0"/>
        <pt x="227" y="64" on="0"/>
        <pt x="313" y="64" on="1"/>
        <pt x="354" y="64" on="0"/>
        <pt x="405" y="84" on="0"/>
        <pt x="429" y="100" on="1"/>
        <pt x="454" y="29" on="1"/>
        <pt x="431" y="11" on="0"/>
        <pt x="356" y="-15" on="0"/>
        <pt x="307" y="-15" on="1"/>
      </contour>
    </TTGlyph>
    <TTGlyph name="Ccircumflex" xMin="55" yMin="-15" xMax="454" yMax="918">
      <component glyphName="C" x="0" y="0" flags="0x204"/>
      <component glyphName="circumflex" x="127" y="150" flags="0x4"/>
    </TTGlyph>
    <TTGlyph name="Cdotaccent" xMin="55" yMin="-15" xMax="454" yMax="882">
      <component glyphName="C" x="0" y="0" flags="0x204"/>
      <component glyphName="dotaccent" x="128" y="150" flags="0x4"/>
    </TTGlyph>
    <TTGlyph name="Chi" xMin="18" yMin="0" xMax="453" yMax="693">
      <component glyphName="X" x="0" y="0" flags="0x204"/>
    </TTGlyph>
    <TTGlyph name="D" xMin="83" yMin="-7" xMax="521" yMax="701">
      <contour>
        <pt x="521" y="347" on="1"/>
        <pt x="521" y="250" on="0"/>
        <pt x="480" y="115" on="0"/>
        <pt x="403" y="31" on="0"/>
        <pt x="294" y="-7" on="0"/>
        <pt x="227" y="-7" on="1"/>
        <pt x="159" y="-7" on="0"/>
        <pt x="83" y="11" on="1"/>
        <pt x="83" y="683" on="1"/>
        <pt x="121" y="691" on="0"/>
        <pt x="193" y="701" on="0"/>
        <pt x="226" y="701" on="1"/>
        <pt x="294" y="701" on="0"/>
        <pt x="403" y="663" on="0"/>
        <pt x="480" y="579" on="0"/>
        <pt x="521" y="444" on="0"/>
      </contour>
      <contour>
        <pt x="425" y="347" on="1"/>
        <pt x="425" y="421" on="0"/>
        <pt x="403" y="525" on="0"/>
        <pt x="357" y="591" on="0"/>
        <pt x="282" y="621" on="0"/>
        <pt x="230" y="621" on="1"/>
        <pt x="216" y="621" on="0"/>
        <pt x="188" y="619" on="0"/>
        <pt x="173" y="617" on="1"/>
        <pt x="173" y="77" on="1"/>
        <pt x="188" y="75" on="0"/>
        <pt x="216" y="73" on="0"/>
        <pt x="229" y="73" on="1"/>
        <pt x="282" y="73" on="0"/>
        <pt x="356" y="103" on="0"/>
        <pt x="403" y="168" on="0"/>
        <pt x="425" y="272" on="0"/>
      </contour>
    </TTGlyph>
    <TTGlyph name="Dcaron" xMin="83" yMin="-7" xMax="521" yMax="918">
      <component glyphName="D" x="0" y="0" flags="0x204"/>
      <component glyphName="caron" x="112" y="150" flags="0x4"/>
    </TTGlyph>
    <TTGlyph name="Dcroat" xMin="15" yMin="-7" xMax="521" yMax="701">
      <component glyphName="Eth" x="0" y="0" flags="0x204"/>
    </TTGlyph>
    <TTGlyph name="Delta" xMin="20" yMin="0" xMax="494" yMax="695">
      <contour>
        <pt x="20" y="0" on="1"/>
        <pt x="44" y="106" on="0"/>
        <pt x="89" y="288" on="0"/>
        <pt x="135" y="454" on="0"/>
        <pt x="185" y="612" on="0"/>
        <pt x="213" y="695" on="1"/>
        <pt x="303" y="695" on="1"/>
        <pt x="331" y="612" on="0"/>
        <pt x="380" y="454" on="0"/>
        <pt x="426" y="288" on="0"/>
        <pt x="470" y="106" on="0"/>
        <pt x="494" y="0" on="1"/>
      </contour>
      <contour>
        <pt x="256" y="581" on="1"/>
        <pt x="245" y="548" on="0"/>
        <pt x="215" y="448" on="0"/>
        <pt x="179" y="319" on="0"/>
        <pt x="139" y="165" on="0"/>
        <pt x="120" y="78" on="1"/>
        <pt x="391" y="78" on="1"/>
        <pt x="371" y="165" on="0"/>
        <pt x="332" y="320" on="0"/>
        <pt x="297" y="449" on="0"/>
        <pt x="267" y="549" on="0"/>
      </contour>
    </TTGlyph>
    <TTGlyph name="E" xMin="84" yMin="0" xMax="411" yMax="693">
      <contour>
        <pt x="84" y="0" on="1"/>
        <pt x="84" y="693" on="1"/>
        <pt x="395" y="693" on="1"/>
        <pt x="395" y="616" on="1"/>
        <pt x="174" y="616" on="1"/>
        <pt x="174" y="401" on="1"/>
        <pt x="374" y="401" on="1"/>
        <pt x="374" y="326" on="1"/>
        <pt x="174" y="326" on="1"/>
        <pt x="174" y="77" on="1"/>
        <pt x="411" y="77" on="1"/>
        <pt x="411" y="0" on="1"/>
      </contour>
    </TTGlyph>
    <TTGlyph name="Eacute" xMin="84" yMin="0" xMax="411" yMax="928">
      <component glyphName="E" x="0" y="0" flags="0x204"/>
      <component glyphName="acute" x="74" y="150" flags="0x4"/>
    </TTGlyph>
    <TTGlyph name="Ebreve" xMin="84" yMin="0" xMax="411" yMax="904">
      <component glyphName="E" x="0" y="0" flags="0x204"/>
      <component glyphName="breve" x="86" y="150" flags="0x4"/>
    </TTGlyph>
    <TTGlyph name="Ecaron" xMin="84" yMin="0" xMax="411" yMax="918">
      <component glyphName="E" x="0" y="0" flags="0x204"/>
      <component glyphName="caron" x="82" y="150" flags="0x4"/>
    </TTGlyph>
    <TTGlyph name="Ecircumflex" xMin="84" yMin="0" xMax="411" yMax="918">
      <component glyphName="E" x="0" y="0" flags="0x204"/>
      <component glyphName="circumflex" x="85" y="150" flags="0x4"/>
    </TTGlyph>
    <TTGlyph name="Edieresis" xMin="84" yMin="0" xMax="411" yMax="882">
      <component glyphName="E" x="0" y="0" flags="0x204"/>
      <component glyphName="dieresis" x="81" y="150" flags="0x4"/>
    </TTGlyph>
    <TTGlyph name="Edotaccent" xMin="84" yMin="0" xMax="411" yMax="882">
      <component glyphName="E" x="0" y="0" flags="0x204"/>
      <component glyphName="dotaccent" x="86" y="150" flags="0x4"/>
    </TTGlyph>
    <TTGlyph name="Egrave" xMin="84" yMin="0" xMax="411" yMax="928">
      <component glyphName="E" x="0" y="0" flags="0x204"/>
      <component glyphName="grave" x="81" y="150" flags="0x4"/>
    </TTGlyph>
    <TTGlyph name="Emacron" xMin="84" yMin="0" xMax="411" yMax="861">
      <component glyphName="E" x="0" y="0" flags="0x204"/>
      <component glyphName="uni02C9" x="86" y="150" flags="0x4"/>
    </TTGlyph>
    <TTGlyph name="Emdash" xMin="-4" yMin="309" xMax="746" yMax="382">
      <component glyphName="emdash" x="0" y="45" flags="0x204"/>
    </TTGlyph>
    <TTGlyph name="Endash" xMin="-4" yMin="309" xMax="371" yMax="382">
      <component glyphName="endash" x="0" y="45" flags="0x204"/>
    </TTGlyph>
    <TTGlyph name="Eng" xMin="84" yMin="-190" xMax="497" yMax="693">
      <contour>
        <pt x="497" y="-30" on="1"/>
        <pt x="497" y="-116" on="0"/>
        <pt x="430" y="-190" on="0"/>
        <pt x="370" y="-190" on="1"/>
        <pt x="355" y="-190" on="0"/>
        <pt x="326" y="-185" on="0"/>
        <pt x="313" y="-180" on="1"/>
        <pt x="325" y="-107" on="1"/>
        <pt x="334" y="-109" on="0"/>
        <pt x="351" y="-112" on="0"/>
        <pt x="360" y="-112" on="1"/>
        <pt x="373" y="-112" on="0"/>
        <pt x="393" y="-105" on="0"/>
        <pt x="406" y="-85" on="0"/>
        <pt x="413" y="-51" on="0"/>
        <pt x="413" y="-25" on="1"/>
        <pt x="413" y="27" on="1"/>
        <pt x="389" y="85" on="0"/>
        <pt x="330" y="215" on="0"/>
        <pt x="266" y="347" on="0"/>
        <pt x="200" y="475" on="0"/>
        <pt x="168" y="531" on="1"/>
        <pt x="168" y="0" on="1"/>
        <pt x="84" y="0" on="1"/>
        <pt x="84" y="693" on="1"/>
        <pt x="159" y="693" on="1"/>
        <pt x="197" y="631" on="0"/>
        <pt x="268" y="501" on="0"/>
        <pt x="332" y="374" on="0"/>
        <pt x="389" y="251" on="0"/>
        <pt x="413" y="196" on="1"/>
        <pt x="413" y="693" on="1"/>
        <pt x="497" y="693" on="1"/>
      </contour>
    </TTGlyph>
    <TTGlyph name="Eogonek" xMin="84" yMin="-187" xMax="413" yMax="693">
      <contour>
        <pt x="413" y="-176" on="1"/>
        <pt x="385" y="-187" on="0"/>
        <pt x="351" y="-187" on="1"/>
        <pt x="307" y="-187" on="0"/>
        <pt x="251" y="-144" on="0"/>
        <pt x="251" y="-106" on="1"/>
        <pt x="251" y="-74" on="0"/>
        <pt x="284" y="-24" on="0"/>
        <pt x="313" y="0" on="1"/>
        <pt x="84" y="0" on="1"/>
        <pt x="84" y="693" on="1"/>
        <pt x="395" y="693" on="1"/>
        <pt x="395" y="616" on="1"/>
        <pt x="174" y="616" on="1"/>
        <pt x="174" y="401" on="1"/>
        <pt x="374" y="401" on="1"/>
        <pt x="374" y="326" on="1"/>
        <pt x="174" y="326" on="1"/>
        <pt x="174" y="77" on="1"/>
        <pt x="411" y="77" on="1"/>
        <pt x="411" y="0" on="1"/>
        <pt x="372" y="-21" on="0"/>
        <pt x="329" y="-62" on="0"/>
        <pt x="329" y="-83" on="1"/>
        <pt x="329" y="-103" on="0"/>
        <pt x="354" y="-120" on="0"/>
        <pt x="372" y="-120" on="1"/>
        <pt x="391" y="-120" on="0"/>
        <pt x="408" y="-113" on="1"/>
      </contour>
    </TTGlyph>
    <TTGlyph name="Epsilon" xMin="84" yMin="0" xMax="411" yMax="693">
      <component glyphName="E" x="0" y="0" flags="0x204"/>
    </TTGlyph>
    <TTGlyph name="Epsilontonos" xMin="-29" yMin="0" xMax="471" yMax="711">
      <component glyphName="E" x="60" y="0" flags="0x4"/>
      <component glyphName="tonos.cap" x="-121" y="0" flags="0x4"/>
    </TTGlyph>
    <TTGlyph name="Eta" xMin="84" yMin="0" xMax="492" yMax="693">
      <component glyphName="H" x="0" y="0" flags="0x204"/>
    </TTGlyph>
    <TTGlyph name="Etatonos" xMin="-31" yMin="0" xMax="550" yMax="711">
      <component glyphName="H" x="58" y="0" flags="0x4"/>
      <component glyphName="tonos.cap" x="-123" y="0" flags="0x4"/>
    </TTGlyph>
    <TTGlyph name="Eth" xMin="15" yMin="-7" xMax="521" yMax="701">
      <contour>
        <pt x="15" y="380" on="1"/>
        <pt x="83" y="380" on="1"/>
        <pt x="83" y="683" on="1"/>
        <pt x="121" y="691" on="0"/>
        <pt x="193" y="701" on="0"/>
        <pt x="226" y="701" on="1"/>
        <pt x="293" y="701" on="0"/>
        <pt x="402" y="662" on="0"/>
        <pt x="479" y="577" on="0"/>
        <pt x="521" y="442" on="0"/>
        <pt x="521" y="347" on="1"/>
        <pt x="521" y="252" on="0"/>
        <pt x="479" y="117" on="0"/>
        <pt x="402" y="32" on="0"/>
        <pt x="293" y="-7" on="0"/>
        <pt x="227" y="-7" on="1"/>
        <pt x="159" y="-7" on="0"/>
        <pt x="83" y="11" on="1"/>
        <pt x="83" y="314" on="1"/>
        <pt x="15" y="314" on="1"/>
      </contour>
      <contour>
        <pt x="425" y="347" on="1"/>
        <pt x="425" y="491" on="0"/>
        <pt x="333" y="621" on="0"/>
        <pt x="230" y="621" on="1"/>
        <pt x="216" y="621" on="0"/>
        <pt x="188" y="619" on="0"/>
        <pt x="173" y="617" on="1"/>
        <pt x="173" y="380" on="1"/>
        <pt x="281" y="380" on="1"/>
        <pt x="281" y="314" on="1"/>
        <pt x="173" y="314" on="1"/>
        <pt x="173" y="77" on="1"/>
        <pt x="188" y="75" on="0"/>
        <pt x="216" y="73" on="0"/>
        <pt x="229" y="73" on="1"/>
        <pt x="332" y="73" on="0"/>
        <pt x="425" y="202" on="0"/>
      </contour>
    </TTGlyph>
    <TTGlyph name="Euro" xMin="27" yMin="-13" xMax="414" yMax="708">
      <contour>
        <pt x="27" y="464" on="1"/>
        <pt x="109" y="464" on="1"/>
        <pt x="118" y="536" on="0"/>
        <pt x="156" y="630" on="0"/>
        <pt x="209" y="686" on="0"/>
        <pt x="273" y="708" on="0"/>
        <pt x="308" y="708" on="1"/>
        <pt x="338" y="708" on="0"/>
        <pt x="388" y="691" on="0"/>
        <pt x="409" y="677" on="1"/>
        <pt x="382" y="608" on="1"/>
        <pt x="368" y="617" on="0"/>
        <pt x="333" y="632" on="0"/>
        <pt x="310" y="632" on="1"/>
        <pt x="259" y="632" on="0"/>
        <pt x="206" y="549" on="0"/>
        <pt x="197" y="464" on="1"/>
        <pt x="349" y="464" on="1"/>
        <pt x="336" y="398" on="1"/>
        <pt x="193" y="398" on="1"/>
        <pt x="192" y="385" on="0"/>
        <pt x="192" y="359" on="0"/>
        <pt x="192" y="345" on="1"/>
        <pt x="192" y="301" on="1"/>
        <pt x="316" y="301" on="1"/>
        <pt x="303" y="235" on="1"/>
        <pt x="197" y="235" on="1"/>
        <pt x="207" y="141" on="0"/>
        <pt x="267" y="62" on="0"/>
        <pt x="320" y="62" on="1"/>
        <pt x="341" y="62" on="0"/>
        <pt x="381" y="73" on="0"/>
        <pt x="398" y="82" on="1"/>
        <pt x="414" y="13" on="1"/>
        <pt x="401" y="5" on="0"/>
        <pt x="344" y="-13" on="0"/>
        <pt x="314" y="-13" on="1"/>
        <pt x="271" y="-13" on="0"/>
        <pt x="201" y="14" on="0"/>
        <pt x="149" y="74" on="0"/>
        <pt x="114" y="168" on="0"/>
        <pt x="107" y="235" on="1"/>
        <pt x="27" y="235" on="1"/>
        <pt x="27" y="301" on="1"/>
        <pt x="103" y="301" on="1"/>
        <pt x="102" y="312" on="0"/>
        <pt x="102" y="333" on="0"/>
        <pt x="102" y="345" on="1"/>
        <pt x="102" y="359" on="0"/>
        <pt x="102" y="385" on="0"/>
        <pt x="103" y="398" on="1"/>
        <pt x="27" y="398" on="1"/>
      </contour>
    </TTGlyph>
    <TTGlyph name="Exclamdown" xMin="72" yMin="-16" xMax="191" yMax="707">
      <component glyphName="exclamdown" x="0" y="169" flags="0x204"/>
    </TTGlyph>
    <TTGlyph name="F" xMin="84" yMin="0" xMax="395" yMax="693">
      <contour>
        <pt x="84" y="0" on="1"/>
        <pt x="84" y="693" on="1"/>
        <pt x="395" y="693" on="1"/>
        <pt x="395" y="616" on="1"/>
        <pt x="174" y="616" on="1"/>
        <pt x="174" y="398" on="1"/>
        <pt x="370" y="398" on="1"/>
        <pt x="370" y="323" on="1"/>
        <pt x="174" y="323" on="1"/>
        <pt x="174" y="0" on="1"/>
      </contour>
    </TTGlyph>
    <TTGlyph name="G" xMin="55" yMin="-16" xMax="456" yMax="709">
      <contour>
        <pt x="55" y="347" on="1"/>
        <pt x="55" y="445" on="0"/>
        <pt x="91" y="583" on="0"/>
        <pt x="158" y="670" on="0"/>
        <pt x="253" y="709" on="0"/>
        <pt x="312" y="709" on="1"/>
        <pt x="357" y="709" on="0"/>
        <pt x="431" y="684" on="0"/>
        <pt x="454" y="668" on="1"/>
        <pt x="426" y="593" on="1"/>
        <pt x="403" y="609" on="0"/>
        <pt x="349" y="630" on="0"/>
        <pt x="314" y="630" on="1"/>
        <pt x="227" y="630" on="0"/>
        <pt x="151" y="489" on="0"/>
        <pt x="151" y="347" on="1"/>
        <pt x="151" y="271" on="0"/>
        <pt x="174" y="163" on="0"/>
        <pt x="216" y="95" on="0"/>
        <pt x="276" y="63" on="0"/>
        <pt x="313" y="63" on="1"/>
        <pt x="344" y="63" on="0"/>
        <pt x="366" y="70" on="1"/>
        <pt x="366" y="341" on="1"/>
        <pt x="456" y="341" on="1"/>
        <pt x="456" y="15" on="1"/>
        <pt x="429" y="2" on="0"/>
        <pt x="349" y="-16" on="0"/>
        <pt x="305" y="-16" on="1"/>
        <pt x="251" y="-16" on="0"/>
        <pt x="159" y="27" on="0"/>
        <pt x="92" y="116" on="0"/>
        <pt x="55" y="253" on="0"/>
      </contour>
    </TTGlyph>
    <TTGlyph name="Gamma" xMin="84" yMin="0" xMax="386" yMax="693">
      <component glyphName="afii10020" x="0" y="0" flags="0x204"/>
    </TTGlyph>
    <TTGlyph name="Gbreve" xMin="55" yMin="-16" xMax="456" yMax="904">
      <component glyphName="G" x="0" y="0" flags="0x204"/>
      <component glyphName="breve" x="136" y="150" flags="0x4"/>
    </TTGlyph>
    <TTGlyph name="Gcaron" xMin="55" yMin="-16" xMax="456" yMax="924">
      <component glyphName="G" x="0" y="0" flags="0x204"/>
      <component glyphName="caron" x="143" y="156" flags="0x4"/>
    </TTGlyph>
    <TTGlyph name="Gcircumflex" xMin="55" yMin="-16" xMax="456" yMax="918">
      <component glyphName="G" x="0" y="0" flags="0x204"/>
      <component glyphName="circumflex" x="135" y="150" flags="0x4"/>
    </TTGlyph>
    <TTGlyph name="Gcommaaccent" xMin="55" yMin="-188" xMax="456" yMax="709">
      <component glyphName="G" x="0" y="0" flags="0x204"/>
      <component glyphName="commaaccent" x="114" y="0" flags="0x4"/>
    </TTGlyph>
    <TTGlyph name="Gdotaccent" xMin="55" yMin="-16" xMax="456" yMax="882">
      <component glyphName="G" x="0" y="0" flags="0x204"/>
      <component glyphName="dotaccent" x="136" y="150" flags="0x4"/>
    </TTGlyph>
    <TTGlyph name="Guillemotleft" xMin="28" yMin="125" xMax="411" yMax="567">
      <component glyphName="guillemotleft" x="0" y="62" flags="0x204"/>
    </TTGlyph>
    <TTGlyph name="Guillemotright" xMin="42" yMin="125" xMax="425" yMax="567">
      <component glyphName="guillemotright" x="0" y="62" flags="0x204"/>
    </TTGlyph>
    <TTGlyph name="Guilsinglleft" xMin="28" yMin="125" xMax="222" yMax="567">
      <component glyphName="guilsinglleft" x="0" y="62" flags="0x204"/>
    </TTGlyph>
    <TTGlyph name="Guilsinglright" xMin="42" yMin="125" xMax="236" yMax="567">
      <component glyphName="guilsinglright" x="0" y="62" flags="0x204"/>
    </TTGlyph>
    <TTGlyph name="H" xMin="84" yMin="0" xMax="492" yMax="693">
      <contour>
        <pt x="402" y="693" on="1"/>
        <pt x="492" y="693" on="1"/>
        <pt x="492" y="0" on="1"/>
        <pt x="402" y="0" on="1"/>
        <pt x="402" y="322" on="1"/>
        <pt x="174" y="322" on="1"/>
        <pt x="174" y="0" on="1"/>
        <pt x="84" y="0" on="1"/>
        <pt x="84" y="693" on="1"/>
        <pt x="174" y="693" on="1"/>
        <pt x="174" y="400" on="1"/>
        <pt x="402" y="400" on="1"/>
      </contour>
    </TTGlyph>
    <TTGlyph name="Hbar" xMin="16" yMin="0" xMax="560" yMax="693">
      <contour>
        <pt x="16" y="582" on="1"/>
        <pt x="84" y="582" on="1"/>
        <pt x="84" y="693" on="1"/>
        <pt x="174" y="693" on="1"/>
        <pt x="174" y="582" on="1"/>
        <pt x="402" y="582" on="1"/>
        <pt x="402" y="693" on="1"/>
        <pt x="492" y="693" on="1"/>
        <pt x="492" y="582" on="1"/>
        <pt x="560" y="582" on="1"/>
        <pt x="560" y="516" on="1"/>
        <pt x="492" y="516" on="1"/>
        <pt x="492" y="0" on="1"/>
        <pt x="402" y="0" on="1"/>
        <pt x="402" y="322" on="1"/>
        <pt x="174" y="322" on="1"/>
        <pt x="174" y="0" on="1"/>
        <pt x="84" y="0" on="1"/>
        <pt x="84" y="516" on="1"/>
        <pt x="16" y="516" on="1"/>
      </contour>
      <contour>
        <pt x="402" y="516" on="1"/>
        <pt x="174" y="516" on="1"/>
        <pt x="174" y="400" on="1"/>
        <pt x="402" y="400" on="1"/>
      </contour>
    </TTGlyph>
    <TTGlyph name="Hcircumflex" xMin="84" yMin="0" xMax="492" yMax="918">
      <component glyphName="H" x="0" y="0" flags="0x204"/>
      <component glyphName="circumflex" x="130" y="150" flags="0x4"/>
    </TTGlyph>
    <TTGlyph name="Hyphen" xMin="24" yMin="305" xMax="209" yMax="386">
      <component glyphName="hyphen" x="0" y="46" flags="0x204"/>
    </TTGlyph>
    <TTGlyph name="I" xMin="84" yMin="0" xMax="174" yMax="693">
      <contour>
        <pt x="84" y="693" on="1"/>
        <pt x="174" y="693" on="1"/>
        <pt x="174" y="0" on="1"/>
        <pt x="84" y="0" on="1"/>
      </contour>
    </TTGlyph>
    <TTGlyph name="IJ" xMin="84" yMin="-15" xMax="574" yMax="693">
      <component glyphName="I" x="0" y="0" flags="0x4"/>
      <component glyphName="J" x="258" y="0" flags="0x4"/>
    </TTGlyph>
    <TTGlyph name="Iacute" xMin="80" yMin="0" xMax="259" yMax="928">
      <component glyphName="I" x="0" y="0" flags="0x204"/>
      <component glyphName="acute" x="-27" y="150" flags="0x4"/>
    </TTGlyph>
    <TTGlyph name="Ibreve" xMin="15" yMin="0" xMax="245" yMax="904">
      <component glyphName="I" x="0" y="0" flags="0x204"/>
      <component glyphName="breve" x="-27" y="150" flags="0x4"/>
    </TTGlyph>
    <TTGlyph name="Icircumflex" xMin="14" yMin="0" xMax="244" yMax="918">
      <component glyphName="I" x="0" y="0" flags="0x204"/>
      <component glyphName="circumflex" x="-28" y="150" flags="0x4"/>
    </TTGlyph>
    <TTGlyph name="Idieresis" xMin="-9" yMin="0" xMax="269" yMax="882">
      <component glyphName="I" x="0" y="0" flags="0x204"/>
      <component glyphName="dieresis" x="-27" y="150" flags="0x4"/>
    </TTGlyph>
    <TTGlyph name="Idotaccent" xMin="74" yMin="0" xMax="186" yMax="882">
      <component glyphName="I" x="0" y="0" flags="0x204"/>
      <component glyphName="dotaccent" x="-27" y="150" flags="0x4"/>
    </TTGlyph>
    <TTGlyph name="Igrave" xMin="1" yMin="0" xMax="180" yMax="928">
      <component glyphName="I" x="0" y="0" flags="0x204"/>
      <component glyphName="grave" x="-27" y="150" flags="0x4"/>
    </TTGlyph>
    <TTGlyph name="Imacron" xMin="23" yMin="0" xMax="236" yMax="861">
      <component glyphName="I" x="0" y="0" flags="0x204"/>
      <component glyphName="uni02C9" x="-27" y="150" flags="0x4"/>
    </TTGlyph>
    <TTGlyph name="Iogonek" xMin="14" yMin="-187" xMax="176" yMax="693">
      <contour>
        <pt x="176" y="-176" on="1"/>
        <pt x="148" y="-187" on="0"/>
        <pt x="114" y="-187" on="1"/>
        <pt x="70" y="-187" on="0"/>
        <pt x="14" y="-144" on="0"/>
        <pt x="14" y="-106" on="1"/>
        <pt x="14" y="-73" on="0"/>
        <pt x="50" y="-14" on="0"/>
        <pt x="84" y="11" on="1"/>
        <pt x="84" y="693" on="1"/>
        <pt x="174" y="693" on="1"/>
        <pt x="174" y="0" on="1"/>
        <pt x="135" y="-21" on="0"/>
        <pt x="92" y="-62" on="0"/>
        <pt x="92" y="-83" on="1"/>
        <pt x="92" y="-103" on="0"/>
        <pt x="117" y="-120" on="0"/>
        <pt x="135" y="-120" on="1"/>
        <pt x="154" y="-120" on="0"/>
        <pt x="171" y="-113" on="1"/>
      </contour>
    </TTGlyph>
    <TTGlyph name="Iota" xMin="84" yMin="0" xMax="174" yMax="693">
      <component glyphName="I" x="0" y="0" flags="0x204"/>
    </TTGlyph>
    <TTGlyph name="Iotadieresis" xMin="-2" yMin="0" xMax="276" yMax="888">
      <component glyphName="I" x="0" y="0" flags="0x204"/>
      <component glyphName="dieresis" x="-20" y="156" flags="0x4"/>
    </TTGlyph>
    <TTGlyph name="Iotatonos" xMin="-31" yMin="0" xMax="232" yMax="711">
      <component glyphName="I" x="58" y="0" flags="0x4"/>
      <component glyphName="tonos.cap" x="-123" y="0" flags="0x4"/>
    </TTGlyph>
    <TTGlyph name="Itilde" xMin="2" yMin="0" xMax="258" yMax="888">
      <component glyphName="I" x="0" y="0" flags="0x204"/>
      <component glyphName="tilde" x="-27" y="150" flags="0x4"/>
    </TTGlyph>
    <TTGlyph name="J" xMin="5" yMin="-15" xMax="316" yMax="693">
      <contour>
        <pt x="316" y="184" on="1"/>
        <pt x="316" y="138" on="0"/>
        <pt x="297" y="65" on="0"/>
        <pt x="256" y="13" on="0"/>
        <pt x="189" y="-15" on="0"/>
        <pt x="141" y="-15" on="1"/>
        <pt x="103" y="-15" on="0"/>
        <pt x="33" y="8" on="0"/>
        <pt x="5" y="29" on="1"/>
        <pt x="35" y="100" on="1"/>
        <pt x="52" y="87" on="0"/>
        <pt x="109" y="64" on="0"/>
        <pt x="136" y="64" on="1"/>
        <pt x="157" y="64" on="0"/>
        <pt x="190" y="74" on="0"/>
        <pt x="214" y="101" on="0"/>
        <pt x="226" y="148" on="0"/>
        <pt x="226" y="184" on="1"/>
        <pt x="226" y="693" on="1"/>
        <pt x="316" y="693" on="1"/>
      </contour>
    </TTGlyph>
    <TTGlyph name="Jcircumflex" xMin="5" yMin="-15" xMax="385" yMax="918">
      <component glyphName="J" x="0" y="0" flags="0x204"/>
      <component glyphName="circumflex" x="113" y="150" flags="0x4"/>
    </TTGlyph>
    <TTGlyph name="K" xMin="84" yMin="0" xMax="505" yMax="693">
      <contour>
        <pt x="480" y="693" on="1"/>
        <pt x="458" y="659" on="0"/>
        <pt x="403" y="577" on="0"/>
        <pt x="345" y="490" on="0"/>
        <pt x="286" y="406" on="0"/>
        <pt x="259" y="370" on="1"/>
        <pt x="289" y="340" on="0"/>
        <pt x="359" y="249" on="0"/>
        <pt x="427" y="148" on="0"/>
        <pt x="487" y="44" on="0"/>
        <pt x="505" y="0" on="1"/>
        <pt x="404" y="0" on="1"/>
        <pt x="383" y="46" on="0"/>
        <pt x="328" y="142" on="0"/>
        <pt x="267" y="231" on="0"/>
        <pt x="204" y="307" on="0"/>
        <pt x="174" y="333" on="1"/>
        <pt x="174" y="0" on="1"/>
        <pt x="84" y="0" on="1"/>
        <pt x="84" y="693" on="1"/>
        <pt x="174" y="693" on="1"/>
        <pt x="174" y="387" on="1"/>
        <pt x="200" y="420" on="0"/>
        <pt x="258" y="504" on="0"/>
        <pt x="315" y="588" on="0"/>
        <pt x="365" y="665" on="0"/>
        <pt x="382" y="693" on="1"/>
      </contour>
    </TTGlyph>
    <TTGlyph name="Kappa" xMin="84" yMin="0" xMax="505" yMax="693">
      <component glyphName="K" x="0" y="0" flags="0x204"/>
    </TTGlyph>
    <TTGlyph name="Kcommaaccent" xMin="84" yMin="-188" xMax="505" yMax="693">
      <component glyphName="K" x="0" y="0" flags="0x204"/>
      <component glyphName="commaaccent" x="84" y="0" flags="0x4"/>
    </TTGlyph>
    <TTGlyph name="L" xMin="84" yMin="0" xMax="393" yMax="693">
      <contour>
        <pt x="393" y="77" on="1"/>
        <pt x="393" y="0" on="1"/>
        <pt x="84" y="0" on="1"/>
        <pt x="84" y="693" on="1"/>
        <pt x="174" y="693" on="1"/>
        <pt x="174" y="77" on="1"/>
      </contour>
    </TTGlyph>
    <TTGlyph name="Lacute" xMin="68" yMin="0" xMax="393" yMax="928">
      <component glyphName="L" x="0" y="0" flags="0x204"/>
      <component glyphName="acute" x="-39" y="150" flags="0x4"/>
    </TTGlyph>
    <TTGlyph name="Lambda" xMin="20" yMin="0" xMax="477" yMax="693">
      <contour>
        <pt x="297" y="693" on="1"/>
        <pt x="320" y="618" on="0"/>
        <pt x="366" y="465" on="0"/>
        <pt x="411" y="297" on="0"/>
        <pt x="455" y="109" on="0"/>
        <pt x="477" y="0" on="1"/>
        <pt x="383" y="0" on="1"/>
        <pt x="370" y="77" on="0"/>
        <pt x="338" y="232" on="0"/>
        <pt x="302" y="382" on="0"/>
        <pt x="265" y="523" on="0"/>
        <pt x="247" y="586" on="1"/>
        <pt x="229" y="523" on="0"/>
        <pt x="192" y="382" on="0"/>
        <pt x="156" y="232" on="0"/>
        <pt x="124" y="77" on="0"/>
        <pt x="111" y="0" on="1"/>
        <pt x="20" y="0" on="1"/>
        <pt x="42" y="109" on="0"/>
        <pt x="86" y="297" on="0"/>
        <pt x="131" y="465" on="0"/>
        <pt x="177" y="618" on="0"/>
        <pt x="200" y="693" on="1"/>
      </contour>
    </TTGlyph>
    <TTGlyph name="Lcaron" xMin="84" yMin="0" xMax="393" yMax="694">
      <component glyphName="L" x="0" y="0" flags="0x204"/>
      <component glyphName="caron.alt" x="130" y="-82" flags="0x4"/>
    </TTGlyph>
    <TTGlyph name="Lcommaaccent" xMin="84" yMin="-188" xMax="393" yMax="693">
      <component glyphName="L" x="0" y="0" flags="0x204"/>
      <component glyphName="commaaccent" x="52" y="0" flags="0x4"/>
    </TTGlyph>
    <TTGlyph name="Ldot" xMin="84" yMin="0" xMax="393" yMax="693">
      <component glyphName="L" x="0" y="0" flags="0x204"/>
      <component glyphName="periodcentered" x="199" y="66" flags="0x4"/>
    </TTGlyph>
    <TTGlyph name="Lslash" xMin="11" yMin="0" xMax="403" yMax="693">
      <contour>
        <pt x="11" y="310" on="1"/>
        <pt x="94" y="360" on="1"/>
        <pt x="94" y="693" on="1"/>
        <pt x="184" y="693" on="1"/>
        <pt x="184" y="414" on="1"/>
        <pt x="284" y="474" on="1"/>
        <pt x="318" y="418" on="1"/>
        <pt x="184" y="337" on="1"/>
        <pt x="184" y="77" on="1"/>
        <pt x="403" y="77" on="1"/>
        <pt x="403" y="0" on="1"/>
        <pt x="94" y="0" on="1"/>
        <pt x="94" y="283" on="1"/>
        <pt x="45" y="254" on="1"/>
      </contour>
    </TTGlyph>
    <TTGlyph name="M" xMin="69" yMin="0" xMax="657" yMax="693">
      <contour>
        <pt x="325" y="96" on="1"/>
        <pt x="305" y="168" on="0"/>
        <pt x="263" y="300" on="0"/>
        <pt x="224" y="417" on="0"/>
        <pt x="188" y="513" on="0"/>
        <pt x="173" y="549" on="1"/>
        <pt x="169" y="492" on="0"/>
        <pt x="164" y="355" on="0"/>
        <pt x="159" y="211" on="0"/>
        <pt x="156" y="66" on="0"/>
        <pt x="155" y="0" on="1"/>
        <pt x="69" y="0" on="1"/>
        <pt x="72" y="90" on="0"/>
        <pt x="78" y="273" on="0"/>
        <pt x="87" y="450" on="0"/>
        <pt x="98" y="618" on="0"/>
        <pt x="105" y="693" on="1"/>
        <pt x="194" y="693" on="1"/>
        <pt x="212" y="650" on="0"/>
        <pt x="258" y="531" on="0"/>
        <pt x="305" y="401" on="0"/>
        <pt x="349" y="271" on="0"/>
        <pt x="365" y="217" on="1"/>
        <pt x="381" y="271" on="0"/>
        <pt x="423" y="401" on="0"/>
        <pt x="469" y="531" on="0"/>
        <pt x="514" y="650" on="0"/>
        <pt x="532" y="693" on="1"/>
        <pt x="621" y="693" on="1"/>
        <pt x="628" y="618" on="0"/>
        <pt x="639" y="450" on="0"/>
        <pt x="648" y="273" on="0"/>
        <pt x="654" y="90" on="0"/>
        <pt x="657" y="0" on="1"/>
        <pt x="571" y="0" on="1"/>
        <pt x="569" y="66" on="0"/>
        <pt x="566" y="212" on="0"/>
        <pt x="561" y="359" on="0"/>
        <pt x="555" y="498" on="0"/>
        <pt x="551" y="556" on="1"/>
        <pt x="542" y="531" on="0"/>
        <pt x="515" y="456" on="0"/>
        <pt x="486" y="368" on="0"/>
        <pt x="455" y="275" on="0"/>
        <pt x="428" y="189" on="0"/>
        <pt x="407" y="118" on="0"/>
        <pt x="401" y="96" on="1"/>
      </contour>
    </TTGlyph>
    <TTGlyph name="Mu" xMin="69" yMin="0" xMax="657" yMax="693">
      <component glyphName="M" x="0" y="0" flags="0x204"/>
    </TTGlyph>
    <TTGlyph name="N" xMin="84" yMin="0" xMax="497" yMax="693">
      <contour>
        <pt x="424" y="0" on="1"/>
        <pt x="400" y="59" on="0"/>
        <pt x="339" y="196" on="0"/>
        <pt x="272" y="335" on="0"/>
        <pt x="202" y="472" on="0"/>
        <pt x="168" y="531" on="1"/>
        <pt x="168" y="0" on="1"/>
        <pt x="84" y="0" on="1"/>
        <pt x="84" y="693" on="1"/>
        <pt x="159" y="693" on="1"/>
        <pt x="197" y="631" on="0"/>
        <pt x="268" y="501" on="0"/>
        <pt x="332" y="374" on="0"/>
        <pt x="389" y="251" on="0"/>
        <pt x="413" y="196" on="1"/>
        <pt x="413" y="693" on="1"/>
        <pt x="497" y="693" on="1"/>
        <pt x="497" y="0" on="1"/>
      </contour>
    </TTGlyph>
    <TTGlyph name="Nacute" xMin="84" yMin="0" xMax="497" yMax="928">
      <component glyphName="N" x="0" y="0" flags="0x204"/>
      <component glyphName="acute" x="134" y="150" flags="0x4"/>
    </TTGlyph>
    <TTGlyph name="Ncaron" xMin="84" yMin="0" xMax="497" yMax="918">
      <component glyphName="N" x="0" y="0" flags="0x204"/>
      <component glyphName="caron" x="134" y="150" flags="0x4"/>
    </TTGlyph>
    <TTGlyph name="Ncommaaccent" xMin="84" yMin="-188" xMax="497" yMax="693">
      <component glyphName="N" x="0" y="0" flags="0x204"/>
      <component glyphName="commaaccent" x="107" y="0" flags="0x4"/>
    </TTGlyph>
    <TTGlyph name="Ntilde" xMin="84" yMin="0" xMax="497" yMax="888">
      <component glyphName="N" x="0" y="0" flags="0x204"/>
      <component glyphName="tilde" x="134" y="150" flags="0x4"/>
    </TTGlyph>
    <TTGlyph name="Nu" xMin="84" yMin="0" xMax="497" yMax="693">
      <component glyphName="N" x="0" y="0" flags="0x204"/>
    </TTGlyph>
    <TTGlyph name="O" xMin="56" yMin="-15" xMax="549" yMax="709">
      <contour>
        <pt x="549" y="346" on="1"/>
        <pt x="549" y="265" on="0"/>
        <pt x="520" y="132" on="0"/>
        <pt x="459" y="37" on="0"/>
        <pt x="366" y="-15" on="0"/>
        <pt x="303" y="-15" on="1"/>
        <pt x="240" y="-15" on="0"/>
        <pt x="147" y="37" on="0"/>
        <pt x="86" y="132" on="0"/>
        <pt x="56" y="265" on="0"/>
        <pt x="56" y="346" on="1"/>
        <pt x="56" y="427" on="0"/>
        <pt x="86" y="561" on="0"/>
        <pt x="147" y="656" on="0"/>
        <pt x="240" y="709" on="0"/>
        <pt x="303" y="709" on="1"/>
        <pt x="366" y="709" on="0"/>
        <pt x="459" y="656" on="0"/>
        <pt x="520" y="561" on="0"/>
        <pt x="549" y="427" on="0"/>
      </contour>
      <contour>
        <pt x="453" y="346" on="1"/>
        <pt x="453" y="409" on="0"/>
        <pt x="437" y="513" on="0"/>
        <pt x="401" y="588" on="0"/>
        <pt x="344" y="630" on="0"/>
        <pt x="303" y="630" on="1"/>
        <pt x="262" y="630" on="0"/>
        <pt x="205" y="588" on="0"/>
        <pt x="169" y="513" on="0"/>
        <pt x="152" y="409" on="0"/>
        <pt x="152" y="346" on="1"/>
        <pt x="152" y="283" on="0"/>
        <pt x="169" y="179" on="0"/>
        <pt x="205" y="105" on="0"/>
        <pt x="262" y="64" on="0"/>
        <pt x="303" y="64" on="1"/>
        <pt x="344" y="64" on="0"/>
        <pt x="401" y="105" on="0"/>
        <pt x="437" y="179" on="0"/>
        <pt x="453" y="283" on="0"/>
      </contour>
    </TTGlyph>
    <TTGlyph name="OE" xMin="56" yMin="-7" xMax="721" yMax="701">
      <contour>
        <pt x="56" y="347" on="1"/>
        <pt x="56" y="442" on="0"/>
        <pt x="97" y="577" on="0"/>
        <pt x="172" y="662" on="0"/>
        <pt x="278" y="701" on="0"/>
        <pt x="343" y="701" on="1"/>
        <pt x="365" y="701" on="0"/>
        <pt x="411" y="697" on="0"/>
        <pt x="436" y="693" on="1"/>
        <pt x="705" y="693" on="1"/>
        <pt x="705" y="616" on="1"/>
        <pt x="484" y="616" on="1"/>
        <pt x="484" y="401" on="1"/>
        <pt x="684" y="401" on="1"/>
        <pt x="684" y="326" on="1"/>
        <pt x="484" y="326" on="1"/>
        <pt x="484" y="77" on="1"/>
        <pt x="721" y="77" on="1"/>
        <pt x="721" y="0" on="1"/>
        <pt x="425" y="0" on="1"/>
        <pt x="404" y="-3" on="0"/>
        <pt x="364" y="-7" on="0"/>
        <pt x="344" y="-7" on="1"/>
        <pt x="279" y="-7" on="0"/>
        <pt x="172" y="32" on="0"/>
        <pt x="97" y="117" on="0"/>
        <pt x="56" y="252" on="0"/>
      </contour>
      <contour>
        <pt x="152" y="347" on="1"/>
        <pt x="152" y="203" on="0"/>
        <pt x="241" y="73" on="0"/>
        <pt x="339" y="73" on="1"/>
        <pt x="353" y="73" on="0"/>
        <pt x="380" y="75" on="0"/>
        <pt x="394" y="77" on="1"/>
        <pt x="394" y="617" on="1"/>
        <pt x="380" y="619" on="0"/>
        <pt x="353" y="621" on="0"/>
        <pt x="340" y="621" on="1"/>
        <pt x="241" y="621" on="0"/>
        <pt x="152" y="492" on="0"/>
      </contour>
    </TTGlyph>
    <TTGlyph name="Oacute" xMin="56" yMin="-15" xMax="549" yMax="928">
      <component glyphName="O" x="0" y="0" flags="0x204"/>
      <component glyphName="acute" x="145" y="150" flags="0x4"/>
    </TTGlyph>
    <TTGlyph name="Obreve" xMin="56" yMin="-15" xMax="549" yMax="904">
      <component glyphName="O" x="0" y="0" flags="0x204"/>
      <component glyphName="breve" x="145" y="150" flags="0x4"/>
    </TTGlyph>
    <TTGlyph name="Ocircumflex" xMin="56" yMin="-15" xMax="549" yMax="918">
      <component glyphName="O" x="0" y="0" flags="0x204"/>
      <component glyphName="circumflex" x="144" y="150" flags="0x4"/>
    </TTGlyph>
    <TTGlyph name="Odieresis" xMin="56" yMin="-15" xMax="549" yMax="882">
      <component glyphName="O" x="0" y="0" flags="0x204"/>
      <component glyphName="dieresis" x="145" y="150" flags="0x4"/>
    </TTGlyph>
    <TTGlyph name="Ograve" xMin="56" yMin="-15" xMax="549" yMax="928">
      <component glyphName="O" x="0" y="0" flags="0x204"/>
      <component glyphName="grave" x="145" y="150" flags="0x4"/>
    </TTGlyph>
    <TTGlyph name="Ohorn" xMin="56" yMin="-15" xMax="567" yMax="801">
      <contour>
        <pt x="549" y="346" on="1"/>
        <pt x="549" y="265" on="0"/>
        <pt x="520" y="132" on="0"/>
        <pt x="459" y="37" on="0"/>
        <pt x="366" y="-15" on="0"/>
        <pt x="303" y="-15" on="1"/>
        <pt x="240" y="-15" on="0"/>
        <pt x="147" y="37" on="0"/>
        <pt x="86" y="132" on="0"/>
        <pt x="56" y="265" on="0"/>
        <pt x="56" y="346" on="1"/>
        <pt x="56" y="427" on="0"/>
        <pt x="86" y="561" on="0"/>
        <pt x="147" y="656" on="0"/>
        <pt x="240" y="709" on="0"/>
        <pt x="303" y="709" on="1"/>
        <pt x="392" y="709" on="0"/>
        <pt x="451" y="655" on="1"/>
        <pt x="467" y="680" on="0"/>
        <pt x="481" y="731" on="0"/>
        <pt x="481" y="763" on="1"/>
        <pt x="481" y="773" on="0"/>
        <pt x="480" y="795" on="0"/>
        <pt x="479" y="801" on="1"/>
        <pt x="565" y="801" on="1"/>
        <pt x="567" y="790" on="0"/>
        <pt x="567" y="778" on="0"/>
        <pt x="567" y="769" on="1"/>
        <pt x="567" y="721" on="0"/>
        <pt x="531" y="631" on="0"/>
        <pt x="497" y="595" on="1"/>
        <pt x="523" y="547" on="0"/>
        <pt x="549" y="422" on="0"/>
      </contour>
      <contour>
        <pt x="453" y="346" on="1"/>
        <pt x="453" y="409" on="0"/>
        <pt x="437" y="513" on="0"/>
        <pt x="401" y="588" on="0"/>
        <pt x="344" y="630" on="0"/>
        <pt x="303" y="630" on="1"/>
        <pt x="262" y="630" on="0"/>
        <pt x="205" y="588" on="0"/>
        <pt x="169" y="513" on="0"/>
        <pt x="152" y="409" on="0"/>
        <pt x="152" y="346" on="1"/>
        <pt x="152" y="283" on="0"/>
        <pt x="169" y="179" on="0"/>
        <pt x="205" y="105" on="0"/>
        <pt x="262" y="64" on="0"/>
        <pt x="303" y="64" on="1"/>
        <pt x="344" y="64" on="0"/>
        <pt x="401" y="105" on="0"/>
        <pt x="437" y="179" on="0"/>
        <pt x="453" y="283" on="0"/>
      </contour>
    </TTGlyph>
    <TTGlyph name="Ohungarumlaut" xMin="56" yMin="-15" xMax="549" yMax="934">
      <component glyphName="O" x="0" y="0" flags="0x204"/>
      <component glyphName="hungarumlaut" x="162" y="150" flags="0x4"/>
    </TTGlyph>
    <TTGlyph name="Omacron" xMin="56" yMin="-15" xMax="549" yMax="861">
      <component glyphName="O" x="0" y="0" flags="0x204"/>
      <component glyphName="uni02C9" x="145" y="150" flags="0x4"/>
    </TTGlyph>
    <TTGlyph name="Omega" xMin="50" yMin="0" xMax="561" yMax="711">
      <component glyphName="uni2126" x="0" y="0" flags="0x204"/>
    </TTGlyph>
    <TTGlyph name="Omegatonos" xMin="-31" yMin="0" xMax="586" yMax="711">
      <component glyphName="tonos.cap" x="-123" y="0" flags="0x4"/>
      <component glyphName="uni2126" x="25" y="0" flags="0x4"/>
    </TTGlyph>
    <TTGlyph name="Omicron" xMin="56" yMin="-15" xMax="549" yMax="709">
      <component glyphName="O" x="0" y="0" flags="0x204"/>
    </TTGlyph>
    <TTGlyph name="Omicrontonos" xMin="-31" yMin="-15" xMax="575" yMax="711">
      <component glyphName="O" x="26" y="0" flags="0x4"/>
      <component glyphName="tonos.cap" x="-123" y="0" flags="0x4"/>
    </TTGlyph>
    <TTGlyph name="Oslash" xMin="56" yMin="-36" xMax="549" yMax="730">
      <contour>
        <pt x="63" y="-3" on="1"/>
        <pt x="115" y="86" on="1"/>
        <pt x="85" y="134" on="0"/>
        <pt x="56" y="265" on="0"/>
        <pt x="56" y="346" on="1"/>
        <pt x="56" y="427" on="0"/>
        <pt x="86" y="561" on="0"/>
        <pt x="147" y="656" on="0"/>
        <pt x="240" y="709" on="0"/>
        <pt x="303" y="709" on="1"/>
        <pt x="347" y="709" on="0"/>
        <pt x="418" y="683" on="0"/>
        <pt x="446" y="659" on="1"/>
        <pt x="487" y="730" on="1"/>
        <pt x="544" y="697" on="1"/>
        <pt x="491" y="605" on="1"/>
        <pt x="520" y="557" on="0"/>
        <pt x="549" y="426" on="0"/>
        <pt x="549" y="346" on="1"/>
        <pt x="549" y="265" on="0"/>
        <pt x="520" y="132" on="0"/>
        <pt x="459" y="37" on="0"/>
        <pt x="366" y="-15" on="0"/>
        <pt x="303" y="-15" on="1"/>
        <pt x="217" y="-15" on="0"/>
        <pt x="160" y="34" on="1"/>
        <pt x="120" y="-36" on="1"/>
      </contour>
      <contour>
        <pt x="152" y="346" on="1"/>
        <pt x="152" y="249" on="0"/>
        <pt x="171" y="183" on="1"/>
        <pt x="401" y="581" on="1"/>
        <pt x="383" y="604" on="0"/>
        <pt x="335" y="630" on="0"/>
        <pt x="303" y="630" on="1"/>
        <pt x="262" y="630" on="0"/>
        <pt x="205" y="588" on="0"/>
        <pt x="169" y="513" on="0"/>
        <pt x="152" y="409" on="0"/>
      </contour>
      <contour>
        <pt x="453" y="346" on="1"/>
        <pt x="453" y="440" on="0"/>
        <pt x="435" y="508" on="1"/>
        <pt x="205" y="111" on="1"/>
        <pt x="223" y="88" on="0"/>
        <pt x="271" y="64" on="0"/>
        <pt x="303" y="64" on="1"/>
        <pt x="344" y="64" on="0"/>
        <pt x="401" y="105" on="0"/>
        <pt x="437" y="179" on="0"/>
        <pt x="453" y="283" on="0"/>
      </contour>
    </TTGlyph>
    <TTGlyph name="Oslashacute" xMin="56" yMin="-36" xMax="549" yMax="928">
      <component glyphName="Oslash" x="0" y="0" flags="0x204"/>
      <component glyphName="acute" x="145" y="150" flags="0x4"/>
    </TTGlyph>
    <TTGlyph name="Otilde" xMin="56" yMin="-15" xMax="549" yMax="888">
      <component glyphName="O" x="0" y="0" flags="0x204"/>
      <component glyphName="tilde" x="145" y="150" flags="0x4"/>
    </TTGlyph>
    <TTGlyph name="P" xMin="84" yMin="0" xMax="452" yMax="700">
      <contour>
        <pt x="84" y="683" on="1"/>
        <pt x="154" y="700" on="0"/>
        <pt x="221" y="700" on="1"/>
        <pt x="273" y="700" on="0"/>
        <pt x="358" y="675" on="0"/>
        <pt x="419" y="622" on="0"/>
        <pt x="452" y="538" on="0"/>
        <pt x="452" y="479" on="1"/>
        <pt x="452" y="419" on="0"/>
        <pt x="418" y="334" on="0"/>
        <pt x="356" y="281" on="0"/>
        <pt x="269" y="257" on="0"/>
        <pt x="216" y="257" on="1"/>
        <pt x="174" y="257" on="1"/>
        <pt x="174" y="0" on="1"/>
        <pt x="84" y="0" on="1"/>
      </contour>
      <contour>
        <pt x="174" y="336" on="1"/>
        <pt x="210" y="336" on="1"/>
        <pt x="244" y="336" on="0"/>
        <pt x="299" y="351" on="0"/>
        <pt x="337" y="385" on="0"/>
        <pt x="357" y="439" on="0"/>
        <pt x="357" y="479" on="1"/>
        <pt x="357" y="519" on="0"/>
        <pt x="337" y="574" on="0"/>
        <pt x="302" y="607" on="0"/>
        <pt x="252" y="621" on="0"/>
        <pt x="222" y="621" on="1"/>
        <pt x="196" y="621" on="0"/>
        <pt x="174" y="618" on="1"/>
      </contour>
    </TTGlyph>
    <TTGlyph name="Parenleft" xMin="76" yMin="-140" xMax="280" yMax="832">
      <component glyphName="parenleft" x="0" y="47" flags="0x204"/>
    </TTGlyph>
    <TTGlyph name="Parenright" xMin="5" yMin="-140" xMax="209" yMax="832">
      <component glyphName="parenright" x="0" y="47" flags="0x204"/>
    </TTGlyph>
    <TTGlyph name="Phi" xMin="45" yMin="0" xMax="609" yMax="738">
      <contour>
        <pt x="284" y="86" on="1"/>
        <pt x="229" y="91" on="0"/>
        <pt x="141" y="136" on="0"/>
        <pt x="79" y="209" on="0"/>
        <pt x="45" y="310" on="0"/>
        <pt x="45" y="370" on="1"/>
        <pt x="45" y="430" on="0"/>
        <pt x="79" y="531" on="0"/>
        <pt x="141" y="605" on="0"/>
        <pt x="229" y="650" on="0"/>
        <pt x="284" y="655" on="1"/>
        <pt x="284" y="738" on="1"/>
        <pt x="370" y="738" on="1"/>
        <pt x="370" y="655" on="1"/>
        <pt x="424" y="650" on="0"/>
        <pt x="513" y="605" on="0"/>
        <pt x="575" y="531" on="0"/>
        <pt x="609" y="430" on="0"/>
        <pt x="609" y="370" on="1"/>
        <pt x="609" y="310" on="0"/>
        <pt x="575" y="209" on="0"/>
        <pt x="513" y="136" on="0"/>
        <pt x="424" y="91" on="0"/>
        <pt x="370" y="86" on="1"/>
        <pt x="370" y="0" on="1"/>
        <pt x="284" y="0" on="1"/>
      </contour>
      <contour>
        <pt x="136" y="370" on="1"/>
        <pt x="136" y="282" on="0"/>
        <pt x="208" y="170" on="0"/>
        <pt x="284" y="161" on="1"/>
        <pt x="284" y="581" on="1"/>
        <pt x="208" y="571" on="0"/>
        <pt x="136" y="458" on="0"/>
      </contour>
      <contour>
        <pt x="518" y="370" on="1"/>
        <pt x="518" y="458" on="0"/>
        <pt x="446" y="571" on="0"/>
        <pt x="370" y="581" on="1"/>
        <pt x="370" y="161" on="1"/>
        <pt x="446" y="170" on="0"/>
        <pt x="518" y="282" on="0"/>
      </contour>
    </TTGlyph>
    <TTGlyph name="Pi" xMin="84" yMin="0" xMax="479" yMax="693">
      <component glyphName="afii10033" x="0" y="0" flags="0x204"/>
    </TTGlyph>
    <TTGlyph name="Psi" xMin="63" yMin="0" xMax="556" yMax="693">
      <contour>
        <pt x="268" y="179" on="1"/>
        <pt x="171" y="187" on="0"/>
        <pt x="63" y="302" on="0"/>
        <pt x="63" y="418" on="1"/>
        <pt x="63" y="693" on="1"/>
        <pt x="146" y="693" on="1"/>
        <pt x="146" y="426" on="1"/>
        <pt x="146" y="350" on="0"/>
        <pt x="200" y="264" on="0"/>
        <pt x="268" y="257" on="1"/>
        <pt x="268" y="693" on="1"/>
        <pt x="351" y="693" on="1"/>
        <pt x="351" y="257" on="1"/>
        <pt x="419" y="264" on="0"/>
        <pt x="473" y="350" on="0"/>
        <pt x="473" y="426" on="1"/>
        <pt x="473" y="693" on="1"/>
        <pt x="556" y="693" on="1"/>
        <pt x="556" y="418" on="1"/>
        <pt x="556" y="304" on="0"/>
        <pt x="446" y="187" on="0"/>
        <pt x="351" y="179" on="1"/>
        <pt x="351" y="0" on="1"/>
        <pt x="268" y="0" on="1"/>
      </contour>
    </TTGlyph>
    <TTGlyph name="Q" xMin="56" yMin="-180" xMax="549" yMax="709">
      <contour>
        <pt x="549" y="346" on="1"/>
        <pt x="549" y="275" on="0"/>
        <pt x="526" y="155" on="0"/>
        <pt x="480" y="63" on="0"/>
        <pt x="408" y="2" on="0"/>
        <pt x="360" y="-9" on="1"/>
        <pt x="362" y="-51" on="0"/>
        <pt x="448" y="-98" on="0"/>
        <pt x="516" y="-110" on="1"/>
        <pt x="495" y="-180" on="1"/>
        <pt x="455" y="-171" on="0"/>
        <pt x="382" y="-149" on="0"/>
        <pt x="323" y="-113" on="0"/>
        <pt x="282" y="-57" on="0"/>
        <pt x="273" y="-13" on="1"/>
        <pt x="217" y="-7" on="0"/>
        <pt x="136" y="50" on="0"/>
        <pt x="82" y="144" on="0"/>
        <pt x="56" y="270" on="0"/>
        <pt x="56" y="346" on="1"/>
        <pt x="56" y="427" on="0"/>
        <pt x="86" y="561" on="0"/>
        <pt x="147" y="656" on="0"/>
        <pt x="240" y="709" on="0"/>
        <pt x="303" y="709" on="1"/>
        <pt x="366" y="709" on="0"/>
        <pt x="459" y="656" on="0"/>
        <pt x="520" y="561" on="0"/>
        <pt x="549" y="427" on="0"/>
      </contour>
      <contour>
        <pt x="453" y="346" on="1"/>
        <pt x="453" y="409" on="0"/>
        <pt x="437" y="513" on="0"/>
        <pt x="401" y="588" on="0"/>
        <pt x="344" y="630" on="0"/>
        <pt x="303" y="630" on="1"/>
        <pt x="262" y="630" on="0"/>
        <pt x="205" y="588" on="0"/>
        <pt x="169" y="513" on="0"/>
        <pt x="152" y="409" on="0"/>
        <pt x="152" y="346" on="1"/>
        <pt x="152" y="283" on="0"/>
        <pt x="169" y="179" on="0"/>
        <pt x="205" y="105" on="0"/>
        <pt x="262" y="64" on="0"/>
        <pt x="303" y="64" on="1"/>
        <pt x="344" y="64" on="0"/>
        <pt x="401" y="105" on="0"/>
        <pt x="437" y="179" on="0"/>
        <pt x="453" y="283" on="0"/>
      </contour>
    </TTGlyph>
    <TTGlyph name="Questiondown" xMin="26" yMin="-17" xMax="325" yMax="708">
      <component glyphName="questiondown" x="0" y="171" flags="0x204"/>
    </TTGlyph>
    <TTGlyph name="R" xMin="84" yMin="0" xMax="484" yMax="700">
      <contour>
        <pt x="84" y="683" on="1"/>
        <pt x="154" y="700" on="0"/>
        <pt x="219" y="700" on="1"/>
        <pt x="271" y="700" on="0"/>
        <pt x="355" y="676" on="0"/>
        <pt x="415" y="624" on="0"/>
        <pt x="448" y="542" on="0"/>
        <pt x="448" y="484" on="1"/>
        <pt x="448" y="412" on="0"/>
        <pt x="393" y="323" on="0"/>
        <pt x="346" y="300" on="1"/>
        <pt x="358" y="280" on="0"/>
        <pt x="395" y="211" on="0"/>
        <pt x="434" y="128" on="0"/>
        <pt x="471" y="40" on="0"/>
        <pt x="484" y="0" on="1"/>
        <pt x="394" y="0" on="1"/>
        <pt x="383" y="30" on="0"/>
        <pt x="350" y="106" on="0"/>
        <pt x="314" y="181" on="0"/>
        <pt x="278" y="250" on="0"/>
        <pt x="264" y="274" on="1"/>
        <pt x="248" y="272" on="0"/>
        <pt x="214" y="270" on="0"/>
        <pt x="197" y="270" on="1"/>
        <pt x="172" y="270" on="1"/>
        <pt x="172" y="0" on="1"/>
        <pt x="84" y="0" on="1"/>
      </contour>
      <contour>
        <pt x="172" y="344" on="1"/>
        <pt x="210" y="344" on="1"/>
        <pt x="279" y="344" on="0"/>
        <pt x="353" y="407" on="0"/>
        <pt x="353" y="484" on="1"/>
        <pt x="353" y="523" on="0"/>
        <pt x="334" y="576" on="0"/>
        <pt x="299" y="607" on="0"/>
        <pt x="250" y="621" on="0"/>
        <pt x="220" y="621" on="1"/>
        <pt x="194" y="621" on="0"/>
        <pt x="172" y="618" on="1"/>
      </contour>
    </TTGlyph>
    <TTGlyph name="Racute" xMin="84" yMin="0" xMax="484" yMax="928">
      <component glyphName="R" x="0" y="0" flags="0x204"/>
      <component glyphName="acute" x="62" y="150" flags="0x4"/>
    </TTGlyph>
    <TTGlyph name="Rcaron" xMin="84" yMin="0" xMax="484" yMax="918">
      <component glyphName="R" x="0" y="0" flags="0x204"/>
      <component glyphName="caron" x="89" y="150" flags="0x4"/>
    </TTGlyph>
    <TTGlyph name="Rcommaaccent" xMin="84" yMin="-188" xMax="484" yMax="700">
      <component glyphName="R" x="0" y="0" flags="0x204"/>
      <component glyphName="commaaccent" x="82" y="0" flags="0x4"/>
    </TTGlyph>
    <TTGlyph name="Rho" xMin="84" yMin="0" xMax="452" yMax="700">
      <component glyphName="P" x="0" y="0" flags="0x204"/>
    </TTGlyph>
    <TTGlyph name="S" xMin="25" yMin="-15" xMax="377" yMax="709">
      <contour>
        <pt x="170" y="62" on="1"/>
        <pt x="224" y="62" on="0"/>
        <pt x="283" y="122" on="0"/>
        <pt x="283" y="173" on="1"/>
        <pt x="283" y="200" on="0"/>
        <pt x="265" y="242" on="0"/>
        <pt x="236" y="276" on="0"/>
        <pt x="198" y="304" on="0"/>
        <pt x="178" y="318" on="1"/>
        <pt x="155" y="334" on="0"/>
        <pt x="105" y="370" on="0"/>
        <pt x="64" y="418" on="0"/>
        <pt x="38" y="482" on="0"/>
        <pt x="38" y="525" on="1"/>
        <pt x="38" y="567" on="0"/>
        <pt x="67" y="635" on="0"/>
        <pt x="118" y="683" on="0"/>
        <pt x="189" y="709" on="0"/>
        <pt x="230" y="709" on="1"/>
        <pt x="270" y="709" on="0"/>
        <pt x="338" y="689" on="0"/>
        <pt x="361" y="675" on="1"/>
        <pt x="333" y="604" on="1"/>
        <pt x="312" y="618" on="0"/>
        <pt x="263" y="633" on="0"/>
        <pt x="236" y="633" on="1"/>
        <pt x="187" y="633" on="0"/>
        <pt x="128" y="580" on="0"/>
        <pt x="128" y="529" on="1"/>
        <pt x="128" y="501" on="0"/>
        <pt x="147" y="459" on="0"/>
        <pt x="178" y="425" on="0"/>
        <pt x="219" y="397" on="0"/>
        <pt x="242" y="382" on="1"/>
        <pt x="265" y="367" on="0"/>
        <pt x="313" y="331" on="0"/>
        <pt x="352" y="284" on="0"/>
        <pt x="377" y="221" on="0"/>
        <pt x="377" y="178" on="1"/>
        <pt x="377" y="139" on="0"/>
        <pt x="353" y="69" on="0"/>
        <pt x="302" y="16" on="0"/>
        <pt x="225" y="-15" on="0"/>
        <pt x="173" y="-15" on="1"/>
        <pt x="125" y="-15" on="0"/>
        <pt x="53" y="7" on="0"/>
        <pt x="25" y="25" on="1"/>
        <pt x="53" y="97" on="1"/>
        <pt x="79" y="81" on="0"/>
        <pt x="134" y="62" on="0"/>
      </contour>
    </TTGlyph>
    <TTGlyph name="Sacute" xMin="25" yMin="-15" xMax="377" yMax="928">
      <component glyphName="S" x="0" y="0" flags="0x204"/>
      <component glyphName="acute" x="52" y="150" flags="0x4"/>
    </TTGlyph>
    <TTGlyph name="Scaron" xMin="25" yMin="-15" xMax="377" yMax="918">
      <component glyphName="S" x="0" y="0" flags="0x204"/>
      <component glyphName="caron" x="54" y="150" flags="0x4"/>
    </TTGlyph>
    <TTGlyph name="Scedilla" xMin="25" yMin="-189" xMax="377" yMax="709">
      <contour>
        <pt x="170" y="62" on="1"/>
        <pt x="224" y="62" on="0"/>
        <pt x="283" y="122" on="0"/>
        <pt x="283" y="173" on="1"/>
        <pt x="283" y="200" on="0"/>
        <pt x="265" y="242" on="0"/>
        <pt x="236" y="276" on="0"/>
        <pt x="198" y="304" on="0"/>
        <pt x="178" y="318" on="1"/>
        <pt x="155" y="334" on="0"/>
        <pt x="105" y="370" on="0"/>
        <pt x="64" y="418" on="0"/>
        <pt x="38" y="482" on="0"/>
        <pt x="38" y="525" on="1"/>
        <pt x="38" y="567" on="0"/>
        <pt x="67" y="635" on="0"/>
        <pt x="118" y="683" on="0"/>
        <pt x="189" y="709" on="0"/>
        <pt x="230" y="709" on="1"/>
        <pt x="270" y="709" on="0"/>
        <pt x="338" y="689" on="0"/>
        <pt x="361" y="675" on="1"/>
        <pt x="333" y="604" on="1"/>
        <pt x="312" y="618" on="0"/>
        <pt x="263" y="633" on="0"/>
        <pt x="236" y="633" on="1"/>
        <pt x="187" y="633" on="0"/>
        <pt x="128" y="580" on="0"/>
        <pt x="128" y="529" on="1"/>
        <pt x="128" y="501" on="0"/>
        <pt x="147" y="459" on="0"/>
        <pt x="178" y="425" on="0"/>
        <pt x="219" y="397" on="0"/>
        <pt x="242" y="382" on="1"/>
        <pt x="265" y="367" on="0"/>
        <pt x="313" y="331" on="0"/>
        <pt x="352" y="284" on="0"/>
        <pt x="377" y="221" on="0"/>
        <pt x="377" y="178" on="1"/>
        <pt x="377" y="143" on="0"/>
        <pt x="358" y="81" on="0"/>
        <pt x="319" y="30" on="0"/>
        <pt x="260" y="-5" on="0"/>
        <pt x="220" y="-11" on="1"/>
        <pt x="216" y="-19" on="0"/>
        <pt x="209" y="-33" on="0"/>
        <pt x="207" y="-40" on="1"/>
        <pt x="236" y="-51" on="0"/>
        <pt x="260" y="-86" on="0"/>
        <pt x="260" y="-109" on="1"/>
        <pt x="260" y="-147" on="0"/>
        <pt x="200" y="-189" on="0"/>
        <pt x="156" y="-189" on="1"/>
        <pt x="141" y="-189" on="0"/>
        <pt x="105" y="-184" on="0"/>
        <pt x="88" y="-178" on="1"/>
        <pt x="98" y="-123" on="1"/>
        <pt x="108" y="-125" on="0"/>
        <pt x="130" y="-130" on="0"/>
        <pt x="142" y="-130" on="1"/>
        <pt x="160" y="-130" on="0"/>
        <pt x="186" y="-119" on="0"/>
        <pt x="186" y="-103" on="1"/>
        <pt x="186" y="-92" on="0"/>
        <pt x="164" y="-76" on="0"/>
        <pt x="134" y="-70" on="1"/>
        <pt x="138" y="-57" on="0"/>
        <pt x="150" y="-28" on="0"/>
        <pt x="156" y="-14" on="1"/>
        <pt x="114" y="-12" on="0"/>
        <pt x="50" y="8" on="0"/>
        <pt x="25" y="25" on="1"/>
        <pt x="53" y="97" on="1"/>
        <pt x="79" y="81" on="0"/>
        <pt x="134" y="62" on="0"/>
      </contour>
    </TTGlyph>
    <TTGlyph name="Scircumflex" xMin="25" yMin="-15" xMax="377" yMax="918">
      <component glyphName="S" x="0" y="0" flags="0x204"/>
      <component glyphName="circumflex" x="53" y="150" flags="0x4"/>
    </TTGlyph>
    <TTGlyph name="Scommaaccent" xMin="25" yMin="-188" xMax="377" yMax="709">
      <component glyphName="S" x="0" y="0" flags="0x204"/>
      <component glyphName="commaaccent" x="12" y="0" flags="0x4"/>
    </TTGlyph>
    <TTGlyph name="Sigma" xMin="31" yMin="0" xMax="401" yMax="693">
      <component glyphName="uni01A9" x="0" y="0" flags="0x204"/>
    </TTGlyph>
    <TTGlyph name="Slash" xMin="-26" yMin="-138" xMax="296" yMax="830">
      <component glyphName="slash" x="0" y="47" flags="0x204"/>
    </TTGlyph>
    <TTGlyph name="T" xMin="14" yMin="0" xMax="412" yMax="693">
      <contour>
        <pt x="412" y="693" on="1"/>
        <pt x="412" y="616" on="1"/>
        <pt x="258" y="616" on="1"/>
        <pt x="258" y="0" on="1"/>
        <pt x="168" y="0" on="1"/>
        <pt x="168" y="616" on="1"/>
        <pt x="14" y="616" on="1"/>
        <pt x="14" y="693" on="1"/>
      </contour>
    </TTGlyph>
    <TTGlyph name="Tau" xMin="14" yMin="0" xMax="412" yMax="693">
      <component glyphName="T" x="0" y="0" flags="0x204"/>
    </TTGlyph>
    <TTGlyph name="Tbar" xMin="14" yMin="0" xMax="412" yMax="693">
      <contour>
        <pt x="79" y="384" on="1"/>
        <pt x="168" y="384" on="1"/>
        <pt x="168" y="616" on="1"/>
        <pt x="14" y="616" on="1"/>
        <pt x="14" y="693" on="1"/>
        <pt x="412" y="693" on="1"/>
        <pt x="412" y="616" on="1"/>
        <pt x="258" y="616" on="1"/>
        <pt x="258" y="384" on="1"/>
        <pt x="347" y="384" on="1"/>
        <pt x="347" y="318" on="1"/>
        <pt x="258" y="318" on="1"/>
        <pt x="258" y="0" on="1"/>
        <pt x="168" y="0" on="1"/>
        <pt x="168" y="318" on="1"/>
        <pt x="79" y="318" on="1"/>
      </contour>
    </TTGlyph>
    <TTGlyph name="Tcaron" xMin="14" yMin="0" xMax="412" yMax="918">
      <component glyphName="T" x="0" y="0" flags="0x204"/>
      <component glyphName="caron" x="56" y="150" flags="0x4"/>
    </TTGlyph>
    <TTGlyph name="Theta" xMin="56" yMin="-15" xMax="549" yMax="709">
      <contour>
        <pt x="210" y="388" on="1"/>
        <pt x="393" y="388" on="1"/>
        <pt x="393" y="309" on="1"/>
        <pt x="210" y="309" on="1"/>
      </contour>
      <contour>
        <pt x="549" y="346" on="1"/>
        <pt x="549" y="265" on="0"/>
        <pt x="520" y="132" on="0"/>
        <pt x="459" y="37" on="0"/>
        <pt x="366" y="-15" on="0"/>
        <pt x="303" y="-15" on="1"/>
        <pt x="240" y="-15" on="0"/>
        <pt x="147" y="37" on="0"/>
        <pt x="86" y="132" on="0"/>
        <pt x="56" y="265" on="0"/>
        <pt x="56" y="346" on="1"/>
        <pt x="56" y="427" on="0"/>
        <pt x="86" y="561" on="0"/>
        <pt x="147" y="656" on="0"/>
        <pt x="240" y="709" on="0"/>
        <pt x="303" y="709" on="1"/>
        <pt x="366" y="709" on="0"/>
        <pt x="459" y="656" on="0"/>
        <pt x="520" y="561" on="0"/>
        <pt x="549" y="427" on="0"/>
      </contour>
      <contour>
        <pt x="453" y="346" on="1"/>
        <pt x="453" y="409" on="0"/>
        <pt x="437" y="513" on="0"/>
        <pt x="401" y="588" on="0"/>
        <pt x="344" y="630" on="0"/>
        <pt x="303" y="630" on="1"/>
        <pt x="262" y="630" on="0"/>
        <pt x="205" y="588" on="0"/>
        <pt x="169" y="513" on="0"/>
        <pt x="152" y="409" on="0"/>
        <pt x="152" y="346" on="1"/>
        <pt x="152" y="283" on="0"/>
        <pt x="169" y="179" on="0"/>
        <pt x="205" y="105" on="0"/>
        <pt x="262" y="64" on="0"/>
        <pt x="303" y="64" on="1"/>
        <pt x="344" y="64" on="0"/>
        <pt x="401" y="105" on="0"/>
        <pt x="437" y="179" on="0"/>
        <pt x="453" y="283" on="0"/>
      </contour>
    </TTGlyph>
    <TTGlyph name="Thorn" xMin="84" yMin="0" xMax="452" yMax="693">
      <contour>
        <pt x="174" y="693" on="1"/>
        <pt x="174" y="582" on="1"/>
        <pt x="185" y="583" on="0"/>
        <pt x="209" y="584" on="0"/>
        <pt x="221" y="584" on="1"/>
        <pt x="273" y="584" on="0"/>
        <pt x="358" y="559" on="0"/>
        <pt x="419" y="506" on="0"/>
        <pt x="452" y="422" on="0"/>
        <pt x="452" y="363" on="1"/>
        <pt x="452" y="303" on="0"/>
        <pt x="418" y="218" on="0"/>
        <pt x="356" y="165" on="0"/>
        <pt x="269" y="141" on="0"/>
        <pt x="216" y="141" on="1"/>
        <pt x="174" y="141" on="1"/>
        <pt x="174" y="0" on="1"/>
        <pt x="84" y="0" on="1"/>
        <pt x="84" y="693" on="1"/>
      </contour>
      <contour>
        <pt x="174" y="220" on="1"/>
        <pt x="210" y="220" on="1"/>
        <pt x="244" y="220" on="0"/>
        <pt x="299" y="235" on="0"/>
        <pt x="337" y="269" on="0"/>
        <pt x="357" y="323" on="0"/>
        <pt x="357" y="363" on="1"/>
        <pt x="357" y="403" on="0"/>
        <pt x="337" y="458" on="0"/>
        <pt x="302" y="491" on="0"/>
        <pt x="252" y="505" on="0"/>
        <pt x="222" y="505" on="1"/>
        <pt x="196" y="505" on="0"/>
        <pt x="174" y="502" on="1"/>
      </contour>
    </TTGlyph>
    <TTGlyph name="U" xMin="78" yMin="-15" xMax="471" yMax="693">
      <contour>
        <pt x="272" y="-15" on="1"/>
        <pt x="175" y="-15" on="0"/>
        <pt x="78" y="95" on="0"/>
        <pt x="78" y="214" on="1"/>
        <pt x="78" y="693" on="1"/>
        <pt x="168" y="693" on="1"/>
        <pt x="168" y="222" on="1"/>
        <pt x="168" y="143" on="0"/>
        <pt x="214" y="64" on="0"/>
        <pt x="274" y="64" on="1"/>
        <pt x="336" y="64" on="0"/>
        <pt x="381" y="145" on="0"/>
        <pt x="381" y="222" on="1"/>
        <pt x="381" y="693" on="1"/>
        <pt x="471" y="693" on="1"/>
        <pt x="471" y="214" on="1"/>
        <pt x="471" y="97" on="0"/>
        <pt x="371" y="-15" on="0"/>
      </contour>
    </TTGlyph>
    <TTGlyph name="Uacute" xMin="78" yMin="-15" xMax="471" yMax="928">
      <component glyphName="U" x="0" y="0" flags="0x204"/>
      <component glyphName="acute" x="117" y="150" flags="0x4"/>
    </TTGlyph>
    <TTGlyph name="Ubreve" xMin="78" yMin="-15" xMax="471" yMax="904">
      <component glyphName="U" x="0" y="0" flags="0x204"/>
      <component glyphName="breve" x="118" y="150" flags="0x4"/>
    </TTGlyph>
    <TTGlyph name="Ucircumflex" xMin="78" yMin="-15" xMax="471" yMax="918">
      <component glyphName="U" x="0" y="0" flags="0x204"/>
      <component glyphName="circumflex" x="117" y="150" flags="0x4"/>
    </TTGlyph>
    <TTGlyph name="Udieresis" xMin="78" yMin="-15" xMax="471" yMax="882">
      <component glyphName="U" x="0" y="0" flags="0x204"/>
      <component glyphName="dieresis" x="118" y="150" flags="0x4"/>
    </TTGlyph>
    <TTGlyph name="Ugrave" xMin="78" yMin="-15" xMax="471" yMax="928">
      <component glyphName="U" x="0" y="0" flags="0x204"/>
      <component glyphName="grave" x="118" y="150" flags="0x4"/>
    </TTGlyph>
    <TTGlyph name="Uhorn" xMin="78" yMin="-15" xMax="579" yMax="801">
      <contour>
        <pt x="272" y="-15" on="1"/>
        <pt x="175" y="-15" on="0"/>
        <pt x="78" y="95" on="0"/>
        <pt x="78" y="214" on="1"/>
        <pt x="78" y="693" on="1"/>
        <pt x="168" y="693" on="1"/>
        <pt x="168" y="222" on="1"/>
        <pt x="168" y="143" on="0"/>
        <pt x="214" y="64" on="0"/>
        <pt x="274" y="64" on="1"/>
        <pt x="336" y="64" on="0"/>
        <pt x="381" y="145" on="0"/>
        <pt x="381" y="222" on="1"/>
        <pt x="381" y="693" on="1"/>
        <pt x="439" y="693" on="1"/>
        <pt x="470" y="693" on="0"/>
        <pt x="498" y="730" on="0"/>
        <pt x="498" y="763" on="1"/>
        <pt x="498" y="773" on="0"/>
        <pt x="497" y="795" on="0"/>
        <pt x="496" y="801" on="1"/>
        <pt x="578" y="801" on="1"/>
        <pt x="579" y="792" on="0"/>
        <pt x="579" y="774" on="0"/>
        <pt x="579" y="765" on="1"/>
        <pt x="579" y="742" on="0"/>
        <pt x="569" y="696" on="0"/>
        <pt x="544" y="657" on="0"/>
        <pt x="502" y="630" on="0"/>
        <pt x="471" y="626" on="1"/>
        <pt x="471" y="214" on="1"/>
        <pt x="471" y="97" on="0"/>
        <pt x="371" y="-15" on="0"/>
      </contour>
    </TTGlyph>
    <TTGlyph name="Uhungarumlaut" xMin="78" yMin="-15" xMax="471" yMax="934">
      <component glyphName="U" x="0" y="0" flags="0x204"/>
      <component glyphName="hungarumlaut" x="128" y="150" flags="0x4"/>
    </TTGlyph>
    <TTGlyph name="Umacron" xMin="78" yMin="-15" xMax="471" yMax="861">
      <component glyphName="U" x="0" y="0" flags="0x204"/>
      <component glyphName="uni02C9" x="118" y="150" flags="0x4"/>
    </TTGlyph>
    <TTGlyph name="Uogonek" xMin="78" yMin="-187" xMax="471" yMax="693">
      <contour>
        <pt x="395" y="-176" on="1"/>
        <pt x="367" y="-187" on="0"/>
        <pt x="333" y="-187" on="1"/>
        <pt x="289" y="-187" on="0"/>
        <pt x="233" y="-141" on="0"/>
        <pt x="233" y="-100" on="1"/>
        <pt x="233" y="-75" on="0"/>
        <pt x="252" y="-34" on="0"/>
        <pt x="269" y="-15" on="1"/>
        <pt x="174" y="-14" on="0"/>
        <pt x="78" y="96" on="0"/>
        <pt x="78" y="214" on="1"/>
        <pt x="78" y="693" on="1"/>
        <pt x="168" y="693" on="1"/>
        <pt x="168" y="222" on="1"/>
        <pt x="168" y="143" on="0"/>
        <pt x="214" y="64" on="0"/>
        <pt x="274" y="64" on="1"/>
        <pt x="336" y="64" on="0"/>
        <pt x="381" y="145" on="0"/>
        <pt x="381" y="222" on="1"/>
        <pt x="381" y="693" on="1"/>
        <pt x="471" y="693" on="1"/>
        <pt x="471" y="214" on="1"/>
        <pt x="471" y="167" on="0"/>
        <pt x="456" y="100" on="0"/>
        <pt x="429" y="52" on="0"/>
        <pt x="393" y="16" on="0"/>
        <pt x="371" y="0" on="1"/>
        <pt x="361" y="-7" on="0"/>
        <pt x="340" y="-24" on="0"/>
        <pt x="322" y="-43" on="0"/>
        <pt x="311" y="-66" on="0"/>
        <pt x="311" y="-79" on="1"/>
        <pt x="311" y="-101" on="0"/>
        <pt x="336" y="-120" on="0"/>
        <pt x="354" y="-120" on="1"/>
        <pt x="373" y="-120" on="0"/>
        <pt x="390" y="-113" on="1"/>
      </contour>
    </TTGlyph>
    <TTGlyph name="Upsilon" xMin="3" yMin="0" xMax="448" yMax="693">
      <component glyphName="Y" x="0" y="0" flags="0x204"/>
    </TTGlyph>
    <TTGlyph name="Upsilondieresis" xMin="3" yMin="0" xMax="448" yMax="888">
      <component glyphName="Y" x="0" y="0" flags="0x204"/>
      <component glyphName="dieresis" x="70" y="156" flags="0x4"/>
    </TTGlyph>
    <TTGlyph name="Upsilontonos" xMin="-31" yMin="0" xMax="568" yMax="711">
      <component glyphName="Y" x="120" y="0" flags="0x4"/>
      <component glyphName="tonos.cap" x="-123" y="0" flags="0x4"/>
    </TTGlyph>
    <TTGlyph name="Uring" xMin="78" yMin="-15" xMax="471" yMax="917">
      <component glyphName="U" x="0" y="0" flags="0x204"/>
      <component glyphName="ring" x="118" y="150" flags="0x4"/>
    </TTGlyph>
    <TTGlyph name="Utilde" xMin="78" yMin="-15" xMax="471" yMax="888">
      <component glyphName="U" x="0" y="0" flags="0x204"/>
      <component glyphName="tilde" x="118" y="150" flags="0x4"/>
    </TTGlyph>
    <TTGlyph name="V" xMin="20" yMin="0" xMax="477" yMax="693">
      <contour>
        <pt x="200" y="0" on="1"/>
        <pt x="177" y="75" on="0"/>
        <pt x="131" y="228" on="0"/>
        <pt x="86" y="396" on="0"/>
        <pt x="42" y="583" on="0"/>
        <pt x="20" y="693" on="1"/>
        <pt x="114" y="693" on="1"/>
        <pt x="127" y="616" on="0"/>
        <pt x="159" y="461" on="0"/>
        <pt x="195" y="311" on="0"/>
        <pt x="232" y="170" on="0"/>
        <pt x="250" y="107" on="1"/>
        <pt x="268" y="170" on="0"/>
        <pt x="305" y="311" on="0"/>
        <pt x="341" y="461" on="0"/>
        <pt x="373" y="616" on="0"/>
        <pt x="386" y="693" on="1"/>
        <pt x="477" y="693" on="1"/>
        <pt x="455" y="583" on="0"/>
        <pt x="411" y="396" on="0"/>
        <pt x="366" y="228" on="0"/>
        <pt x="320" y="75" on="0"/>
        <pt x="297" y="0" on="1"/>
      </contour>
    </TTGlyph>
    <TTGlyph name="W" xMin="40" yMin="0" xMax="716" yMax="693">
      <contour>
        <pt x="424" y="611" on="1"/>
        <pt x="437" y="551" on="0"/>
        <pt x="467" y="417" on="0"/>
        <pt x="500" y="285" on="0"/>
        <pt x="534" y="161" on="0"/>
        <pt x="549" y="110" on="1"/>
        <pt x="561" y="166" on="0"/>
        <pt x="583" y="303" on="0"/>
        <pt x="604" y="453" on="0"/>
        <pt x="622" y="613" on="0"/>
        <pt x="628" y="693" on="1"/>
        <pt x="716" y="693" on="1"/>
        <pt x="693" y="492" on="0"/>
        <pt x="636" y="154" on="0"/>
        <pt x="598" y="0" on="1"/>
        <pt x="507" y="0" on="1"/>
        <pt x="492" y="49" on="0"/>
        <pt x="457" y="169" on="0"/>
        <pt x="423" y="298" on="0"/>
        <pt x="391" y="430" on="0"/>
        <pt x="378" y="492" on="1"/>
        <pt x="365" y="430" on="0"/>
        <pt x="333" y="298" on="0"/>
        <pt x="299" y="169" on="0"/>
        <pt x="264" y="49" on="0"/>
        <pt x="249" y="0" on="1"/>
        <pt x="158" y="0" on="1"/>
        <pt x="120" y="154" on="0"/>
        <pt x="63" y="492" on="0"/>
        <pt x="40" y="693" on="1"/>
        <pt x="131" y="693" on="1"/>
        <pt x="137" y="613" on="0"/>
        <pt x="155" y="454" on="0"/>
        <pt x="176" y="303" on="0"/>
        <pt x="198" y="166" on="0"/>
        <pt x="210" y="110" on="1"/>
        <pt x="225" y="161" on="0"/>
        <pt x="259" y="285" on="0"/>
        <pt x="292" y="417" on="0"/>
        <pt x="322" y="551" on="0"/>
        <pt x="335" y="611" on="1"/>
      </contour>
    </TTGlyph>
    <TTGlyph name="Wacute" xMin="40" yMin="0" xMax="716" yMax="928">
      <component glyphName="W" x="0" y="0" flags="0x204"/>
      <component glyphName="acute" x="219" y="150" flags="0x4"/>
    </TTGlyph>
    <TTGlyph name="Wcircumflex" xMin="40" yMin="0" xMax="716" yMax="918">
      <component glyphName="W" x="0" y="0" flags="0x204"/>
      <component glyphName="circumflex" x="220" y="150" flags="0x4"/>
    </TTGlyph>
    <TTGlyph name="Wdieresis" xMin="40" yMin="0" xMax="716" yMax="882">
      <component glyphName="W" x="0" y="0" flags="0x204"/>
      <component glyphName="dieresis" x="221" y="150" flags="0x4"/>
    </TTGlyph>
    <TTGlyph name="Wgrave" xMin="40" yMin="0" xMax="716" yMax="928">
      <component glyphName="W" x="0" y="0" flags="0x204"/>
      <component glyphName="grave" x="231" y="150" flags="0x4"/>
    </TTGlyph>
    <TTGlyph name="X" xMin="18" yMin="0" xMax="453" yMax="693">
      <contour>
        <pt x="234" y="439" on="1"/>
        <pt x="353" y="693" on="1"/>
        <pt x="443" y="693" on="1"/>
        <pt x="285" y="371" on="1"/>
        <pt x="306" y="326" on="0"/>
        <pt x="353" y="229" on="0"/>
        <pt x="398" y="132" on="0"/>
        <pt x="438" y="40" on="0"/>
        <pt x="453" y="0" on="1"/>
        <pt x="364" y="0" on="1"/>
        <pt x="353" y="30" on="0"/>
        <pt x="324" y="101" on="0"/>
        <pt x="289" y="175" on="0"/>
        <pt x="252" y="252" on="0"/>
        <pt x="234" y="288" on="1"/>
        <pt x="216" y="252" on="0"/>
        <pt x="178" y="175" on="0"/>
        <pt x="144" y="101" on="0"/>
        <pt x="115" y="30" on="0"/>
        <pt x="105" y="0" on="1"/>
        <pt x="18" y="0" on="1"/>
        <pt x="32" y="39" on="0"/>
        <pt x="72" y="129" on="0"/>
        <pt x="116" y="224" on="0"/>
        <pt x="161" y="320" on="0"/>
        <pt x="182" y="364" on="1"/>
        <pt x="22" y="693" on="1"/>
        <pt x="114" y="693" on="1"/>
      </contour>
    </TTGlyph>
    <TTGlyph name="Xi" xMin="45" yMin="0" xMax="405" yMax="693">
      <contour>
        <pt x="399" y="612" on="1"/>
        <pt x="50" y="612" on="1"/>
        <pt x="50" y="693" on="1"/>
        <pt x="399" y="693" on="1"/>
      </contour>
      <contour>
        <pt x="45" y="81" on="1"/>
        <pt x="405" y="81" on="1"/>
        <pt x="405" y="0" on="1"/>
        <pt x="45" y="0" on="1"/>
      </contour>
      <contour>
        <pt x="84" y="403" on="1"/>
        <pt x="366" y="403" on="1"/>
        <pt x="366" y="323" on="1"/>
        <pt x="84" y="323" on="1"/>
      </contour>
    </TTGlyph>
    <TTGlyph name="Y" xMin="3" yMin="0" xMax="448" yMax="693">
      <contour>
        <pt x="448" y="693" on="1"/>
        <pt x="431" y="646" on="0"/>
        <pt x="390" y="540" on="0"/>
        <pt x="344" y="431" on="0"/>
        <pt x="296" y="323" on="0"/>
        <pt x="272" y="274" on="1"/>
        <pt x="272" y="0" on="1"/>
        <pt x="182" y="0" on="1"/>
        <pt x="182" y="268" on="1"/>
        <pt x="158" y="317" on="0"/>
        <pt x="108" y="427" on="0"/>
        <pt x="62" y="537" on="0"/>
        <pt x="20" y="645" on="0"/>
        <pt x="3" y="693" on="1"/>
        <pt x="100" y="693" on="1"/>
        <pt x="126" y="614" on="0"/>
        <pt x="192" y="438" on="0"/>
        <pt x="227" y="362" on="1"/>
        <pt x="262" y="438" on="0"/>
        <pt x="328" y="614" on="0"/>
        <pt x="354" y="693" on="1"/>
      </contour>
    </TTGlyph>
    <TTGlyph name="Yacute" xMin="3" yMin="0" xMax="448" yMax="928">
      <component glyphName="Y" x="0" y="0" flags="0x204"/>
      <component glyphName="acute" x="68" y="150" flags="0x4"/>
    </TTGlyph>
    <TTGlyph name="Ycircumflex" xMin="3" yMin="0" xMax="448" yMax="918">
      <component glyphName="Y" x="0" y="0" flags="0x204"/>
      <component glyphName="circumflex" x="67" y="150" flags="0x4"/>
    </TTGlyph>
    <TTGlyph name="Ydieresis" xMin="3" yMin="0" xMax="448" yMax="882">
      <component glyphName="Y" x="0" y="0" flags="0x204"/>
      <component glyphName="dieresis" x="68" y="150" flags="0x4"/>
    </TTGlyph>
    <TTGlyph name="Ygrave" xMin="3" yMin="0" xMax="448" yMax="928">
      <component glyphName="Y" x="0" y="0" flags="0x204"/>
      <component glyphName="grave" x="68" y="150" flags="0x4"/>
    </TTGlyph>
    <TTGlyph name="Z" xMin="31" yMin="0" xMax="397" yMax="693">
      <contour>
        <pt x="390" y="622" on="1"/>
        <pt x="360" y="569" on="0"/>
        <pt x="286" y="426" on="0"/>
        <pt x="213" y="275" on="0"/>
        <pt x="148" y="131" on="0"/>
        <pt x="127" y="77" on="1"/>
        <pt x="397" y="77" on="1"/>
        <pt x="397" y="0" on="1"/>
        <pt x="31" y="0" on="1"/>
        <pt x="31" y="55" on="1"/>
        <pt x="46" y="95" on="0"/>
        <pt x="86" y="191" on="0"/>
        <pt x="132" y="294" on="0"/>
        <pt x="181" y="398" on="0"/>
        <pt x="230" y="496" on="0"/>
        <pt x="275" y="583" on="0"/>
        <pt x="294" y="616" on="1"/>
        <pt x="44" y="616" on="1"/>
        <pt x="44" y="693" on="1"/>
        <pt x="390" y="693" on="1"/>
      </contour>
    </TTGlyph>
    <TTGlyph name="Zacute" xMin="31" yMin="0" xMax="397" yMax="928">
      <component glyphName="Z" x="0" y="0" flags="0x204"/>
      <component glyphName="acute" x="27" y="150" flags="0x4"/>
    </TTGlyph>
    <TTGlyph name="Zcaron" xMin="31" yMin="0" xMax="397" yMax="918">
      <component glyphName="Z" x="0" y="0" flags="0x204"/>
      <component glyphName="caron" x="59" y="150" flags="0x4"/>
    </TTGlyph>
    <TTGlyph name="Zdotaccent" xMin="31" yMin="0" xMax="397" yMax="882">
      <component glyphName="Z" x="0" y="0" flags="0x204"/>
      <component glyphName="dotaccent" x="59" y="150" flags="0x4"/>
    </TTGlyph>
    <TTGlyph name="Zeta" xMin="31" yMin="0" xMax="397" yMax="693">
      <component glyphName="Z" x="0" y="0" flags="0x204"/>
    </TTGlyph>
    <TTGlyph name="a" xMin="41" yMin="-11" xMax="362" yMax="538">
      <contour>
        <pt x="86" y="514" on="1"/>
        <pt x="112" y="525" on="0"/>
        <pt x="170" y="538" on="0"/>
        <pt x="204" y="538" on="1"/>
        <pt x="274" y="538" on="0"/>
        <pt x="362" y="451" on="0"/>
        <pt x="362" y="359" on="1"/>
        <pt x="362" y="11" on="1"/>
        <pt x="326" y="1" on="0"/>
        <pt x="251" y="-11" on="0"/>
        <pt x="215" y="-11" on="1"/>
        <pt x="179" y="-11" on="0"/>
        <pt x="116" y="7" on="0"/>
        <pt x="69" y="47" on="0"/>
        <pt x="41" y="108" on="0"/>
        <pt x="41" y="152" on="1"/>
        <pt x="41" y="193" on="0"/>
        <pt x="66" y="254" on="0"/>
        <pt x="110" y="295" on="0"/>
        <pt x="170" y="316" on="0"/>
        <pt x="205" y="316" on="1"/>
        <pt x="238" y="316" on="0"/>
        <pt x="278" y="308" on="1"/>
        <pt x="278" y="356" on="1"/>
        <pt x="278" y="414" on="0"/>
        <pt x="233" y="460" on="0"/>
        <pt x="191" y="460" on="1"/>
        <pt x="168" y="460" on="0"/>
        <pt x="127" y="451" on="0"/>
        <pt x="104" y="441" on="1"/>
      </contour>
      <contour>
        <pt x="127" y="153" on="1"/>
        <pt x="127" y="107" on="0"/>
        <pt x="175" y="63" on="0"/>
        <pt x="219" y="63" on="1"/>
        <pt x="246" y="63" on="0"/>
        <pt x="278" y="70" on="1"/>
        <pt x="278" y="237" on="1"/>
        <pt x="248" y="245" on="0"/>
        <pt x="219" y="245" on="1"/>
        <pt x="200" y="245" on="0"/>
        <pt x="166" y="236" on="0"/>
        <pt x="141" y="215" on="0"/>
        <pt x="127" y="180" on="0"/>
      </contour>
    </TTGlyph>
    <TTGlyph name="aacute" xMin="41" yMin="-11" xMax="362" yMax="778">
      <component glyphName="a" x="0" y="0" flags="0x204"/>
      <component glyphName="acute" x="43" y="0" flags="0x4"/>
    </TTGlyph>
    <TTGlyph name="abreve" xMin="41" yMin="-11" xMax="362" yMax="754">
      <component glyphName="a" x="0" y="0" flags="0x204"/>
      <component glyphName="breve" x="60" y="0" flags="0x4"/>
    </TTGlyph>
    <TTGlyph name="acircumflex" xMin="41" yMin="-11" xMax="362" yMax="768">
      <component glyphName="a" x="0" y="0" flags="0x204"/>
      <component glyphName="circumflex" x="59" y="0" flags="0x4"/>
    </TTGlyph>
    <TTGlyph name="acute" xMin="107" yMin="582" xMax="286" yMax="778">
      <contour>
        <pt x="286" y="726" on="1"/>
        <pt x="150" y="582" on="1"/>
        <pt x="107" y="619" on="1"/>
        <pt x="225" y="778" on="1"/>
      </contour>
    </TTGlyph>
    <TTGlyph name="acute.asc" xMin="68" yMin="822" xMax="246" yMax="950">
      <contour>
        <pt x="246" y="879" on="1"/>
        <pt x="89" y="822" on="1"/>
        <pt x="68" y="872" on="1"/>
        <pt x="219" y="950" on="1"/>
      </contour>
    </TTGlyph>
    <TTGlyph name="adieresis" xMin="41" yMin="-11" xMax="362" yMax="732">
      <component glyphName="a" x="0" y="0" flags="0x204"/>
      <component glyphName="dieresis" x="60" y="0" flags="0x4"/>
    </TTGlyph>
    <TTGlyph name="ae" xMin="41" yMin="-13" xMax="614" yMax="538">
      <contour>
        <pt x="204" y="538" on="1"/>
        <pt x="245" y="538" on="0"/>
        <pt x="310" y="506" on="0"/>
        <pt x="330" y="470" on="1"/>
        <pt x="375" y="538" on="0"/>
        <pt x="451" y="538" on="1"/>
        <pt x="540" y="538" on="0"/>
        <pt x="614" y="404" on="0"/>
        <pt x="614" y="283" on="1"/>
        <pt x="614" y="272" on="0"/>
        <pt x="614" y="249" on="0"/>
        <pt x="613" y="237" on="1"/>
        <pt x="364" y="237" on="1"/>
        <pt x="365" y="199" on="0"/>
        <pt x="377" y="136" on="0"/>
        <pt x="404" y="89" on="0"/>
        <pt x="449" y="63" on="0"/>
        <pt x="484" y="63" on="1"/>
        <pt x="513" y="63" on="0"/>
        <pt x="562" y="80" on="0"/>
        <pt x="573" y="86" on="1"/>
        <pt x="589" y="17" on="1"/>
        <pt x="576" y="8" on="0"/>
        <pt x="515" y="-13" on="0"/>
        <pt x="473" y="-13" on="1"/>
        <pt x="434" y="-13" on="0"/>
        <pt x="375" y="6" on="0"/>
        <pt x="352" y="25" on="1"/>
        <pt x="320" y="8" on="0"/>
        <pt x="255" y="-11" on="0"/>
        <pt x="215" y="-11" on="1"/>
        <pt x="179" y="-11" on="0"/>
        <pt x="115" y="8" on="0"/>
        <pt x="68" y="48" on="0"/>
        <pt x="41" y="110" on="0"/>
        <pt x="41" y="152" on="1"/>
        <pt x="41" y="193" on="0"/>
        <pt x="66" y="254" on="0"/>
        <pt x="110" y="295" on="0"/>
        <pt x="170" y="316" on="0"/>
        <pt x="205" y="316" on="1"/>
        <pt x="237" y="316" on="0"/>
        <pt x="277" y="308" on="1"/>
        <pt x="277" y="310" on="0"/>
        <pt x="278" y="312" on="0"/>
        <pt x="278" y="314" on="1"/>
        <pt x="278" y="356" on="1"/>
        <pt x="278" y="414" on="0"/>
        <pt x="233" y="460" on="0"/>
        <pt x="191" y="460" on="1"/>
        <pt x="168" y="460" on="0"/>
        <pt x="127" y="451" on="0"/>
        <pt x="104" y="441" on="1"/>
        <pt x="86" y="514" on="1"/>
        <pt x="112" y="525" on="0"/>
        <pt x="170" y="538" on="0"/>
      </contour>
      <contour>
        <pt x="219" y="63" on="1"/>
        <pt x="246" y="63" on="0"/>
        <pt x="288" y="76" on="0"/>
        <pt x="306" y="87" on="1"/>
        <pt x="292" y="117" on="0"/>
        <pt x="278" y="192" on="0"/>
        <pt x="276" y="237" on="1"/>
        <pt x="247" y="245" on="0"/>
        <pt x="219" y="245" on="1"/>
        <pt x="200" y="245" on="0"/>
        <pt x="166" y="236" on="0"/>
        <pt x="141" y="215" on="0"/>
        <pt x="127" y="180" on="0"/>
        <pt x="127" y="153" on="1"/>
        <pt x="127" y="114" on="0"/>
        <pt x="174" y="63" on="0"/>
      </contour>
      <contour>
        <pt x="451" y="465" on="1"/>
        <pt x="408" y="465" on="0"/>
        <pt x="369" y="379" on="0"/>
        <pt x="365" y="307" on="1"/>
        <pt x="524" y="307" on="1"/>
        <pt x="524" y="380" on="0"/>
        <pt x="494" y="465" on="0"/>
      </contour>
    </TTGlyph>
    <TTGlyph name="aeacute" xMin="41" yMin="-13" xMax="614" yMax="778">
      <component glyphName="ae" x="0" y="0" flags="0x204"/>
      <component glyphName="acute" x="184" y="0" flags="0x4"/>
    </TTGlyph>
    <TTGlyph name="afii00208" xMin="-4" yMin="264" xMax="746" yMax="337">
      <component glyphName="emdash" x="0" y="0" flags="0x204"/>
    </TTGlyph>
    <TTGlyph name="afii10017" xMin="20" yMin="0" xMax="483" yMax="693">
      <component glyphName="A" x="0" y="0" flags="0x204"/>
    </TTGlyph>
    <TTGlyph name="afii10018" xMin="84" yMin="-7" xMax="457" yMax="693">
      <component glyphName="uni0182" x="0" y="0" flags="0x204"/>
    </TTGlyph>
    <TTGlyph name="afii10019" xMin="84" yMin="-5" xMax="477" yMax="700">
      <component glyphName="B" x="0" y="0" flags="0x204"/>
    </TTGlyph>
    <TTGlyph name="afii10020" xMin="84" yMin="0" xMax="386" yMax="693">
      <contour>
        <pt x="174" y="616" on="1"/>
        <pt x="174" y="0" on="1"/>
        <pt x="84" y="0" on="1"/>
        <pt x="84" y="693" on="1"/>
        <pt x="386" y="693" on="1"/>
        <pt x="386" y="616" on="1"/>
      </contour>
    </TTGlyph>
    <TTGlyph name="afii10021" xMin="5" yMin="-185" xMax="551" yMax="693">
      <contour>
        <pt x="465" y="-185" on="1"/>
        <pt x="465" y="0" on="1"/>
        <pt x="91" y="0" on="1"/>
        <pt x="91" y="-185" on="1"/>
        <pt x="5" y="-185" on="1"/>
        <pt x="5" y="76" on="1"/>
        <pt x="66" y="76" on="1"/>
        <pt x="97" y="126" on="0"/>
        <pt x="136" y="246" on="0"/>
        <pt x="158" y="386" on="0"/>
        <pt x="165" y="547" on="0"/>
        <pt x="165" y="640" on="1"/>
        <pt x="165" y="693" on="1"/>
        <pt x="485" y="693" on="1"/>
        <pt x="485" y="76" on="1"/>
        <pt x="551" y="76" on="1"/>
        <pt x="551" y="-185" on="1"/>
      </contour>
      <contour>
        <pt x="255" y="616" on="1"/>
        <pt x="255" y="454" on="0"/>
        <pt x="220" y="183" on="0"/>
        <pt x="167" y="76" on="1"/>
        <pt x="395" y="76" on="1"/>
        <pt x="395" y="616" on="1"/>
      </contour>
    </TTGlyph>
    <TTGlyph name="afii10022" xMin="84" yMin="0" xMax="411" yMax="693">
      <component glyphName="E" x="0" y="0" flags="0x204"/>
    </TTGlyph>
    <TTGlyph name="afii10023" xMin="84" yMin="0" xMax="411" yMax="882">
      <component glyphName="E" x="0" y="0" flags="0x204"/>
      <component glyphName="dieresis" x="81" y="150" flags="0x4"/>
    </TTGlyph>
    <TTGlyph name="afii10024" xMin="10" yMin="0" xMax="633" yMax="693">
      <contour>
        <pt x="363" y="387" on="1"/>
        <pt x="383" y="420" on="0"/>
        <pt x="429" y="504" on="0"/>
        <pt x="473" y="588" on="0"/>
        <pt x="512" y="665" on="0"/>
        <pt x="526" y="693" on="1"/>
        <pt x="616" y="693" on="1"/>
        <pt x="598" y="660" on="0"/>
        <pt x="555" y="577" on="0"/>
        <pt x="508" y="491" on="0"/>
        <pt x="461" y="407" on="0"/>
        <pt x="440" y="371" on="1"/>
        <pt x="465" y="341" on="0"/>
        <pt x="520" y="253" on="0"/>
        <pt x="573" y="153" on="0"/>
        <pt x="618" y="48" on="0"/>
        <pt x="633" y="0" on="1"/>
        <pt x="538" y="0" on="1"/>
        <pt x="522" y="50" on="0"/>
        <pt x="482" y="147" on="0"/>
        <pt x="437" y="234" on="0"/>
        <pt x="388" y="307" on="0"/>
        <pt x="363" y="333" on="1"/>
        <pt x="363" y="0" on="1"/>
        <pt x="280" y="0" on="1"/>
        <pt x="280" y="333" on="1"/>
        <pt x="255" y="307" on="0"/>
        <pt x="205" y="234" on="0"/>
        <pt x="159" y="147" on="0"/>
        <pt x="118" y="50" on="0"/>
        <pt x="102" y="0" on="1"/>
        <pt x="10" y="0" on="1"/>
        <pt x="25" y="47" on="0"/>
        <pt x="70" y="152" on="0"/>
        <pt x="123" y="252" on="0"/>
        <pt x="179" y="339" on="0"/>
        <pt x="204" y="369" on="1"/>
        <pt x="180" y="410" on="0"/>
        <pt x="131" y="497" on="0"/>
        <pt x="85" y="582" on="0"/>
        <pt x="44" y="661" on="0"/>
        <pt x="27" y="693" on="1"/>
        <pt x="117" y="693" on="1"/>
        <pt x="130" y="665" on="0"/>
        <pt x="170" y="588" on="0"/>
        <pt x="214" y="504" on="0"/>
        <pt x="260" y="420" on="0"/>
        <pt x="280" y="387" on="1"/>
        <pt x="280" y="693" on="1"/>
        <pt x="363" y="693" on="1"/>
      </contour>
    </TTGlyph>
    <TTGlyph name="afii10025" xMin="23" yMin="-15" xMax="383" yMax="708">
      <contour>
        <pt x="268" y="372" on="1"/>
        <pt x="318" y="352" on="0"/>
        <pt x="383" y="263" on="0"/>
        <pt x="383" y="196" on="1"/>
        <pt x="383" y="143" on="0"/>
        <pt x="349" y="64" on="0"/>
        <pt x="291" y="12" on="0"/>
        <pt x="212" y="-15" on="0"/>
        <pt x="167" y="-15" on="1"/>
        <pt x="128" y="-15" on="0"/>
        <pt x="54" y="5" on="0"/>
        <pt x="23" y="22" on="1"/>
        <pt x="45" y="94" on="1"/>
        <pt x="75" y="78" on="0"/>
        <pt x="135" y="60" on="0"/>
        <pt x="167" y="60" on="1"/>
        <pt x="194" y="60" on="0"/>
        <pt x="241" y="76" on="0"/>
        <pt x="276" y="109" on="0"/>
        <pt x="296" y="161" on="0"/>
        <pt x="296" y="197" on="1"/>
        <pt x="296" y="261" on="0"/>
        <pt x="213" y="332" on="0"/>
        <pt x="145" y="332" on="1"/>
        <pt x="97" y="332" on="1"/>
        <pt x="97" y="403" on="1"/>
        <pt x="145" y="403" on="1"/>
        <pt x="202" y="403" on="0"/>
        <pt x="276" y="462" on="0"/>
        <pt x="276" y="523" on="1"/>
        <pt x="276" y="577" on="0"/>
        <pt x="219" y="632" on="0"/>
        <pt x="171" y="632" on="1"/>
        <pt x="139" y="632" on="0"/>
        <pt x="79" y="611" on="0"/>
        <pt x="59" y="598" on="1"/>
        <pt x="33" y="668" on="1"/>
        <pt x="64" y="687" on="0"/>
        <pt x="139" y="708" on="0"/>
        <pt x="177" y="708" on="1"/>
        <pt x="218" y="708" on="0"/>
        <pt x="286" y="682" on="0"/>
        <pt x="335" y="636" on="0"/>
        <pt x="362" y="569" on="0"/>
        <pt x="362" y="529" on="1"/>
        <pt x="362" y="477" on="0"/>
        <pt x="315" y="395" on="0"/>
      </contour>
    </TTGlyph>
    <TTGlyph name="afii10026" xMin="84" yMin="0" xMax="497" yMax="693">
      <contour>
        <pt x="84" y="0" on="1"/>
        <pt x="84" y="693" on="1"/>
        <pt x="168" y="693" on="1"/>
        <pt x="168" y="196" on="1"/>
        <pt x="220" y="317" on="0"/>
        <pt x="344" y="558" on="0"/>
        <pt x="426" y="693" on="1"/>
        <pt x="497" y="693" on="1"/>
        <pt x="497" y="0" on="1"/>
        <pt x="413" y="0" on="1"/>
        <pt x="413" y="531" on="1"/>
        <pt x="379" y="472" on="0"/>
        <pt x="309" y="335" on="0"/>
        <pt x="242" y="196" on="0"/>
        <pt x="181" y="59" on="0"/>
        <pt x="157" y="0" on="1"/>
      </contour>
    </TTGlyph>
    <TTGlyph name="afii10027" xMin="84" yMin="0" xMax="497" yMax="894">
      <component glyphName="afii10026" x="0" y="0" flags="0x204"/>
      <component glyphName="kratka" x="143" y="150" flags="0x4"/>
    </TTGlyph>
    <TTGlyph name="afii10028" xMin="84" yMin="0" xMax="505" yMax="693">
      <component glyphName="K" x="0" y="0" flags="0x204"/>
    </TTGlyph>
    <TTGlyph name="afii10029" xMin="10" yMin="-10" xMax="495" yMax="693">
      <contour>
        <pt x="495" y="693" on="1"/>
        <pt x="495" y="0" on="1"/>
        <pt x="405" y="0" on="1"/>
        <pt x="405" y="617" on="1"/>
        <pt x="260" y="617" on="1"/>
        <pt x="260" y="572" on="1"/>
        <pt x="260" y="521" on="0"/>
        <pt x="257" y="415" on="0"/>
        <pt x="248" y="310" on="0"/>
        <pt x="231" y="208" on="0"/>
        <pt x="218" y="162" on="1"/>
        <pt x="194" y="77" on="0"/>
        <pt x="95" y="-10" on="0"/>
        <pt x="19" y="-10" on="1"/>
        <pt x="10" y="67" on="1"/>
        <pt x="53" y="74" on="0"/>
        <pt x="113" y="122" on="0"/>
        <pt x="133" y="182" on="1"/>
        <pt x="147" y="224" on="0"/>
        <pt x="163" y="320" on="0"/>
        <pt x="170" y="421" on="0"/>
        <pt x="172" y="524" on="0"/>
        <pt x="172" y="572" on="1"/>
        <pt x="172" y="693" on="1"/>
      </contour>
    </TTGlyph>
    <TTGlyph name="afii10030" xMin="69" yMin="0" xMax="657" yMax="693">
      <component glyphName="M" x="0" y="0" flags="0x204"/>
    </TTGlyph>
    <TTGlyph name="afii10031" xMin="84" yMin="0" xMax="492" yMax="693">
      <component glyphName="H" x="0" y="0" flags="0x204"/>
    </TTGlyph>
    <TTGlyph name="afii10032" xMin="56" yMin="-15" xMax="549" yMax="709">
      <component glyphName="O" x="0" y="0" flags="0x204"/>
    </TTGlyph>
    <TTGlyph name="afii10033" xMin="84" yMin="0" xMax="479" yMax="693">
      <contour>
        <pt x="479" y="693" on="1"/>
        <pt x="479" y="0" on="1"/>
        <pt x="389" y="0" on="1"/>
        <pt x="389" y="616" on="1"/>
        <pt x="174" y="616" on="1"/>
        <pt x="174" y="0" on="1"/>
        <pt x="84" y="0" on="1"/>
        <pt x="84" y="693" on="1"/>
      </contour>
    </TTGlyph>
    <TTGlyph name="afii10034" xMin="84" yMin="0" xMax="452" yMax="700">
      <component glyphName="P" x="0" y="0" flags="0x204"/>
    </TTGlyph>
    <TTGlyph name="afii10035" xMin="55" yMin="-15" xMax="454" yMax="709">
      <component glyphName="C" x="0" y="0" flags="0x204"/>
    </TTGlyph>
    <TTGlyph name="afii10036" xMin="14" yMin="0" xMax="412" yMax="693">
      <component glyphName="T" x="0" y="0" flags="0x204"/>
    </TTGlyph>
    <TTGlyph name="afii10037" xMin="30" yMin="-7" xMax="455" yMax="693">
      <contour>
        <pt x="455" y="693" on="1"/>
        <pt x="430" y="596" on="0"/>
        <pt x="345" y="324" on="0"/>
        <pt x="279" y="153" on="1"/>
        <pt x="247" y="68" on="0"/>
        <pt x="169" y="-7" on="0"/>
        <pt x="105" y="-7" on="1"/>
        <pt x="94" y="-7" on="0"/>
        <pt x="60" y="-1" on="0"/>
        <pt x="40" y="6" on="1"/>
        <pt x="56" y="82" on="1"/>
        <pt x="67" y="77" on="0"/>
        <pt x="89" y="72" on="0"/>
        <pt x="102" y="72" on="1"/>
        <pt x="139" y="72" on="0"/>
        <pt x="179" y="121" on="0"/>
        <pt x="196" y="164" on="1"/>
        <pt x="208" y="195" on="1"/>
        <pt x="147" y="340" on="0"/>
        <pt x="56" y="598" on="0"/>
        <pt x="30" y="693" on="1"/>
        <pt x="120" y="693" on="1"/>
        <pt x="141" y="608" on="0"/>
        <pt x="209" y="410" on="0"/>
        <pt x="251" y="303" on="1"/>
        <pt x="287" y="410" on="0"/>
        <pt x="346" y="608" on="0"/>
        <pt x="365" y="693" on="1"/>
      </contour>
    </TTGlyph>
    <TTGlyph name="afii10038" xMin="45" yMin="0" xMax="609" yMax="738">
      <component glyphName="Phi" x="0" y="0" flags="0x204"/>
    </TTGlyph>
    <TTGlyph name="afii10039" xMin="18" yMin="0" xMax="453" yMax="693">
      <component glyphName="X" x="0" y="0" flags="0x204"/>
    </TTGlyph>
    <TTGlyph name="afii10040" xMin="84" yMin="-185" xMax="543" yMax="693">
      <contour>
        <pt x="457" y="-185" on="1"/>
        <pt x="457" y="0" on="1"/>
        <pt x="84" y="0" on="1"/>
        <pt x="84" y="693" on="1"/>
        <pt x="174" y="693" on="1"/>
        <pt x="174" y="77" on="1"/>
        <pt x="387" y="77" on="1"/>
        <pt x="387" y="693" on="1"/>
        <pt x="477" y="693" on="1"/>
        <pt x="477" y="77" on="1"/>
        <pt x="543" y="77" on="1"/>
        <pt x="543" y="-185" on="1"/>
      </contour>
    </TTGlyph>
    <TTGlyph name="afii10041" xMin="56" yMin="0" xMax="427" yMax="693">
      <contour>
        <pt x="337" y="0" on="1"/>
        <pt x="337" y="254" on="1"/>
        <pt x="315" y="248" on="0"/>
        <pt x="264" y="240" on="0"/>
        <pt x="237" y="240" on="1"/>
        <pt x="199" y="240" on="0"/>
        <pt x="134" y="260" on="0"/>
        <pt x="84" y="306" on="0"/>
        <pt x="56" y="382" on="0"/>
        <pt x="56" y="439" on="1"/>
        <pt x="56" y="693" on="1"/>
        <pt x="142" y="693" on="1"/>
        <pt x="142" y="454" on="1"/>
        <pt x="142" y="385" on="0"/>
        <pt x="191" y="316" on="0"/>
        <pt x="258" y="316" on="1"/>
        <pt x="293" y="316" on="0"/>
        <pt x="337" y="326" on="1"/>
        <pt x="337" y="693" on="1"/>
        <pt x="427" y="693" on="1"/>
        <pt x="427" y="0" on="1"/>
      </contour>
    </TTGlyph>
    <TTGlyph name="afii10042" xMin="84" yMin="0" xMax="689" yMax="693">
      <contour>
        <pt x="84" y="0" on="1"/>
        <pt x="84" y="693" on="1"/>
        <pt x="174" y="693" on="1"/>
        <pt x="174" y="77" on="1"/>
        <pt x="342" y="77" on="1"/>
        <pt x="342" y="693" on="1"/>
        <pt x="432" y="693" on="1"/>
        <pt x="432" y="77" on="1"/>
        <pt x="599" y="77" on="1"/>
        <pt x="599" y="693" on="1"/>
        <pt x="689" y="693" on="1"/>
        <pt x="689" y="0" on="1"/>
      </contour>
    </TTGlyph>
    <TTGlyph name="afii10043" xMin="84" yMin="-185" xMax="755" yMax="693">
      <contour>
        <pt x="669" y="-185" on="1"/>
        <pt x="669" y="0" on="1"/>
        <pt x="84" y="0" on="1"/>
        <pt x="84" y="693" on="1"/>
        <pt x="174" y="693" on="1"/>
        <pt x="174" y="77" on="1"/>
        <pt x="342" y="77" on="1"/>
        <pt x="342" y="693" on="1"/>
        <pt x="432" y="693" on="1"/>
        <pt x="432" y="77" on="1"/>
        <pt x="599" y="77" on="1"/>
        <pt x="599" y="693" on="1"/>
        <pt x="689" y="693" on="1"/>
        <pt x="689" y="77" on="1"/>
        <pt x="755" y="77" on="1"/>
        <pt x="755" y="-185" on="1"/>
      </contour>
    </TTGlyph>
    <TTGlyph name="afii10044" xMin="10" yMin="-7" xMax="512" yMax="693">
      <contour>
        <pt x="272" y="436" on="1"/>
        <pt x="326" y="436" on="0"/>
        <pt x="414" y="412" on="0"/>
        <pt x="477" y="359" on="0"/>
        <pt x="512" y="274" on="0"/>
        <pt x="512" y="214" on="1"/>
        <pt x="512" y="155" on="0"/>
        <pt x="478" y="71" on="0"/>
        <pt x="417" y="18" on="0"/>
        <pt x="330" y="-7" on="0"/>
        <pt x="278" y="-7" on="1"/>
        <pt x="210" y="-7" on="0"/>
        <pt x="139" y="10" on="1"/>
        <pt x="139" y="617" on="1"/>
        <pt x="10" y="617" on="1"/>
        <pt x="10" y="693" on="1"/>
        <pt x="229" y="693" on="1"/>
        <pt x="229" y="436" on="1"/>
      </contour>
      <contour>
        <pt x="229" y="75" on="1"/>
        <pt x="251" y="72" on="0"/>
        <pt x="278" y="72" on="1"/>
        <pt x="309" y="72" on="0"/>
        <pt x="360" y="86" on="0"/>
        <pt x="397" y="119" on="0"/>
        <pt x="417" y="173" on="0"/>
        <pt x="417" y="214" on="1"/>
        <pt x="417" y="254" on="0"/>
        <pt x="396" y="308" on="0"/>
        <pt x="357" y="342" on="0"/>
        <pt x="301" y="357" on="0"/>
        <pt x="266" y="357" on="1"/>
        <pt x="229" y="357" on="1"/>
      </contour>
    </TTGlyph>
    <TTGlyph name="afii10045" xMin="84" yMin="-7" xMax="666" yMax="693">
      <component glyphName="afii10046" x="0" y="0" flags="0x0"/>
      <component glyphName="I" x="492" y="0" flags="0x0"/>
    </TTGlyph>
    <TTGlyph name="afii10046" xMin="84" yMin="-7" xMax="457" yMax="693">
      <contour>
        <pt x="174" y="693" on="1"/>
        <pt x="174" y="436" on="1"/>
        <pt x="217" y="436" on="1"/>
        <pt x="271" y="436" on="0"/>
        <pt x="359" y="412" on="0"/>
        <pt x="422" y="359" on="0"/>
        <pt x="457" y="274" on="0"/>
        <pt x="457" y="214" on="1"/>
        <pt x="457" y="155" on="0"/>
        <pt x="423" y="71" on="0"/>
        <pt x="362" y="18" on="0"/>
        <pt x="275" y="-7" on="0"/>
        <pt x="223" y="-7" on="1"/>
        <pt x="155" y="-7" on="0"/>
        <pt x="84" y="10" on="1"/>
        <pt x="84" y="693" on="1"/>
      </contour>
      <contour>
        <pt x="174" y="75" on="1"/>
        <pt x="196" y="72" on="0"/>
        <pt x="223" y="72" on="1"/>
        <pt x="254" y="72" on="0"/>
        <pt x="305" y="86" on="0"/>
        <pt x="342" y="119" on="0"/>
        <pt x="362" y="173" on="0"/>
        <pt x="362" y="214" on="1"/>
        <pt x="362" y="254" on="0"/>
        <pt x="341" y="308" on="0"/>
        <pt x="302" y="342" on="0"/>
        <pt x="246" y="357" on="0"/>
        <pt x="211" y="357" on="1"/>
        <pt x="174" y="357" on="1"/>
      </contour>
    </TTGlyph>
    <TTGlyph name="afii10047" xMin="23" yMin="-15" xMax="422" yMax="709">
      <contour>
        <pt x="170" y="-15" on="1"/>
        <pt x="121" y="-15" on="0"/>
        <pt x="46" y="11" on="0"/>
        <pt x="23" y="29" on="1"/>
        <pt x="48" y="100" on="1"/>
        <pt x="72" y="84" on="0"/>
        <pt x="123" y="64" on="0"/>
        <pt x="164" y="64" on="1"/>
        <pt x="245" y="64" on="0"/>
        <pt x="321" y="198" on="0"/>
        <pt x="325" y="325" on="1"/>
        <pt x="118" y="325" on="1"/>
        <pt x="118" y="402" on="1"/>
        <pt x="325" y="402" on="1"/>
        <pt x="319" y="521" on="0"/>
        <pt x="245" y="630" on="0"/>
        <pt x="171" y="630" on="1"/>
        <pt x="141" y="630" on="0"/>
        <pt x="82" y="612" on="0"/>
        <pt x="59" y="596" on="1"/>
        <pt x="32" y="669" on="1"/>
        <pt x="60" y="686" on="0"/>
        <pt x="132" y="709" on="0"/>
        <pt x="176" y="709" on="1"/>
        <pt x="228" y="709" on="0"/>
        <pt x="318" y="672" on="0"/>
        <pt x="384" y="588" on="0"/>
        <pt x="422" y="454" on="0"/>
        <pt x="422" y="357" on="1"/>
        <pt x="422" y="167" on="0"/>
        <pt x="291" y="-15" on="0"/>
      </contour>
    </TTGlyph>
    <TTGlyph name="afii10048" xMin="84" yMin="-14" xMax="772" yMax="708">
      <contour>
        <pt x="772" y="347" on="1"/>
        <pt x="772" y="266" on="0"/>
        <pt x="743" y="133" on="0"/>
        <pt x="684" y="38" on="0"/>
        <pt x="594" y="-14" on="0"/>
        <pt x="532" y="-14" on="1"/>
        <pt x="473" y="-14" on="0"/>
        <pt x="384" y="34" on="0"/>
        <pt x="325" y="122" on="0"/>
        <pt x="293" y="246" on="0"/>
        <pt x="291" y="321" on="1"/>
        <pt x="174" y="321" on="1"/>
        <pt x="174" y="0" on="1"/>
        <pt x="84" y="0" on="1"/>
        <pt x="84" y="693" on="1"/>
        <pt x="174" y="693" on="1"/>
        <pt x="174" y="401" on="1"/>
        <pt x="293" y="401" on="1"/>
        <pt x="297" y="471" on="0"/>
        <pt x="331" y="584" on="0"/>
        <pt x="390" y="664" on="0"/>
        <pt x="475" y="708" on="0"/>
        <pt x="532" y="708" on="1"/>
        <pt x="594" y="708" on="0"/>
        <pt x="684" y="656" on="0"/>
        <pt x="743" y="561" on="0"/>
        <pt x="772" y="428" on="0"/>
      </contour>
      <contour>
        <pt x="676" y="347" on="1"/>
        <pt x="676" y="410" on="0"/>
        <pt x="660" y="514" on="0"/>
        <pt x="626" y="588" on="0"/>
        <pt x="571" y="629" on="0"/>
        <pt x="531" y="629" on="1"/>
        <pt x="492" y="629" on="0"/>
        <pt x="436" y="588" on="0"/>
        <pt x="401" y="514" on="0"/>
        <pt x="385" y="410" on="0"/>
        <pt x="385" y="347" on="1"/>
        <pt x="385" y="284" on="0"/>
        <pt x="401" y="180" on="0"/>
        <pt x="436" y="106" on="0"/>
        <pt x="492" y="65" on="0"/>
        <pt x="531" y="65" on="1"/>
        <pt x="571" y="65" on="0"/>
        <pt x="626" y="106" on="0"/>
        <pt x="660" y="180" on="0"/>
        <pt x="676" y="284" on="0"/>
      </contour>
    </TTGlyph>
    <TTGlyph name="afii10049" xMin="30" yMin="0" xMax="430" yMax="700">
      <contour>
        <pt x="430" y="0" on="1"/>
        <pt x="342" y="0" on="1"/>
        <pt x="342" y="270" on="1"/>
        <pt x="317" y="270" on="1"/>
        <pt x="300" y="270" on="0"/>
        <pt x="266" y="272" on="0"/>
        <pt x="250" y="274" on="1"/>
        <pt x="236" y="250" on="0"/>
        <pt x="200" y="180" on="0"/>
        <pt x="164" y="105" on="0"/>
        <pt x="131" y="30" on="0"/>
        <pt x="120" y="0" on="1"/>
        <pt x="30" y="0" on="1"/>
        <pt x="42" y="39" on="0"/>
        <pt x="79" y="126" on="0"/>
        <pt x="118" y="207" on="0"/>
        <pt x="154" y="276" on="0"/>
        <pt x="166" y="297" on="1"/>
        <pt x="120" y="320" on="0"/>
        <pt x="66" y="409" on="0"/>
        <pt x="66" y="484" on="1"/>
        <pt x="66" y="538" on="0"/>
        <pt x="99" y="619" on="0"/>
        <pt x="159" y="673" on="0"/>
        <pt x="243" y="700" on="0"/>
        <pt x="295" y="700" on="1"/>
        <pt x="360" y="700" on="0"/>
        <pt x="430" y="683" on="1"/>
      </contour>
      <contour>
        <pt x="342" y="618" on="1"/>
        <pt x="319" y="621" on="0"/>
        <pt x="294" y="621" on="1"/>
        <pt x="264" y="621" on="0"/>
        <pt x="215" y="607" on="0"/>
        <pt x="180" y="576" on="0"/>
        <pt x="161" y="523" on="0"/>
        <pt x="161" y="484" on="1"/>
        <pt x="161" y="407" on="0"/>
        <pt x="235" y="344" on="0"/>
        <pt x="304" y="344" on="1"/>
        <pt x="342" y="344" on="1"/>
      </contour>
    </TTGlyph>
    <TTGlyph name="afii10050" xMin="84" yMin="0" xMax="396" yMax="825">
      <contour>
        <pt x="396" y="825" on="1"/>
        <pt x="396" y="616" on="1"/>
        <pt x="174" y="616" on="1"/>
        <pt x="174" y="0" on="1"/>
        <pt x="84" y="0" on="1"/>
        <pt x="84" y="693" on="1"/>
        <pt x="310" y="693" on="1"/>
        <pt x="310" y="825" on="1"/>
      </contour>
    </TTGlyph>
    <TTGlyph name="afii10051" xMin="14" yMin="-3" xMax="544" yMax="693">
      <contour>
        <pt x="412" y="693" on="1"/>
        <pt x="412" y="616" on="1"/>
        <pt x="258" y="616" on="1"/>
        <pt x="258" y="421" on="1"/>
        <pt x="298" y="433" on="0"/>
        <pt x="339" y="433" on="1"/>
        <pt x="433" y="433" on="0"/>
        <pt x="544" y="315" on="0"/>
        <pt x="544" y="206" on="1"/>
        <pt x="544" y="108" on="0"/>
        <pt x="452" y="-3" on="0"/>
        <pt x="374" y="-3" on="1"/>
        <pt x="356" y="-3" on="0"/>
        <pt x="338" y="0" on="1"/>
        <pt x="341" y="76" on="1"/>
        <pt x="346" y="75" on="0"/>
        <pt x="353" y="75" on="0"/>
        <pt x="357" y="75" on="1"/>
        <pt x="402" y="75" on="0"/>
        <pt x="449" y="136" on="0"/>
        <pt x="449" y="205" on="1"/>
        <pt x="449" y="247" on="0"/>
        <pt x="429" y="304" on="0"/>
        <pt x="396" y="339" on="0"/>
        <pt x="352" y="355" on="0"/>
        <pt x="328" y="355" on="1"/>
        <pt x="289" y="355" on="0"/>
        <pt x="258" y="342" on="1"/>
        <pt x="258" y="0" on="1"/>
        <pt x="168" y="0" on="1"/>
        <pt x="168" y="616" on="1"/>
        <pt x="14" y="616" on="1"/>
        <pt x="14" y="693" on="1"/>
      </contour>
    </TTGlyph>
    <TTGlyph name="afii10052" xMin="84" yMin="0" xMax="386" yMax="928">
      <component glyphName="afii10020" x="0" y="0" flags="0x204"/>
      <component glyphName="acute" x="72" y="150" flags="0x4"/>
    </TTGlyph>
    <TTGlyph name="afii10053" xMin="55" yMin="-15" xMax="454" yMax="709">
      <contour>
        <pt x="307" y="-15" on="1"/>
        <pt x="185" y="-15" on="0"/>
        <pt x="55" y="167" on="0"/>
        <pt x="55" y="357" on="1"/>
        <pt x="55" y="454" on="0"/>
        <pt x="92" y="588" on="0"/>
        <pt x="158" y="672" on="0"/>
        <pt x="248" y="709" on="0"/>
        <pt x="301" y="709" on="1"/>
        <pt x="345" y="709" on="0"/>
        <pt x="421" y="686" on="0"/>
        <pt x="445" y="669" on="1"/>
        <pt x="418" y="594" on="1"/>
        <pt x="394" y="610" on="0"/>
        <pt x="339" y="630" on="0"/>
        <pt x="303" y="630" on="1"/>
        <pt x="230" y="630" on="0"/>
        <pt x="157" y="518" on="0"/>
        <pt x="152" y="402" on="1"/>
        <pt x="359" y="402" on="1"/>
        <pt x="359" y="325" on="1"/>
        <pt x="151" y="325" on="1"/>
        <pt x="155" y="198" on="0"/>
        <pt x="231" y="64" on="0"/>
        <pt x="313" y="64" on="1"/>
        <pt x="354" y="64" on="0"/>
        <pt x="405" y="84" on="0"/>
        <pt x="429" y="100" on="1"/>
        <pt x="454" y="29" on="1"/>
        <pt x="431" y="11" on="0"/>
        <pt x="356" y="-15" on="0"/>
      </contour>
    </TTGlyph>
    <TTGlyph name="afii10054" xMin="25" yMin="-15" xMax="377" yMax="709">
      <component glyphName="S" x="0" y="0" flags="0x204"/>
    </TTGlyph>
    <TTGlyph name="afii10055" xMin="84" yMin="0" xMax="174" yMax="693">
      <component glyphName="I" x="0" y="0" flags="0x204"/>
    </TTGlyph>
    <TTGlyph name="afii10056" xMin="-9" yMin="0" xMax="269" yMax="882">
      <component glyphName="I" x="0" y="0" flags="0x204"/>
      <component glyphName="dieresis" x="-27" y="150" flags="0x4"/>
    </TTGlyph>
    <TTGlyph name="afii10057" xMin="5" yMin="-15" xMax="316" yMax="693">
      <component glyphName="J" x="0" y="0" flags="0x204"/>
    </TTGlyph>
    <TTGlyph name="afii10058" xMin="10" yMin="-10" xMax="778" yMax="693">
      <contour>
        <pt x="260" y="617" on="1"/>
        <pt x="260" y="590" on="1"/>
        <pt x="260" y="540" on="0"/>
        <pt x="258" y="432" on="0"/>
        <pt x="249" y="321" on="0"/>
        <pt x="233" y="212" on="0"/>
        <pt x="218" y="162" on="1"/>
        <pt x="194" y="77" on="0"/>
        <pt x="95" y="-10" on="0"/>
        <pt x="19" y="-10" on="1"/>
        <pt x="10" y="67" on="1"/>
        <pt x="53" y="74" on="0"/>
        <pt x="113" y="122" on="0"/>
        <pt x="133" y="182" on="1"/>
        <pt x="147" y="224" on="0"/>
        <pt x="163" y="321" on="0"/>
        <pt x="170" y="425" on="0"/>
        <pt x="172" y="535" on="0"/>
        <pt x="172" y="590" on="1"/>
        <pt x="172" y="693" on="1"/>
        <pt x="495" y="693" on="1"/>
        <pt x="495" y="436" on="1"/>
        <pt x="538" y="436" on="1"/>
        <pt x="592" y="436" on="0"/>
        <pt x="680" y="412" on="0"/>
        <pt x="743" y="359" on="0"/>
        <pt x="778" y="274" on="0"/>
        <pt x="778" y="214" on="1"/>
        <pt x="778" y="155" on="0"/>
        <pt x="744" y="71" on="0"/>
        <pt x="683" y="18" on="0"/>
        <pt x="596" y="-7" on="0"/>
        <pt x="544" y="-7" on="1"/>
        <pt x="476" y="-7" on="0"/>
        <pt x="405" y="10" on="1"/>
        <pt x="405" y="617" on="1"/>
      </contour>
      <contour>
        <pt x="495" y="75" on="1"/>
        <pt x="517" y="72" on="0"/>
        <pt x="544" y="72" on="1"/>
        <pt x="575" y="72" on="0"/>
        <pt x="626" y="86" on="0"/>
        <pt x="663" y="119" on="0"/>
        <pt x="683" y="173" on="0"/>
        <pt x="683" y="214" on="1"/>
        <pt x="683" y="254" on="0"/>
        <pt x="662" y="308" on="0"/>
        <pt x="623" y="342" on="0"/>
        <pt x="567" y="357" on="0"/>
        <pt x="532" y="357" on="1"/>
        <pt x="495" y="357" on="1"/>
      </contour>
    </TTGlyph>
    <TTGlyph name="afii10059" xMin="84" yMin="-7" xMax="775" yMax="693">
      <contour>
        <pt x="402" y="693" on="1"/>
        <pt x="492" y="693" on="1"/>
        <pt x="492" y="431" on="1"/>
        <pt x="535" y="431" on="1"/>
        <pt x="589" y="431" on="0"/>
        <pt x="677" y="407" on="0"/>
        <pt x="740" y="355" on="0"/>
        <pt x="775" y="271" on="0"/>
        <pt x="775" y="211" on="1"/>
        <pt x="775" y="152" on="0"/>
        <pt x="741" y="69" on="0"/>
        <pt x="680" y="17" on="0"/>
        <pt x="593" y="-7" on="0"/>
        <pt x="541" y="-7" on="1"/>
        <pt x="473" y="-7" on="0"/>
        <pt x="402" y="10" on="1"/>
        <pt x="402" y="347" on="1"/>
        <pt x="174" y="347" on="1"/>
        <pt x="174" y="0" on="1"/>
        <pt x="84" y="0" on="1"/>
        <pt x="84" y="693" on="1"/>
        <pt x="174" y="693" on="1"/>
        <pt x="174" y="425" on="1"/>
        <pt x="402" y="425" on="1"/>
      </contour>
      <contour>
        <pt x="492" y="75" on="1"/>
        <pt x="514" y="72" on="0"/>
        <pt x="541" y="72" on="1"/>
        <pt x="572" y="72" on="0"/>
        <pt x="623" y="85" on="0"/>
        <pt x="660" y="118" on="0"/>
        <pt x="680" y="171" on="0"/>
        <pt x="680" y="212" on="1"/>
        <pt x="680" y="290" on="0"/>
        <pt x="600" y="352" on="0"/>
        <pt x="529" y="352" on="1"/>
        <pt x="492" y="352" on="1"/>
      </contour>
    </TTGlyph>
    <TTGlyph name="afii10060" xMin="14" yMin="0" xMax="539" yMax="693">
      <contour>
        <pt x="432" y="693" on="1"/>
        <pt x="432" y="616" on="1"/>
        <pt x="258" y="616" on="1"/>
        <pt x="258" y="419" on="1"/>
        <pt x="280" y="425" on="0"/>
        <pt x="331" y="433" on="0"/>
        <pt x="358" y="433" on="1"/>
        <pt x="395" y="433" on="0"/>
        <pt x="461" y="410" on="0"/>
        <pt x="511" y="360" on="0"/>
        <pt x="539" y="281" on="0"/>
        <pt x="539" y="224" on="1"/>
        <pt x="539" y="0" on="1"/>
        <pt x="453" y="0" on="1"/>
        <pt x="453" y="209" on="1"/>
        <pt x="453" y="284" on="0"/>
        <pt x="404" y="357" on="0"/>
        <pt x="337" y="357" on="1"/>
        <pt x="302" y="357" on="0"/>
        <pt x="258" y="347" on="1"/>
        <pt x="258" y="0" on="1"/>
        <pt x="168" y="0" on="1"/>
        <pt x="168" y="616" on="1"/>
        <pt x="14" y="616" on="1"/>
        <pt x="14" y="693" on="1"/>
      </contour>
    </TTGlyph>
    <TTGlyph name="afii10061" xMin="84" yMin="0" xMax="505" yMax="928">
      <component glyphName="K" x="0" y="0" flags="0x204"/>
      <component glyphName="acute" x="108" y="150" flags="0x4"/>
    </TTGlyph>
    <TTGlyph name="afii10062" xMin="30" yMin="-7" xMax="455" yMax="894">
      <component glyphName="afii10037" x="0" y="0" flags="0x204"/>
      <component glyphName="kratka" x="91" y="150" flags="0x4"/>
    </TTGlyph>
    <TTGlyph name="afii10065" xMin="41" yMin="-11" xMax="362" yMax="538">
      <component glyphName="a" x="0" y="0" flags="0x204"/>
    </TTGlyph>
    <TTGlyph name="afii10066" xMin="65" yMin="-13" xMax="425" yMax="776">
      <contour>
        <pt x="181" y="576" on="1"/>
        <pt x="172" y="554" on="0"/>
        <pt x="161" y="499" on="0"/>
        <pt x="157" y="464" on="1"/>
        <pt x="179" y="477" on="0"/>
        <pt x="231" y="489" on="0"/>
        <pt x="257" y="489" on="1"/>
        <pt x="335" y="489" on="0"/>
        <pt x="425" y="372" on="0"/>
        <pt x="425" y="242" on="1"/>
        <pt x="425" y="122" on="0"/>
        <pt x="338" y="-13" on="0"/>
        <pt x="248" y="-13" on="1"/>
        <pt x="195" y="-13" on="0"/>
        <pt x="125" y="35" on="0"/>
        <pt x="83" y="121" on="0"/>
        <pt x="65" y="242" on="0"/>
        <pt x="65" y="314" on="1"/>
        <pt x="65" y="349" on="0"/>
        <pt x="67" y="423" on="0"/>
        <pt x="74" y="496" on="0"/>
        <pt x="88" y="566" on="0"/>
        <pt x="100" y="598" on="1"/>
        <pt x="123" y="657" on="0"/>
        <pt x="193" y="722" on="0"/>
        <pt x="271" y="755" on="0"/>
        <pt x="349" y="768" on="0"/>
        <pt x="382" y="776" on="1"/>
        <pt x="396" y="699" on="1"/>
        <pt x="362" y="691" on="0"/>
        <pt x="299" y="680" on="0"/>
        <pt x="243" y="658" on="0"/>
        <pt x="197" y="616" on="0"/>
      </contour>
      <contour>
        <pt x="245" y="414" on="1"/>
        <pt x="216" y="414" on="0"/>
        <pt x="172" y="396" on="0"/>
        <pt x="155" y="383" on="1"/>
        <pt x="154" y="366" on="0"/>
        <pt x="154" y="330" on="0"/>
        <pt x="154" y="311" on="1"/>
        <pt x="154" y="191" on="0"/>
        <pt x="195" y="62" on="0"/>
        <pt x="252" y="62" on="1"/>
        <pt x="293" y="62" on="0"/>
        <pt x="335" y="143" on="0"/>
        <pt x="335" y="242" on="1"/>
        <pt x="335" y="325" on="0"/>
        <pt x="293" y="414" on="0"/>
      </contour>
    </TTGlyph>
    <TTGlyph name="afii10066.locl" xMin="49" yMin="-13" xMax="419" yMax="773">
      <contour>
        <pt x="49" y="240" on="1"/>
        <pt x="49" y="332" on="0"/>
        <pt x="117" y="463" on="0"/>
        <pt x="174" y="508" on="1"/>
        <pt x="157" y="518" on="0"/>
        <pt x="129" y="541" on="0"/>
        <pt x="108" y="571" on="0"/>
        <pt x="96" y="611" on="0"/>
        <pt x="96" y="637" on="1"/>
        <pt x="96" y="692" on="0"/>
        <pt x="166" y="764" on="0"/>
        <pt x="235" y="766" on="1"/>
        <pt x="276" y="767" on="0"/>
        <pt x="336" y="769" on="0"/>
        <pt x="372" y="773" on="1"/>
        <pt x="375" y="700" on="1"/>
        <pt x="362" y="698" on="0"/>
        <pt x="329" y="696" on="0"/>
        <pt x="296" y="695" on="0"/>
        <pt x="265" y="695" on="0"/>
        <pt x="254" y="695" on="1"/>
        <pt x="214" y="695" on="0"/>
        <pt x="180" y="662" on="0"/>
        <pt x="180" y="636" on="1"/>
        <pt x="180" y="618" on="0"/>
        <pt x="194" y="592" on="0"/>
        <pt x="218" y="571" on="0"/>
        <pt x="250" y="553" on="0"/>
        <pt x="267" y="543" on="1"/>
        <pt x="292" y="528" on="0"/>
        <pt x="346" y="483" on="0"/>
        <pt x="390" y="413" on="0"/>
        <pt x="419" y="311" on="0"/>
        <pt x="419" y="239" on="1"/>
        <pt x="419" y="189" on="0"/>
        <pt x="397" y="98" on="0"/>
        <pt x="352" y="29" on="0"/>
        <pt x="282" y="-13" on="0"/>
        <pt x="234" y="-13" on="1"/>
        <pt x="186" y="-13" on="0"/>
        <pt x="116" y="29" on="0"/>
        <pt x="71" y="99" on="0"/>
        <pt x="49" y="190" on="0"/>
      </contour>
      <contour>
        <pt x="329" y="237" on="1"/>
        <pt x="329" y="291" on="0"/>
        <pt x="314" y="367" on="0"/>
        <pt x="289" y="422" on="0"/>
        <pt x="255" y="458" on="0"/>
        <pt x="236" y="471" on="1"/>
        <pt x="139" y="393" on="0"/>
        <pt x="139" y="238" on="1"/>
        <pt x="139" y="201" on="0"/>
        <pt x="150" y="138" on="0"/>
        <pt x="172" y="91" on="0"/>
        <pt x="208" y="64" on="0"/>
        <pt x="234" y="64" on="1"/>
        <pt x="259" y="64" on="0"/>
        <pt x="296" y="91" on="0"/>
        <pt x="318" y="138" on="0"/>
        <pt x="329" y="201" on="0"/>
      </contour>
    </TTGlyph>
    <TTGlyph name="afii10067" xMin="78" yMin="-9" xMax="419" yMax="538">
      <contour>
        <pt x="164" y="237" on="1"/>
        <pt x="164" y="66" on="1"/>
        <pt x="197" y="60" on="0"/>
        <pt x="230" y="60" on="1"/>
        <pt x="272" y="60" on="0"/>
        <pt x="330" y="99" on="0"/>
        <pt x="330" y="148" on="1"/>
        <pt x="330" y="199" on="0"/>
        <pt x="275" y="237" on="0"/>
        <pt x="222" y="237" on="1"/>
      </contour>
      <contour>
        <pt x="229" y="-9" on="1"/>
        <pt x="183" y="-9" on="0"/>
        <pt x="101" y="4" on="0"/>
        <pt x="78" y="12" on="1"/>
        <pt x="78" y="517" on="1"/>
        <pt x="104" y="525" on="0"/>
        <pt x="183" y="538" on="0"/>
        <pt x="229" y="538" on="1"/>
        <pt x="262" y="538" on="0"/>
        <pt x="325" y="522" on="0"/>
        <pt x="373" y="488" on="0"/>
        <pt x="402" y="431" on="0"/>
        <pt x="402" y="391" on="1"/>
        <pt x="402" y="349" on="0"/>
        <pt x="364" y="292" on="0"/>
        <pt x="332" y="274" on="1"/>
        <pt x="369" y="260" on="0"/>
        <pt x="419" y="194" on="0"/>
        <pt x="419" y="149" on="1"/>
        <pt x="419" y="103" on="0"/>
        <pt x="390" y="42" on="0"/>
        <pt x="339" y="6" on="0"/>
        <pt x="269" y="-9" on="0"/>
      </contour>
      <contour>
        <pt x="221" y="467" on="1"/>
        <pt x="195" y="467" on="0"/>
        <pt x="164" y="461" on="1"/>
        <pt x="164" y="301" on="1"/>
        <pt x="221" y="301" on="1"/>
        <pt x="266" y="301" on="0"/>
        <pt x="314" y="335" on="0"/>
        <pt x="314" y="382" on="1"/>
        <pt x="314" y="409" on="0"/>
        <pt x="298" y="442" on="0"/>
        <pt x="271" y="461" on="0"/>
        <pt x="238" y="467" on="0"/>
      </contour>
    </TTGlyph>
    <TTGlyph name="afii10068" xMin="78" yMin="0" xMax="317" yMax="525">
      <contour>
        <pt x="317" y="451" on="1"/>
        <pt x="164" y="451" on="1"/>
        <pt x="164" y="0" on="1"/>
        <pt x="78" y="0" on="1"/>
        <pt x="78" y="525" on="1"/>
        <pt x="317" y="525" on="1"/>
      </contour>
    </TTGlyph>
    <TTGlyph name="afii10069" xMin="10" yMin="-145" xMax="470" yMax="525">
      <contour>
        <pt x="10" y="70" on="1"/>
        <pt x="63" y="70" on="1"/>
        <pt x="87" y="112" on="0"/>
        <pt x="115" y="210" on="0"/>
        <pt x="129" y="322" on="0"/>
        <pt x="133" y="451" on="0"/>
        <pt x="134" y="525" on="1"/>
        <pt x="406" y="525" on="1"/>
        <pt x="406" y="70" on="1"/>
        <pt x="470" y="70" on="1"/>
        <pt x="470" y="-145" on="1"/>
        <pt x="386" y="-145" on="1"/>
        <pt x="386" y="0" on="1"/>
        <pt x="94" y="0" on="1"/>
        <pt x="94" y="-145" on="1"/>
        <pt x="10" y="-145" on="1"/>
      </contour>
      <contour>
        <pt x="214" y="451" on="1"/>
        <pt x="213" y="397" on="0"/>
        <pt x="209" y="295" on="0"/>
        <pt x="196" y="201" on="0"/>
        <pt x="173" y="112" on="0"/>
        <pt x="153" y="70" on="1"/>
        <pt x="322" y="70" on="1"/>
        <pt x="322" y="451" on="1"/>
      </contour>
    </TTGlyph>
    <TTGlyph name="afii10070" xMin="49" yMin="-13" xMax="387" yMax="538">
      <component glyphName="e" x="0" y="0" flags="0x204"/>
    </TTGlyph>
    <TTGlyph name="afii10071" xMin="49" yMin="-13" xMax="387" yMax="732">
      <component glyphName="e" x="0" y="0" flags="0x204"/>
      <component glyphName="dieresis" x="66" y="0" flags="0x4"/>
    </TTGlyph>
    <TTGlyph name="afii10072" xMin="7" yMin="0" xMax="526" yMax="525">
      <contour>
        <pt x="106" y="525" on="1"/>
        <pt x="116" y="502" on="0"/>
        <pt x="145" y="444" on="0"/>
        <pt x="178" y="384" on="0"/>
        <pt x="212" y="324" on="0"/>
        <pt x="227" y="300" on="1"/>
        <pt x="227" y="525" on="1"/>
        <pt x="306" y="525" on="1"/>
        <pt x="306" y="300" on="1"/>
        <pt x="321" y="324" on="0"/>
        <pt x="355" y="384" on="0"/>
        <pt x="388" y="444" on="0"/>
        <pt x="417" y="502" on="0"/>
        <pt x="427" y="525" on="1"/>
        <pt x="507" y="525" on="1"/>
        <pt x="472" y="453" on="0"/>
        <pt x="407" y="335" on="0"/>
        <pt x="374" y="283" on="1"/>
        <pt x="395" y="255" on="0"/>
        <pt x="439" y="185" on="0"/>
        <pt x="479" y="110" on="0"/>
        <pt x="514" y="34" on="0"/>
        <pt x="526" y="0" on="1"/>
        <pt x="442" y="0" on="1"/>
        <pt x="430" y="32" on="0"/>
        <pt x="396" y="104" on="0"/>
        <pt x="359" y="173" on="0"/>
        <pt x="322" y="234" on="0"/>
        <pt x="306" y="255" on="1"/>
        <pt x="306" y="0" on="1"/>
        <pt x="227" y="0" on="1"/>
        <pt x="227" y="255" on="1"/>
        <pt x="210" y="234" on="0"/>
        <pt x="172" y="173" on="0"/>
        <pt x="134" y="104" on="0"/>
        <pt x="100" y="32" on="0"/>
        <pt x="88" y="0" on="1"/>
        <pt x="7" y="0" on="1"/>
        <pt x="19" y="33" on="0"/>
        <pt x="53" y="108" on="0"/>
        <pt x="93" y="183" on="0"/>
        <pt x="137" y="252" on="0"/>
        <pt x="159" y="280" on="1"/>
        <pt x="94" y="382" on="0"/>
        <pt x="26" y="525" on="1"/>
      </contour>
    </TTGlyph>
    <TTGlyph name="afii10073" xMin="30" yMin="-15" xMax="328" yMax="534">
      <contour>
        <pt x="237" y="279" on="1"/>
        <pt x="276" y="265" on="0"/>
        <pt x="328" y="191" on="0"/>
        <pt x="328" y="145" on="1"/>
        <pt x="328" y="66" on="0"/>
        <pt x="233" y="-15" on="0"/>
        <pt x="157" y="-15" on="1"/>
        <pt x="123" y="-15" on="0"/>
        <pt x="57" y="0" on="0"/>
        <pt x="30" y="16" on="1"/>
        <pt x="44" y="87" on="1"/>
        <pt x="65" y="76" on="0"/>
        <pt x="125" y="60" on="0"/>
        <pt x="154" y="60" on="1"/>
        <pt x="172" y="60" on="0"/>
        <pt x="204" y="69" on="0"/>
        <pt x="228" y="88" on="0"/>
        <pt x="243" y="121" on="0"/>
        <pt x="243" y="145" on="1"/>
        <pt x="243" y="172" on="0"/>
        <pt x="223" y="209" on="0"/>
        <pt x="189" y="231" on="0"/>
        <pt x="144" y="241" on="0"/>
        <pt x="119" y="241" on="1"/>
        <pt x="85" y="241" on="1"/>
        <pt x="85" y="309" on="1"/>
        <pt x="113" y="309" on="1"/>
        <pt x="172" y="309" on="0"/>
        <pt x="228" y="351" on="0"/>
        <pt x="228" y="386" on="1"/>
        <pt x="228" y="424" on="0"/>
        <pt x="181" y="458" on="0"/>
        <pt x="149" y="458" on="1"/>
        <pt x="127" y="458" on="0"/>
        <pt x="79" y="444" on="0"/>
        <pt x="55" y="430" on="1"/>
        <pt x="37" y="503" on="1"/>
        <pt x="64" y="517" on="0"/>
        <pt x="124" y="534" on="0"/>
        <pt x="157" y="534" on="1"/>
        <pt x="227" y="534" on="0"/>
        <pt x="312" y="460" on="0"/>
        <pt x="312" y="398" on="1"/>
        <pt x="312" y="355" on="0"/>
        <pt x="269" y="294" on="0"/>
      </contour>
    </TTGlyph>
    <TTGlyph name="afii10074" xMin="78" yMin="0" xMax="411" yMax="528">
      <contour>
        <pt x="411" y="528" on="1"/>
        <pt x="411" y="0" on="1"/>
        <pt x="330" y="0" on="1"/>
        <pt x="330" y="380" on="1"/>
        <pt x="309" y="341" on="0"/>
        <pt x="257" y="241" on="0"/>
        <pt x="206" y="137" on="0"/>
        <pt x="161" y="38" on="0"/>
        <pt x="146" y="0" on="1"/>
        <pt x="78" y="0" on="1"/>
        <pt x="78" y="528" on="1"/>
        <pt x="158" y="528" on="1"/>
        <pt x="158" y="182" on="1"/>
        <pt x="176" y="223" on="0"/>
        <pt x="224" y="318" on="0"/>
        <pt x="274" y="411" on="0"/>
        <pt x="323" y="496" on="0"/>
        <pt x="344" y="528" on="1"/>
      </contour>
    </TTGlyph>
    <TTGlyph name="afii10075" xMin="78" yMin="0" xMax="411" yMax="744">
      <component glyphName="afii10074" x="0" y="0" flags="0x204"/>
      <component glyphName="kratka" x="90" y="0" flags="0x4"/>
    </TTGlyph>
    <TTGlyph name="afii10076" xMin="78" yMin="0" xMax="420" yMax="525">
      <component glyphName="kgreenlandic" x="0" y="0" flags="0x204"/>
    </TTGlyph>
    <TTGlyph name="afii10077" xMin="7" yMin="-10" xMax="419" yMax="525">
      <contour>
        <pt x="333" y="0" on="1"/>
        <pt x="333" y="451" on="1"/>
        <pt x="225" y="451" on="1"/>
        <pt x="225" y="398" on="1"/>
        <pt x="225" y="302" on="0"/>
        <pt x="202" y="152" on="0"/>
        <pt x="176" y="98" on="1"/>
        <pt x="150" y="45" on="0"/>
        <pt x="74" y="-8" on="0"/>
        <pt x="17" y="-10" on="1"/>
        <pt x="7" y="67" on="1"/>
        <pt x="50" y="74" on="0"/>
        <pt x="95" y="117" on="0"/>
        <pt x="109" y="151" on="1"/>
        <pt x="126" y="196" on="0"/>
        <pt x="140" y="331" on="0"/>
        <pt x="140" y="415" on="1"/>
        <pt x="140" y="525" on="1"/>
        <pt x="419" y="525" on="1"/>
        <pt x="419" y="0" on="1"/>
      </contour>
    </TTGlyph>
    <TTGlyph name="afii10078" xMin="73" yMin="0" xMax="537" yMax="525">
      <contour>
        <pt x="271" y="70" on="1"/>
        <pt x="261" y="108" on="0"/>
        <pt x="234" y="202" on="0"/>
        <pt x="206" y="296" on="0"/>
        <pt x="178" y="384" on="0"/>
        <pt x="166" y="416" on="1"/>
        <pt x="163" y="371" on="0"/>
        <pt x="159" y="260" on="0"/>
        <pt x="156" y="146" on="0"/>
        <pt x="155" y="39" on="0"/>
        <pt x="154" y="0" on="1"/>
        <pt x="73" y="0" on="1"/>
        <pt x="74" y="61" on="0"/>
        <pt x="80" y="195" on="0"/>
        <pt x="87" y="331" on="0"/>
        <pt x="96" y="465" on="0"/>
        <pt x="101" y="525" on="1"/>
        <pt x="195" y="525" on="1"/>
        <pt x="225" y="447" on="0"/>
        <pt x="280" y="277" on="0"/>
        <pt x="305" y="187" on="1"/>
        <pt x="330" y="277" on="0"/>
        <pt x="385" y="447" on="0"/>
        <pt x="415" y="525" on="1"/>
        <pt x="509" y="525" on="1"/>
        <pt x="514" y="465" on="0"/>
        <pt x="523" y="331" on="0"/>
        <pt x="530" y="195" on="0"/>
        <pt x="535" y="61" on="0"/>
        <pt x="537" y="0" on="1"/>
        <pt x="456" y="0" on="1"/>
        <pt x="455" y="39" on="0"/>
        <pt x="454" y="146" on="0"/>
        <pt x="451" y="260" on="0"/>
        <pt x="447" y="371" on="0"/>
        <pt x="444" y="416" on="1"/>
        <pt x="432" y="384" on="0"/>
        <pt x="404" y="296" on="0"/>
        <pt x="376" y="202" on="0"/>
        <pt x="349" y="108" on="0"/>
        <pt x="339" y="70" on="1"/>
      </contour>
    </TTGlyph>
    <TTGlyph name="afii10079" xMin="78" yMin="0" xMax="416" yMax="525">
      <contour>
        <pt x="416" y="525" on="1"/>
        <pt x="416" y="0" on="1"/>
        <pt x="330" y="0" on="1"/>
        <pt x="330" y="234" on="1"/>
        <pt x="164" y="234" on="1"/>
        <pt x="164" y="0" on="1"/>
        <pt x="78" y="0" on="1"/>
        <pt x="78" y="525" on="1"/>
        <pt x="164" y="525" on="1"/>
        <pt x="164" y="308" on="1"/>
        <pt x="330" y="308" on="1"/>
        <pt x="330" y="525" on="1"/>
      </contour>
    </TTGlyph>
    <TTGlyph name="afii10080" xMin="48" yMin="-13" xMax="415" yMax="538">
      <component glyphName="o" x="0" y="0" flags="0x204"/>
    </TTGlyph>
    <TTGlyph name="afii10081" xMin="78" yMin="0" xMax="401" yMax="525">
      <contour>
        <pt x="401" y="0" on="1"/>
        <pt x="315" y="0" on="1"/>
        <pt x="315" y="451" on="1"/>
        <pt x="164" y="451" on="1"/>
        <pt x="164" y="0" on="1"/>
        <pt x="78" y="0" on="1"/>
        <pt x="78" y="525" on="1"/>
        <pt x="401" y="525" on="1"/>
      </contour>
    </TTGlyph>
    <TTGlyph name="afii10082" xMin="77" yMin="-185" xMax="419" yMax="538">
      <component glyphName="p" x="0" y="0" flags="0x204"/>
    </TTGlyph>
    <TTGlyph name="afii10083" xMin="48" yMin="-13" xMax="338" yMax="538">
      <component glyphName="c" x="0" y="0" flags="0x204"/>
    </TTGlyph>
    <TTGlyph name="afii10084" xMin="14" yMin="0" xMax="362" yMax="525">
      <contour>
        <pt x="14" y="525" on="1"/>
        <pt x="362" y="525" on="1"/>
        <pt x="362" y="451" on="1"/>
        <pt x="231" y="451" on="1"/>
        <pt x="231" y="0" on="1"/>
        <pt x="145" y="0" on="1"/>
        <pt x="145" y="451" on="1"/>
        <pt x="14" y="451" on="1"/>
      </contour>
    </TTGlyph>
    <TTGlyph name="afii10085" xMin="1" yMin="-188" xMax="383" yMax="525">
      <component glyphName="y" x="0" y="0" flags="0x204"/>
    </TTGlyph>
    <TTGlyph name="afii10086" xMin="40" yMin="-183" xMax="545" yMax="776">
      <contour>
        <pt x="254" y="-183" on="1"/>
        <pt x="254" y="-2" on="1"/>
        <pt x="203" y="4" on="0"/>
        <pt x="124" y="48" on="0"/>
        <pt x="69" y="117" on="0"/>
        <pt x="40" y="209" on="0"/>
        <pt x="40" y="262" on="1"/>
        <pt x="40" y="315" on="0"/>
        <pt x="69" y="407" on="0"/>
        <pt x="124" y="476" on="0"/>
        <pt x="203" y="520" on="0"/>
        <pt x="254" y="526" on="1"/>
        <pt x="254" y="761" on="1"/>
        <pt x="332" y="776" on="1"/>
        <pt x="332" y="526" on="1"/>
        <pt x="383" y="520" on="0"/>
        <pt x="462" y="476" on="0"/>
        <pt x="516" y="407" on="0"/>
        <pt x="545" y="315" on="0"/>
        <pt x="545" y="262" on="1"/>
        <pt x="545" y="209" on="0"/>
        <pt x="516" y="117" on="0"/>
        <pt x="462" y="48" on="0"/>
        <pt x="383" y="4" on="0"/>
        <pt x="332" y="-2" on="1"/>
        <pt x="332" y="-183" on="1"/>
      </contour>
      <contour>
        <pt x="127" y="267" on="1"/>
        <pt x="127" y="191" on="0"/>
        <pt x="188" y="87" on="0"/>
        <pt x="254" y="74" on="1"/>
        <pt x="254" y="450" on="1"/>
        <pt x="188" y="439" on="0"/>
        <pt x="127" y="342" on="0"/>
      </contour>
      <contour>
        <pt x="458" y="267" on="1"/>
        <pt x="458" y="342" on="0"/>
        <pt x="398" y="440" on="0"/>
        <pt x="332" y="451" on="1"/>
        <pt x="332" y="73" on="1"/>
        <pt x="398" y="86" on="0"/>
        <pt x="458" y="191" on="0"/>
      </contour>
    </TTGlyph>
    <TTGlyph name="afii10087" xMin="15" yMin="0" xMax="377" yMax="525">
      <component glyphName="x" x="0" y="0" flags="0x204"/>
    </TTGlyph>
    <TTGlyph name="afii10088" xMin="78" yMin="-145" xMax="465" yMax="525">
      <contour>
        <pt x="78" y="525" on="1"/>
        <pt x="164" y="525" on="1"/>
        <pt x="164" y="74" on="1"/>
        <pt x="315" y="74" on="1"/>
        <pt x="315" y="525" on="1"/>
        <pt x="401" y="525" on="1"/>
        <pt x="401" y="70" on="1"/>
        <pt x="465" y="70" on="1"/>
        <pt x="465" y="-145" on="1"/>
        <pt x="381" y="-145" on="1"/>
        <pt x="381" y="0" on="1"/>
        <pt x="78" y="0" on="1"/>
      </contour>
    </TTGlyph>
    <TTGlyph name="afii10089" xMin="44" yMin="0" xMax="374" yMax="525">
      <contour>
        <pt x="374" y="525" on="1"/>
        <pt x="374" y="0" on="1"/>
        <pt x="288" y="0" on="1"/>
        <pt x="288" y="198" on="1"/>
        <pt x="269" y="192" on="0"/>
        <pt x="225" y="184" on="0"/>
        <pt x="201" y="184" on="1"/>
        <pt x="168" y="184" on="0"/>
        <pt x="111" y="202" on="0"/>
        <pt x="69" y="245" on="0"/>
        <pt x="44" y="318" on="0"/>
        <pt x="44" y="373" on="1"/>
        <pt x="44" y="525" on="1"/>
        <pt x="130" y="525" on="1"/>
        <pt x="130" y="371" on="1"/>
        <pt x="130" y="347" on="0"/>
        <pt x="138" y="307" on="0"/>
        <pt x="158" y="277" on="0"/>
        <pt x="190" y="260" on="0"/>
        <pt x="214" y="260" on="1"/>
        <pt x="236" y="260" on="0"/>
        <pt x="271" y="266" on="0"/>
        <pt x="288" y="271" on="1"/>
        <pt x="288" y="525" on="1"/>
      </contour>
    </TTGlyph>
    <TTGlyph name="afii10090" xMin="78" yMin="0" xMax="610" yMax="525">
      <contour>
        <pt x="78" y="525" on="1"/>
        <pt x="164" y="525" on="1"/>
        <pt x="164" y="74" on="1"/>
        <pt x="301" y="74" on="1"/>
        <pt x="301" y="525" on="1"/>
        <pt x="387" y="525" on="1"/>
        <pt x="387" y="74" on="1"/>
        <pt x="524" y="74" on="1"/>
        <pt x="524" y="525" on="1"/>
        <pt x="610" y="525" on="1"/>
        <pt x="610" y="0" on="1"/>
        <pt x="78" y="0" on="1"/>
      </contour>
    </TTGlyph>
    <TTGlyph name="afii10091" xMin="78" yMin="-145" xMax="674" yMax="525">
      <contour>
        <pt x="78" y="525" on="1"/>
        <pt x="164" y="525" on="1"/>
        <pt x="164" y="74" on="1"/>
        <pt x="301" y="74" on="1"/>
        <pt x="301" y="525" on="1"/>
        <pt x="387" y="525" on="1"/>
        <pt x="387" y="74" on="1"/>
        <pt x="524" y="74" on="1"/>
        <pt x="524" y="525" on="1"/>
        <pt x="610" y="525" on="1"/>
        <pt x="610" y="70" on="1"/>
        <pt x="674" y="70" on="1"/>
        <pt x="674" y="-145" on="1"/>
        <pt x="590" y="-145" on="1"/>
        <pt x="590" y="0" on="1"/>
        <pt x="78" y="0" on="1"/>
      </contour>
    </TTGlyph>
    <TTGlyph name="afii10092" xMin="10" yMin="-11" xMax="429" yMax="525">
      <contour>
        <pt x="105" y="451" on="1"/>
        <pt x="10" y="451" on="1"/>
        <pt x="10" y="525" on="1"/>
        <pt x="191" y="525" on="1"/>
        <pt x="191" y="331" on="1"/>
        <pt x="221" y="337" on="0"/>
        <pt x="250" y="337" on="1"/>
        <pt x="330" y="337" on="0"/>
        <pt x="429" y="247" on="0"/>
        <pt x="429" y="164" on="1"/>
        <pt x="429" y="115" on="0"/>
        <pt x="400" y="48" on="0"/>
        <pt x="348" y="7" on="0"/>
        <pt x="278" y="-11" on="0"/>
        <pt x="236" y="-11" on="1"/>
        <pt x="201" y="-11" on="0"/>
        <pt x="136" y="-1" on="0"/>
        <pt x="105" y="7" on="1"/>
      </contour>
      <contour>
        <pt x="191" y="68" on="1"/>
        <pt x="203" y="66" on="0"/>
        <pt x="225" y="63" on="0"/>
        <pt x="238" y="63" on="1"/>
        <pt x="289" y="63" on="0"/>
        <pt x="340" y="110" on="0"/>
        <pt x="340" y="163" on="1"/>
        <pt x="340" y="184" on="0"/>
        <pt x="330" y="220" on="0"/>
        <pt x="308" y="247" on="0"/>
        <pt x="270" y="263" on="0"/>
        <pt x="242" y="263" on="1"/>
        <pt x="231" y="263" on="0"/>
        <pt x="205" y="260" on="0"/>
        <pt x="191" y="258" on="1"/>
      </contour>
    </TTGlyph>
    <TTGlyph name="afii10093" xMin="78" yMin="-11" xMax="594" yMax="525">
      <contour>
        <pt x="78" y="525" on="1"/>
        <pt x="164" y="525" on="1"/>
        <pt x="164" y="331" on="1"/>
        <pt x="194" y="337" on="0"/>
        <pt x="223" y="337" on="1"/>
        <pt x="303" y="337" on="0"/>
        <pt x="402" y="247" on="0"/>
        <pt x="402" y="164" on="1"/>
        <pt x="402" y="115" on="0"/>
        <pt x="373" y="48" on="0"/>
        <pt x="321" y="7" on="0"/>
        <pt x="251" y="-11" on="0"/>
        <pt x="209" y="-11" on="1"/>
        <pt x="174" y="-11" on="0"/>
        <pt x="109" y="-1" on="0"/>
        <pt x="78" y="7" on="1"/>
      </contour>
      <contour>
        <pt x="508" y="0" on="1"/>
        <pt x="508" y="525" on="1"/>
        <pt x="594" y="525" on="1"/>
        <pt x="594" y="0" on="1"/>
      </contour>
      <contour>
        <pt x="164" y="68" on="1"/>
        <pt x="176" y="66" on="0"/>
        <pt x="198" y="63" on="0"/>
        <pt x="211" y="63" on="1"/>
        <pt x="262" y="63" on="0"/>
        <pt x="313" y="110" on="0"/>
        <pt x="313" y="163" on="1"/>
        <pt x="313" y="184" on="0"/>
        <pt x="303" y="220" on="0"/>
        <pt x="281" y="247" on="0"/>
        <pt x="243" y="263" on="0"/>
        <pt x="215" y="263" on="1"/>
        <pt x="204" y="263" on="0"/>
        <pt x="178" y="260" on="0"/>
        <pt x="164" y="258" on="1"/>
      </contour>
    </TTGlyph>
    <TTGlyph name="afii10094" xMin="78" yMin="-11" xMax="402" yMax="525">
      <contour>
        <pt x="164" y="68" on="1"/>
        <pt x="176" y="66" on="0"/>
        <pt x="198" y="63" on="0"/>
        <pt x="211" y="63" on="1"/>
        <pt x="262" y="63" on="0"/>
        <pt x="313" y="110" on="0"/>
        <pt x="313" y="163" on="1"/>
        <pt x="313" y="184" on="0"/>
        <pt x="303" y="220" on="0"/>
        <pt x="281" y="247" on="0"/>
        <pt x="243" y="263" on="0"/>
        <pt x="215" y="263" on="1"/>
        <pt x="204" y="263" on="0"/>
        <pt x="178" y="260" on="0"/>
        <pt x="164" y="258" on="1"/>
      </contour>
      <contour>
        <pt x="78" y="525" on="1"/>
        <pt x="164" y="525" on="1"/>
        <pt x="164" y="331" on="1"/>
        <pt x="194" y="337" on="0"/>
        <pt x="223" y="337" on="1"/>
        <pt x="303" y="337" on="0"/>
        <pt x="402" y="247" on="0"/>
        <pt x="402" y="164" on="1"/>
        <pt x="402" y="115" on="0"/>
        <pt x="373" y="48" on="0"/>
        <pt x="321" y="7" on="0"/>
        <pt x="251" y="-11" on="0"/>
        <pt x="209" y="-11" on="1"/>
        <pt x="174" y="-11" on="0"/>
        <pt x="109" y="-1" on="0"/>
        <pt x="78" y="7" on="1"/>
      </contour>
    </TTGlyph>
    <TTGlyph name="afii10095" xMin="32" yMin="-13" xMax="334" yMax="538">
      <contour>
        <pt x="82" y="305" on="1"/>
        <pt x="243" y="305" on="1"/>
        <pt x="239" y="389" on="0"/>
        <pt x="185" y="462" on="0"/>
        <pt x="132" y="462" on="1"/>
        <pt x="110" y="462" on="0"/>
        <pt x="75" y="452" on="0"/>
        <pt x="58" y="442" on="1"/>
        <pt x="36" y="513" on="1"/>
        <pt x="56" y="524" on="0"/>
        <pt x="104" y="538" on="0"/>
        <pt x="135" y="538" on="1"/>
        <pt x="237" y="538" on="0"/>
        <pt x="334" y="402" on="0"/>
        <pt x="334" y="271" on="1"/>
        <pt x="334" y="212" on="0"/>
        <pt x="315" y="109" on="0"/>
        <pt x="269" y="32" on="0"/>
        <pt x="193" y="-13" on="0"/>
        <pt x="136" y="-13" on="1"/>
        <pt x="104" y="-13" on="0"/>
        <pt x="49" y="5" on="0"/>
        <pt x="32" y="16" on="1"/>
        <pt x="51" y="83" on="1"/>
        <pt x="68" y="74" on="0"/>
        <pt x="106" y="63" on="0"/>
        <pt x="129" y="63" on="1"/>
        <pt x="159" y="63" on="0"/>
        <pt x="201" y="89" on="0"/>
        <pt x="228" y="134" on="0"/>
        <pt x="241" y="196" on="0"/>
        <pt x="243" y="233" on="1"/>
        <pt x="82" y="233" on="1"/>
      </contour>
    </TTGlyph>
    <TTGlyph name="afii10096" xMin="78" yMin="-13" xMax="608" yMax="538">
      <contour>
        <pt x="608" y="262" on="1"/>
        <pt x="608" y="200" on="0"/>
        <pt x="587" y="99" on="0"/>
        <pt x="542" y="27" on="0"/>
        <pt x="474" y="-13" on="0"/>
        <pt x="428" y="-13" on="1"/>
        <pt x="385" y="-13" on="0"/>
        <pt x="321" y="22" on="0"/>
        <pt x="277" y="85" on="0"/>
        <pt x="253" y="174" on="0"/>
        <pt x="250" y="229" on="1"/>
        <pt x="164" y="229" on="1"/>
        <pt x="164" y="0" on="1"/>
        <pt x="78" y="0" on="1"/>
        <pt x="78" y="520" on="1"/>
        <pt x="164" y="520" on="1"/>
        <pt x="164" y="309" on="1"/>
        <pt x="250" y="309" on="1"/>
        <pt x="254" y="361" on="0"/>
        <pt x="279" y="445" on="0"/>
        <pt x="324" y="505" on="0"/>
        <pt x="387" y="538" on="0"/>
        <pt x="428" y="538" on="1"/>
        <pt x="474" y="538" on="0"/>
        <pt x="542" y="498" on="0"/>
        <pt x="587" y="425" on="0"/>
        <pt x="608" y="323" on="0"/>
      </contour>
      <contour>
        <pt x="518" y="262" on="1"/>
        <pt x="518" y="306" on="0"/>
        <pt x="508" y="379" on="0"/>
        <pt x="487" y="432" on="0"/>
        <pt x="452" y="461" on="0"/>
        <pt x="427" y="461" on="1"/>
        <pt x="402" y="461" on="0"/>
        <pt x="368" y="432" on="0"/>
        <pt x="346" y="379" on="0"/>
        <pt x="336" y="306" on="0"/>
        <pt x="336" y="262" on="1"/>
        <pt x="336" y="218" on="0"/>
        <pt x="346" y="145" on="0"/>
        <pt x="368" y="93" on="0"/>
        <pt x="402" y="64" on="0"/>
        <pt x="427" y="64" on="1"/>
        <pt x="452" y="64" on="0"/>
        <pt x="487" y="93" on="0"/>
        <pt x="508" y="145" on="0"/>
        <pt x="518" y="218" on="0"/>
      </contour>
    </TTGlyph>
    <TTGlyph name="afii10097" xMin="45" yMin="0" xMax="364" yMax="538">
      <contour>
        <pt x="278" y="0" on="1"/>
        <pt x="278" y="197" on="1"/>
        <pt x="237" y="197" on="1"/>
        <pt x="229" y="197" on="0"/>
        <pt x="215" y="197" on="0"/>
        <pt x="207" y="198" on="1"/>
        <pt x="187" y="153" on="0"/>
        <pt x="149" y="48" on="0"/>
        <pt x="133" y="0" on="1"/>
        <pt x="45" y="0" on="1"/>
        <pt x="52" y="24" on="0"/>
        <pt x="72" y="82" on="0"/>
        <pt x="96" y="141" on="0"/>
        <pt x="122" y="197" on="0"/>
        <pt x="133" y="220" on="1"/>
        <pt x="96" y="240" on="0"/>
        <pt x="55" y="313" on="0"/>
        <pt x="55" y="367" on="1"/>
        <pt x="55" y="411" on="0"/>
        <pt x="83" y="475" on="0"/>
        <pt x="132" y="517" on="0"/>
        <pt x="199" y="538" on="0"/>
        <pt x="239" y="538" on="1"/>
        <pt x="272" y="538" on="0"/>
        <pt x="335" y="528" on="0"/>
        <pt x="364" y="520" on="1"/>
        <pt x="364" y="0" on="1"/>
      </contour>
      <contour>
        <pt x="278" y="462" on="1"/>
        <pt x="267" y="464" on="0"/>
        <pt x="247" y="467" on="0"/>
        <pt x="236" y="467" on="1"/>
        <pt x="144" y="467" on="0"/>
        <pt x="144" y="367" on="1"/>
        <pt x="144" y="325" on="0"/>
        <pt x="184" y="270" on="0"/>
        <pt x="237" y="270" on="1"/>
        <pt x="278" y="270" on="1"/>
      </contour>
    </TTGlyph>
    <TTGlyph name="afii10098" xMin="78" yMin="0" xMax="322" yMax="650">
      <contour>
        <pt x="322" y="650" on="1"/>
        <pt x="322" y="451" on="1"/>
        <pt x="164" y="451" on="1"/>
        <pt x="164" y="0" on="1"/>
        <pt x="78" y="0" on="1"/>
        <pt x="78" y="525" on="1"/>
        <pt x="238" y="525" on="1"/>
        <pt x="238" y="650" on="1"/>
      </contour>
    </TTGlyph>
    <TTGlyph name="afii10099" xMin="4" yMin="-186" xMax="399" yMax="776">
      <contour>
        <pt x="4" y="683" on="1"/>
        <pt x="67" y="683" on="1"/>
        <pt x="67" y="761" on="1"/>
        <pt x="153" y="776" on="1"/>
        <pt x="153" y="683" on="1"/>
        <pt x="281" y="683" on="1"/>
        <pt x="281" y="617" on="1"/>
        <pt x="153" y="617" on="1"/>
        <pt x="153" y="522" on="1"/>
        <pt x="172" y="528" on="0"/>
        <pt x="217" y="536" on="0"/>
        <pt x="240" y="536" on="1"/>
        <pt x="273" y="536" on="0"/>
        <pt x="331" y="515" on="0"/>
        <pt x="374" y="465" on="0"/>
        <pt x="399" y="380" on="0"/>
        <pt x="399" y="317" on="1"/>
        <pt x="399" y="-26" on="1"/>
        <pt x="399" y="-112" on="0"/>
        <pt x="327" y="-186" on="0"/>
        <pt x="267" y="-186" on="1"/>
        <pt x="235" y="-186" on="0"/>
        <pt x="211" y="-176" on="1"/>
        <pt x="223" y="-103" on="1"/>
        <pt x="241" y="-108" on="0"/>
        <pt x="257" y="-108" on="1"/>
        <pt x="270" y="-108" on="0"/>
        <pt x="290" y="-101" on="0"/>
        <pt x="305" y="-81" on="0"/>
        <pt x="313" y="-47" on="0"/>
        <pt x="313" y="-21" on="1"/>
        <pt x="313" y="310" on="1"/>
        <pt x="313" y="388" on="0"/>
        <pt x="273" y="460" on="0"/>
        <pt x="218" y="460" on="1"/>
        <pt x="189" y="460" on="0"/>
        <pt x="153" y="450" on="1"/>
        <pt x="153" y="-1" on="1"/>
        <pt x="67" y="-1" on="1"/>
        <pt x="67" y="617" on="1"/>
        <pt x="4" y="617" on="1"/>
      </contour>
    </TTGlyph>
    <TTGlyph name="afii10100" xMin="78" yMin="0" xMax="317" yMax="778">
      <component glyphName="afii10068" x="0" y="0" flags="0x204"/>
      <component glyphName="acute" x="20" y="0" flags="0x4"/>
    </TTGlyph>
    <TTGlyph name="afii10101" xMin="49" yMin="-13" xMax="351" yMax="538">
      <contour>
        <pt x="247" y="-13" on="1"/>
        <pt x="190" y="-13" on="0"/>
        <pt x="114" y="32" on="0"/>
        <pt x="68" y="109" on="0"/>
        <pt x="49" y="212" on="0"/>
        <pt x="49" y="271" on="1"/>
        <pt x="49" y="402" on="0"/>
        <pt x="146" y="538" on="0"/>
        <pt x="248" y="538" on="1"/>
        <pt x="279" y="538" on="0"/>
        <pt x="327" y="524" on="0"/>
        <pt x="347" y="513" on="1"/>
        <pt x="325" y="442" on="1"/>
        <pt x="308" y="452" on="0"/>
        <pt x="273" y="462" on="0"/>
        <pt x="251" y="462" on="1"/>
        <pt x="197" y="462" on="0"/>
        <pt x="143" y="389" on="0"/>
        <pt x="139" y="305" on="1"/>
        <pt x="301" y="305" on="1"/>
        <pt x="301" y="233" on="1"/>
        <pt x="140" y="233" on="1"/>
        <pt x="142" y="196" on="0"/>
        <pt x="155" y="134" on="0"/>
        <pt x="182" y="89" on="0"/>
        <pt x="224" y="63" on="0"/>
        <pt x="254" y="63" on="1"/>
        <pt x="277" y="63" on="0"/>
        <pt x="315" y="74" on="0"/>
        <pt x="332" y="83" on="1"/>
        <pt x="351" y="16" on="1"/>
        <pt x="334" y="5" on="0"/>
        <pt x="279" y="-13" on="0"/>
      </contour>
    </TTGlyph>
    <TTGlyph name="afii10102" xMin="36" yMin="-13" xMax="315" yMax="538">
      <component glyphName="s" x="0" y="0" flags="0x204"/>
    </TTGlyph>
    <TTGlyph name="afii10103" xMin="65" yMin="0" xMax="177" yMax="732">
      <component glyphName="i" x="0" y="0" flags="0x204"/>
    </TTGlyph>
    <TTGlyph name="afii10104" xMin="-17" yMin="0" xMax="261" yMax="732">
      <component glyphName="dotlessi" x="0" y="0" flags="0x204"/>
      <component glyphName="dieresis" x="-35" y="0" flags="0x4"/>
    </TTGlyph>
    <TTGlyph name="afii10105" xMin="-34" yMin="-188" xMax="177" yMax="732">
      <component glyphName="j" x="0" y="0" flags="0x204"/>
    </TTGlyph>
    <TTGlyph name="afii10106" xMin="4" yMin="-11" xMax="654" yMax="525">
      <contour>
        <pt x="416" y="71" on="1"/>
        <pt x="428" y="69" on="0"/>
        <pt x="450" y="66" on="0"/>
        <pt x="463" y="66" on="1"/>
        <pt x="514" y="66" on="0"/>
        <pt x="565" y="112" on="0"/>
        <pt x="565" y="164" on="1"/>
        <pt x="565" y="184" on="0"/>
        <pt x="555" y="220" on="0"/>
        <pt x="533" y="247" on="0"/>
        <pt x="495" y="262" on="0"/>
        <pt x="467" y="262" on="1"/>
        <pt x="456" y="262" on="0"/>
        <pt x="430" y="259" on="0"/>
        <pt x="416" y="257" on="1"/>
      </contour>
      <contour>
        <pt x="416" y="525" on="1"/>
        <pt x="416" y="331" on="1"/>
        <pt x="446" y="337" on="0"/>
        <pt x="475" y="337" on="1"/>
        <pt x="555" y="337" on="0"/>
        <pt x="654" y="247" on="0"/>
        <pt x="654" y="164" on="1"/>
        <pt x="654" y="115" on="0"/>
        <pt x="625" y="48" on="0"/>
        <pt x="573" y="7" on="0"/>
        <pt x="503" y="-11" on="0"/>
        <pt x="461" y="-11" on="1"/>
        <pt x="426" y="-11" on="0"/>
        <pt x="361" y="-1" on="0"/>
        <pt x="330" y="7" on="1"/>
        <pt x="330" y="451" on="1"/>
        <pt x="222" y="451" on="1"/>
        <pt x="222" y="398" on="1"/>
        <pt x="222" y="302" on="0"/>
        <pt x="199" y="152" on="0"/>
        <pt x="173" y="98" on="1"/>
        <pt x="147" y="45" on="0"/>
        <pt x="71" y="-8" on="0"/>
        <pt x="14" y="-10" on="1"/>
        <pt x="4" y="67" on="1"/>
        <pt x="47" y="74" on="0"/>
        <pt x="92" y="117" on="0"/>
        <pt x="106" y="151" on="1"/>
        <pt x="124" y="197" on="0"/>
        <pt x="137" y="331" on="0"/>
        <pt x="137" y="415" on="1"/>
        <pt x="137" y="525" on="1"/>
      </contour>
    </TTGlyph>
    <TTGlyph name="afii10107" xMin="78" yMin="-11" xMax="649" yMax="525">
      <contour>
        <pt x="411" y="525" on="1"/>
        <pt x="411" y="328" on="1"/>
        <pt x="441" y="334" on="0"/>
        <pt x="470" y="334" on="1"/>
        <pt x="510" y="334" on="0"/>
        <pt x="576" y="311" on="0"/>
        <pt x="623" y="267" on="0"/>
        <pt x="649" y="203" on="0"/>
        <pt x="649" y="162" on="1"/>
        <pt x="649" y="114" on="0"/>
        <pt x="620" y="47" on="0"/>
        <pt x="568" y="7" on="0"/>
        <pt x="498" y="-11" on="0"/>
        <pt x="456" y="-11" on="1"/>
        <pt x="421" y="-11" on="0"/>
        <pt x="356" y="-1" on="0"/>
        <pt x="325" y="7" on="1"/>
        <pt x="325" y="249" on="1"/>
        <pt x="164" y="249" on="1"/>
        <pt x="164" y="0" on="1"/>
        <pt x="78" y="0" on="1"/>
        <pt x="78" y="525" on="1"/>
        <pt x="164" y="525" on="1"/>
        <pt x="164" y="323" on="1"/>
        <pt x="325" y="323" on="1"/>
        <pt x="325" y="525" on="1"/>
      </contour>
      <contour>
        <pt x="411" y="71" on="1"/>
        <pt x="423" y="69" on="0"/>
        <pt x="445" y="66" on="0"/>
        <pt x="458" y="66" on="1"/>
        <pt x="509" y="66" on="0"/>
        <pt x="560" y="111" on="0"/>
        <pt x="560" y="162" on="1"/>
        <pt x="560" y="182" on="0"/>
        <pt x="550" y="218" on="0"/>
        <pt x="528" y="244" on="0"/>
        <pt x="490" y="259" on="0"/>
        <pt x="462" y="259" on="1"/>
        <pt x="451" y="259" on="0"/>
        <pt x="425" y="256" on="0"/>
        <pt x="411" y="254" on="1"/>
      </contour>
    </TTGlyph>
    <TTGlyph name="afii10108" xMin="15" yMin="-1" xMax="410" yMax="776">
      <component glyphName="hbar" x="0" y="0" flags="0x204"/>
    </TTGlyph>
    <TTGlyph name="afii10109" xMin="78" yMin="0" xMax="420" yMax="778">
      <component glyphName="kgreenlandic" x="0" y="0" flags="0x204"/>
      <component glyphName="acute" x="70" y="0" flags="0x4"/>
    </TTGlyph>
    <TTGlyph name="afii10110" xMin="1" yMin="-188" xMax="383" yMax="525">
      <component glyphName="y" x="0" y="0" flags="0x204"/>
    </TTGlyph>
    <TTGlyph name="afii10145" xMin="84" yMin="-185" xMax="478" yMax="693">
      <contour>
        <pt x="238" y="-185" on="1"/>
        <pt x="238" y="0" on="1"/>
        <pt x="84" y="0" on="1"/>
        <pt x="84" y="693" on="1"/>
        <pt x="174" y="693" on="1"/>
        <pt x="174" y="78" on="1"/>
        <pt x="388" y="78" on="1"/>
        <pt x="388" y="693" on="1"/>
        <pt x="478" y="693" on="1"/>
        <pt x="478" y="0" on="1"/>
        <pt x="324" y="0" on="1"/>
        <pt x="324" y="-185" on="1"/>
      </contour>
    </TTGlyph>
    <TTGlyph name="afii10193" xMin="78" yMin="-145" xMax="401" yMax="525">
      <contour>
        <pt x="78" y="525" on="1"/>
        <pt x="164" y="525" on="1"/>
        <pt x="164" y="74" on="1"/>
        <pt x="315" y="74" on="1"/>
        <pt x="315" y="525" on="1"/>
        <pt x="401" y="525" on="1"/>
        <pt x="401" y="0" on="1"/>
        <pt x="282" y="0" on="1"/>
        <pt x="282" y="-145" on="1"/>
        <pt x="198" y="-145" on="1"/>
        <pt x="198" y="0" on="1"/>
        <pt x="78" y="0" on="1"/>
      </contour>
    </TTGlyph>
    <TTGlyph name="afii61289" xMin="4" yMin="-15" xMax="338" yMax="776">
      <contour>
        <pt x="324" y="615" on="1"/>
        <pt x="324" y="517" on="0"/>
        <pt x="248" y="336" on="0"/>
        <pt x="185" y="263" on="1"/>
        <pt x="185" y="145" on="1"/>
        <pt x="185" y="106" on="0"/>
        <pt x="210" y="60" on="0"/>
        <pt x="242" y="60" on="1"/>
        <pt x="279" y="60" on="0"/>
        <pt x="311" y="87" on="1"/>
        <pt x="338" y="24" on="1"/>
        <pt x="317" y="7" on="0"/>
        <pt x="266" y="-15" on="0"/>
        <pt x="230" y="-15" on="1"/>
        <pt x="160" y="-15" on="0"/>
        <pt x="99" y="75" on="0"/>
        <pt x="99" y="147" on="1"/>
        <pt x="99" y="177" on="1"/>
        <pt x="44" y="125" on="1"/>
        <pt x="4" y="170" on="1"/>
        <pt x="99" y="262" on="1"/>
        <pt x="99" y="616" on="1"/>
        <pt x="99" y="663" on="0"/>
        <pt x="117" y="725" on="0"/>
        <pt x="148" y="761" on="0"/>
        <pt x="189" y="776" on="0"/>
        <pt x="212" y="776" on="1"/>
        <pt x="244" y="776" on="0"/>
        <pt x="287" y="750" on="0"/>
        <pt x="313" y="706" on="0"/>
        <pt x="324" y="648" on="0"/>
      </contour>
      <contour>
        <pt x="185" y="356" on="1"/>
        <pt x="227" y="413" on="0"/>
        <pt x="257" y="536" on="0"/>
        <pt x="257" y="616" on="1"/>
        <pt x="257" y="658" on="0"/>
        <pt x="244" y="705" on="0"/>
        <pt x="223" y="705" on="1"/>
        <pt x="200" y="705" on="0"/>
        <pt x="185" y="661" on="0"/>
        <pt x="185" y="616" on="1"/>
      </contour>
    </TTGlyph>
    <TTGlyph name="afii61352" xMin="84" yMin="0" xMax="862" yMax="710">
      <contour>
        <pt x="587" y="222" on="1"/>
        <pt x="852" y="222" on="1"/>
        <pt x="852" y="152" on="1"/>
        <pt x="587" y="152" on="1"/>
      </contour>
      <contour>
        <pt x="424" y="0" on="1"/>
        <pt x="400" y="59" on="0"/>
        <pt x="339" y="196" on="0"/>
        <pt x="272" y="335" on="0"/>
        <pt x="202" y="472" on="0"/>
        <pt x="168" y="531" on="1"/>
        <pt x="168" y="0" on="1"/>
        <pt x="84" y="0" on="1"/>
        <pt x="84" y="693" on="1"/>
        <pt x="159" y="693" on="1"/>
        <pt x="197" y="631" on="0"/>
        <pt x="268" y="501" on="0"/>
        <pt x="332" y="374" on="0"/>
        <pt x="389" y="251" on="0"/>
        <pt x="413" y="196" on="1"/>
        <pt x="413" y="693" on="1"/>
        <pt x="497" y="693" on="1"/>
        <pt x="497" y="0" on="1"/>
      </contour>
      <contour>
        <pt x="862" y="521" on="1"/>
        <pt x="862" y="426" on="0"/>
        <pt x="783" y="332" on="0"/>
        <pt x="721" y="332" on="1"/>
        <pt x="659" y="332" on="0"/>
        <pt x="580" y="425" on="0"/>
        <pt x="580" y="521" on="1"/>
        <pt x="580" y="618" on="0"/>
        <pt x="659" y="710" on="0"/>
        <pt x="721" y="710" on="1"/>
        <pt x="783" y="710" on="0"/>
        <pt x="862" y="618" on="0"/>
      </contour>
      <contour>
        <pt x="792" y="521" on="1"/>
        <pt x="792" y="587" on="0"/>
        <pt x="755" y="648" on="0"/>
        <pt x="721" y="648" on="1"/>
        <pt x="688" y="648" on="0"/>
        <pt x="650" y="587" on="0"/>
        <pt x="650" y="521" on="1"/>
        <pt x="650" y="456" on="0"/>
        <pt x="687" y="394" on="0"/>
        <pt x="721" y="394" on="1"/>
        <pt x="755" y="394" on="0"/>
        <pt x="792" y="456" on="0"/>
      </contour>
    </TTGlyph>
    <TTGlyph name="agrave" xMin="41" yMin="-11" xMax="362" yMax="778">
      <component glyphName="a" x="0" y="0" flags="0x204"/>
      <component glyphName="grave" x="65" y="0" flags="0x4"/>
    </TTGlyph>
    <TTGlyph name="alpha" xMin="48" yMin="-13" xMax="453" yMax="538">
      <contour>
        <pt x="390" y="131" on="1"/>
        <pt x="390" y="99" on="0"/>
        <pt x="418" y="66" on="0"/>
        <pt x="453" y="62" on="1"/>
        <pt x="442" y="-10" on="1"/>
        <pt x="419" y="-9" on="0"/>
        <pt x="388" y="-4" on="0"/>
        <pt x="365" y="5" on="0"/>
        <pt x="348" y="18" on="0"/>
        <pt x="339" y="26" on="1"/>
        <pt x="316" y="8" on="0"/>
        <pt x="264" y="-13" on="0"/>
        <pt x="234" y="-13" on="1"/>
        <pt x="140" y="-13" on="0"/>
        <pt x="48" y="130" on="0"/>
        <pt x="48" y="260" on="1"/>
        <pt x="48" y="394" on="0"/>
        <pt x="153" y="538" on="0"/>
        <pt x="261" y="538" on="1"/>
        <pt x="293" y="538" on="0"/>
        <pt x="364" y="522" on="0"/>
        <pt x="390" y="511" on="1"/>
      </contour>
      <contour>
        <pt x="247" y="63" on="1"/>
        <pt x="267" y="63" on="0"/>
        <pt x="297" y="77" on="0"/>
        <pt x="308" y="87" on="1"/>
        <pt x="306" y="98" on="0"/>
        <pt x="304" y="122" on="0"/>
        <pt x="304" y="136" on="1"/>
        <pt x="304" y="455" on="1"/>
        <pt x="293" y="458" on="0"/>
        <pt x="271" y="462" on="0"/>
        <pt x="260" y="462" on="1"/>
        <pt x="201" y="462" on="0"/>
        <pt x="138" y="370" on="0"/>
        <pt x="138" y="261" on="1"/>
        <pt x="138" y="160" on="0"/>
        <pt x="193" y="63" on="0"/>
      </contour>
    </TTGlyph>
    <TTGlyph name="alphatonos" xMin="48" yMin="-13" xMax="453" yMax="788">
      <component glyphName="alpha" x="0" y="0" flags="0x204"/>
      <component glyphName="tonos" x="86" y="0" flags="0x4"/>
    </TTGlyph>
    <TTGlyph name="amacron" xMin="41" yMin="-11" xMax="362" yMax="711">
      <component glyphName="a" x="0" y="0" flags="0x204"/>
      <component glyphName="uni02C9" x="60" y="0" flags="0x4"/>
    </TTGlyph>
    <TTGlyph name="ampersand" xMin="44" yMin="-9" xMax="502" yMax="709">
      <contour>
        <pt x="483" y="353" on="1"/>
        <pt x="478" y="290" on="0"/>
        <pt x="450" y="183" on="0"/>
        <pt x="428" y="140" on="1"/>
        <pt x="451" y="106" on="0"/>
        <pt x="489" y="33" on="0"/>
        <pt x="502" y="0" on="1"/>
        <pt x="415" y="0" on="1"/>
        <pt x="402" y="32" on="0"/>
        <pt x="381" y="70" on="1"/>
        <pt x="349" y="32" on="0"/>
        <pt x="271" y="-9" on="0"/>
        <pt x="231" y="-9" on="1"/>
        <pt x="181" y="-9" on="0"/>
        <pt x="110" y="23" on="0"/>
        <pt x="65" y="74" on="0"/>
        <pt x="44" y="138" on="0"/>
        <pt x="44" y="169" on="1"/>
        <pt x="44" y="208" on="0"/>
        <pt x="63" y="271" on="0"/>
        <pt x="94" y="321" on="0"/>
        <pt x="135" y="363" on="0"/>
        <pt x="158" y="381" on="1"/>
        <pt x="132" y="419" on="0"/>
        <pt x="93" y="504" on="0"/>
        <pt x="93" y="554" on="1"/>
        <pt x="93" y="624" on="0"/>
        <pt x="171" y="709" on="0"/>
        <pt x="237" y="709" on="1"/>
        <pt x="273" y="709" on="0"/>
        <pt x="325" y="686" on="0"/>
        <pt x="358" y="646" on="0"/>
        <pt x="373" y="594" on="0"/>
        <pt x="373" y="565" on="1"/>
        <pt x="373" y="531" on="0"/>
        <pt x="354" y="476" on="0"/>
        <pt x="323" y="430" on="0"/>
        <pt x="282" y="392" on="0"/>
        <pt x="261" y="375" on="1"/>
        <pt x="380" y="207" on="1"/>
        <pt x="391" y="239" on="0"/>
        <pt x="407" y="317" on="0"/>
        <pt x="411" y="363" on="1"/>
      </contour>
      <contour>
        <pt x="234" y="64" on="1"/>
        <pt x="263" y="64" on="0"/>
        <pt x="318" y="97" on="0"/>
        <pt x="341" y="130" on="1"/>
        <pt x="199" y="325" on="1"/>
        <pt x="169" y="298" on="0"/>
        <pt x="131" y="228" on="0"/>
        <pt x="131" y="176" on="1"/>
        <pt x="131" y="128" on="0"/>
        <pt x="183" y="64" on="0"/>
      </contour>
      <contour>
        <pt x="171" y="555" on="1"/>
        <pt x="171" y="521" on="0"/>
        <pt x="200" y="462" on="0"/>
        <pt x="221" y="432" on="1"/>
        <pt x="252" y="458" on="0"/>
        <pt x="295" y="520" on="0"/>
        <pt x="295" y="565" on="1"/>
        <pt x="295" y="603" on="0"/>
        <pt x="262" y="641" on="0"/>
        <pt x="235" y="641" on="1"/>
        <pt x="203" y="641" on="0"/>
        <pt x="171" y="596" on="0"/>
      </contour>
    </TTGlyph>
    <TTGlyph name="aogonek" xMin="41" yMin="-187" xMax="364" yMax="538">
      <contour>
        <pt x="364" y="-176" on="1"/>
        <pt x="336" y="-187" on="0"/>
        <pt x="302" y="-187" on="1"/>
        <pt x="258" y="-187" on="0"/>
        <pt x="202" y="-142" on="0"/>
        <pt x="202" y="-102" on="1"/>
        <pt x="202" y="-75" on="0"/>
        <pt x="226" y="-30" on="0"/>
        <pt x="249" y="-9" on="1"/>
        <pt x="240" y="-11" on="0"/>
        <pt x="223" y="-11" on="0"/>
        <pt x="215" y="-11" on="1"/>
        <pt x="179" y="-11" on="0"/>
        <pt x="116" y="7" on="0"/>
        <pt x="69" y="47" on="0"/>
        <pt x="41" y="108" on="0"/>
        <pt x="41" y="152" on="1"/>
        <pt x="41" y="193" on="0"/>
        <pt x="66" y="254" on="0"/>
        <pt x="110" y="295" on="0"/>
        <pt x="170" y="316" on="0"/>
        <pt x="205" y="316" on="1"/>
        <pt x="238" y="316" on="0"/>
        <pt x="278" y="308" on="1"/>
        <pt x="278" y="356" on="1"/>
        <pt x="278" y="414" on="0"/>
        <pt x="233" y="460" on="0"/>
        <pt x="191" y="460" on="1"/>
        <pt x="168" y="460" on="0"/>
        <pt x="127" y="451" on="0"/>
        <pt x="104" y="441" on="1"/>
        <pt x="86" y="514" on="1"/>
        <pt x="112" y="525" on="0"/>
        <pt x="170" y="538" on="0"/>
        <pt x="204" y="538" on="1"/>
        <pt x="274" y="538" on="0"/>
        <pt x="362" y="451" on="0"/>
        <pt x="362" y="359" on="1"/>
        <pt x="362" y="11" on="1"/>
        <pt x="323" y="-12" on="0"/>
        <pt x="280" y="-57" on="0"/>
        <pt x="280" y="-80" on="1"/>
        <pt x="280" y="-102" on="0"/>
        <pt x="305" y="-120" on="0"/>
        <pt x="323" y="-120" on="1"/>
        <pt x="342" y="-120" on="0"/>
        <pt x="359" y="-113" on="1"/>
      </contour>
      <contour>
        <pt x="127" y="153" on="1"/>
        <pt x="127" y="107" on="0"/>
        <pt x="175" y="63" on="0"/>
        <pt x="219" y="63" on="1"/>
        <pt x="246" y="63" on="0"/>
        <pt x="278" y="70" on="1"/>
        <pt x="278" y="237" on="1"/>
        <pt x="248" y="245" on="0"/>
        <pt x="219" y="245" on="1"/>
        <pt x="200" y="245" on="0"/>
        <pt x="166" y="236" on="0"/>
        <pt x="141" y="215" on="0"/>
        <pt x="127" y="180" on="0"/>
      </contour>
    </TTGlyph>
    <TTGlyph name="apostrophe" xMin="93" yMin="573" xMax="220" yMax="781">
      <contour>
        <pt x="219" y="781" on="1"/>
        <pt x="220" y="774" on="0"/>
        <pt x="220" y="763" on="0"/>
        <pt x="220" y="757" on="1"/>
        <pt x="220" y="707" on="0"/>
        <pt x="184" y="616" on="0"/>
        <pt x="153" y="573" on="1"/>
        <pt x="93" y="591" on="1"/>
        <pt x="118" y="630" on="0"/>
        <pt x="134" y="710" on="0"/>
        <pt x="134" y="745" on="1"/>
        <pt x="134" y="755" on="0"/>
        <pt x="133" y="773" on="0"/>
        <pt x="132" y="781" on="1"/>
      </contour>
    </TTGlyph>
    <TTGlyph name="approxequal" xMin="25" yMin="133" xMax="405" yMax="479">
      <component glyphName="asciitilde" x="0" y="103" flags="0x204"/>
      <component glyphName="asciitilde" x="0" y="-90" flags="0x4"/>
    </TTGlyph>
    <TTGlyph name="aring" xMin="41" yMin="-11" xMax="362" yMax="767">
      <component glyphName="a" x="0" y="0" flags="0x204"/>
      <component glyphName="ring" x="60" y="0" flags="0x4"/>
    </TTGlyph>
    <TTGlyph name="aringacute" xMin="41" yMin="-11" xMax="362" yMax="893">
      <component glyphName="a" x="0" y="0" flags="0x204"/>
      <component glyphName="ring_acute" x="64" y="0" flags="0x4"/>
    </TTGlyph>
    <TTGlyph name="asciicircum" xMin="30" yMin="312" xMax="401" yMax="693">
      <contour>
        <pt x="258" y="693" on="1"/>
        <pt x="401" y="341" on="1"/>
        <pt x="329" y="312" on="1"/>
        <pt x="216" y="597" on="1"/>
        <pt x="103" y="312" on="1"/>
        <pt x="30" y="341" on="1"/>
        <pt x="173" y="693" on="1"/>
      </contour>
    </TTGlyph>
    <TTGlyph name="asciitilde" xMin="25" yMin="223" xMax="405" yMax="376">
      <contour>
        <pt x="140" y="376" on="1"/>
        <pt x="167" y="376" on="0"/>
        <pt x="209" y="353" on="0"/>
        <pt x="244" y="324" on="0"/>
        <pt x="275" y="301" on="0"/>
        <pt x="292" y="301" on="1"/>
        <pt x="316" y="301" on="0"/>
        <pt x="338" y="341" on="0"/>
        <pt x="346" y="373" on="1"/>
        <pt x="405" y="355" on="1"/>
        <pt x="402" y="333" on="0"/>
        <pt x="387" y="286" on="0"/>
        <pt x="360" y="248" on="0"/>
        <pt x="319" y="223" on="0"/>
        <pt x="289" y="223" on="1"/>
        <pt x="262" y="223" on="0"/>
        <pt x="221" y="246" on="0"/>
        <pt x="186" y="275" on="0"/>
        <pt x="154" y="298" on="0"/>
        <pt x="138" y="298" on="1"/>
        <pt x="117" y="298" on="0"/>
        <pt x="92" y="258" on="0"/>
        <pt x="84" y="226" on="1"/>
        <pt x="25" y="244" on="1"/>
        <pt x="28" y="266" on="0"/>
        <pt x="43" y="313" on="0"/>
        <pt x="70" y="351" on="0"/>
        <pt x="111" y="376" on="0"/>
      </contour>
    </TTGlyph>
    <TTGlyph name="asterisk" xMin="35" yMin="402" xMax="352" yMax="707">
      <contour>
        <pt x="66" y="641" on="1"/>
        <pt x="95" y="631" on="0"/>
        <pt x="152" y="595" on="0"/>
        <pt x="174" y="579" on="1"/>
        <pt x="167" y="605" on="0"/>
        <pt x="150" y="670" on="0"/>
        <pt x="150" y="700" on="1"/>
        <pt x="150" y="707" on="1"/>
        <pt x="238" y="707" on="1"/>
        <pt x="238" y="700" on="1"/>
        <pt x="238" y="670" on="0"/>
        <pt x="221" y="605" on="0"/>
        <pt x="213" y="579" on="1"/>
        <pt x="236" y="594" on="0"/>
        <pt x="290" y="631" on="0"/>
        <pt x="319" y="640" on="1"/>
        <pt x="326" y="642" on="1"/>
        <pt x="352" y="558" on="1"/>
        <pt x="347" y="556" on="1"/>
        <pt x="318" y="547" on="0"/>
        <pt x="252" y="543" on="0"/>
        <pt x="226" y="541" on="1"/>
        <pt x="246" y="524" on="0"/>
        <pt x="297" y="483" on="0"/>
        <pt x="314" y="459" on="1"/>
        <pt x="318" y="454" on="1"/>
        <pt x="247" y="402" on="1"/>
        <pt x="244" y="408" on="1"/>
        <pt x="226" y="432" on="0"/>
        <pt x="202" y="494" on="0"/>
        <pt x="192" y="519" on="1"/>
        <pt x="182" y="494" on="0"/>
        <pt x="158" y="432" on="0"/>
        <pt x="141" y="409" on="1"/>
        <pt x="137" y="403" on="1"/>
        <pt x="66" y="455" on="1"/>
        <pt x="71" y="460" on="1"/>
        <pt x="88" y="484" on="0"/>
        <pt x="141" y="526" on="0"/>
        <pt x="161" y="543" on="1"/>
        <pt x="134" y="545" on="0"/>
        <pt x="68" y="547" on="0"/>
        <pt x="39" y="558" on="1"/>
        <pt x="35" y="561" on="1"/>
        <pt x="60" y="643" on="1"/>
      </contour>
    </TTGlyph>
    <TTGlyph name="at" xMin="63" yMin="-153" xMax="761" yMax="709">
      <contour>
        <pt x="606" y="43" on="1"/>
        <pt x="568" y="43" on="0"/>
        <pt x="519" y="65" on="0"/>
        <pt x="504" y="82" on="1"/>
        <pt x="484" y="63" on="0"/>
        <pt x="441" y="47" on="0"/>
        <pt x="415" y="47" on="1"/>
        <pt x="334" y="47" on="0"/>
        <pt x="250" y="165" on="0"/>
        <pt x="250" y="279" on="1"/>
        <pt x="250" y="386" on="0"/>
        <pt x="345" y="511" on="0"/>
        <pt x="431" y="511" on="1"/>
        <pt x="473" y="511" on="0"/>
        <pt x="540" y="494" on="0"/>
        <pt x="558" y="486" on="1"/>
        <pt x="558" y="192" on="1"/>
        <pt x="558" y="150" on="0"/>
        <pt x="578" y="113" on="0"/>
        <pt x="607" y="113" on="1"/>
        <pt x="648" y="113" on="0"/>
        <pt x="681" y="223" on="0"/>
        <pt x="681" y="326" on="1"/>
        <pt x="681" y="392" on="0"/>
        <pt x="652" y="506" on="0"/>
        <pt x="589" y="591" on="0"/>
        <pt x="490" y="639" on="0"/>
        <pt x="420" y="639" on="1"/>
        <pt x="358" y="639" on="0"/>
        <pt x="256" y="591" on="0"/>
        <pt x="183" y="498" on="0"/>
        <pt x="143" y="364" on="0"/>
        <pt x="143" y="278" on="1"/>
        <pt x="143" y="191" on="0"/>
        <pt x="181" y="56" on="0"/>
        <pt x="251" y="-36" on="0"/>
        <pt x="352" y="-83" on="0"/>
        <pt x="415" y="-83" on="1"/>
        <pt x="461" y="-83" on="0"/>
        <pt x="524" y="-67" on="0"/>
        <pt x="535" y="-63" on="1"/>
        <pt x="546" y="-132" on="1"/>
        <pt x="539" y="-135" on="0"/>
        <pt x="512" y="-142" on="0"/>
        <pt x="476" y="-149" on="0"/>
        <pt x="435" y="-153" on="0"/>
        <pt x="414" y="-153" on="1"/>
        <pt x="337" y="-153" on="0"/>
        <pt x="209" y="-102" on="0"/>
        <pt x="115" y="3" on="0"/>
        <pt x="63" y="166" on="0"/>
        <pt x="63" y="278" on="1"/>
        <pt x="63" y="386" on="0"/>
        <pt x="118" y="548" on="0"/>
        <pt x="214" y="655" on="0"/>
        <pt x="344" y="709" on="0"/>
        <pt x="418" y="709" on="1"/>
        <pt x="497" y="709" on="0"/>
        <pt x="624" y="656" on="0"/>
        <pt x="713" y="555" on="0"/>
        <pt x="761" y="412" on="0"/>
        <pt x="761" y="322" on="1"/>
        <pt x="761" y="185" on="0"/>
        <pt x="681" y="43" on="0"/>
      </contour>
      <contour>
        <pt x="425" y="119" on="1"/>
        <pt x="456" y="119" on="0"/>
        <pt x="477" y="137" on="1"/>
        <pt x="474" y="151" on="0"/>
        <pt x="472" y="179" on="0"/>
        <pt x="472" y="193" on="1"/>
        <pt x="472" y="433" on="1"/>
        <pt x="467" y="435" on="0"/>
        <pt x="447" y="439" on="0"/>
        <pt x="433" y="439" on="1"/>
        <pt x="385" y="439" on="0"/>
        <pt x="340" y="361" on="0"/>
        <pt x="340" y="279" on="1"/>
        <pt x="340" y="206" on="0"/>
        <pt x="378" y="119" on="0"/>
      </contour>
    </TTGlyph>
    <TTGlyph name="atilde" xMin="41" yMin="-11" xMax="362" yMax="738">
      <component glyphName="a" x="0" y="0" flags="0x204"/>
      <component glyphName="tilde" x="60" y="0" flags="0x4"/>
    </TTGlyph>
    <TTGlyph name="b" xMin="77" yMin="-13" xMax="419" yMax="776">
      <contour>
        <pt x="163" y="70" on="1"/>
        <pt x="177" y="66" on="0"/>
        <pt x="203" y="63" on="0"/>
        <pt x="214" y="63" on="1"/>
        <pt x="272" y="63" on="0"/>
        <pt x="329" y="156" on="0"/>
        <pt x="329" y="264" on="1"/>
        <pt x="329" y="320" on="0"/>
        <pt x="315" y="396" on="0"/>
        <pt x="288" y="442" on="0"/>
        <pt x="250" y="462" on="0"/>
        <pt x="225" y="462" on="1"/>
        <pt x="192" y="462" on="0"/>
        <pt x="163" y="446" on="1"/>
      </contour>
      <contour>
        <pt x="163" y="521" on="1"/>
        <pt x="179" y="529" on="0"/>
        <pt x="212" y="538" on="0"/>
        <pt x="235" y="538" on="1"/>
        <pt x="284" y="538" on="0"/>
        <pt x="354" y="499" on="0"/>
        <pt x="398" y="428" on="0"/>
        <pt x="419" y="327" on="0"/>
        <pt x="419" y="264" on="1"/>
        <pt x="419" y="125" on="0"/>
        <pt x="320" y="-13" on="0"/>
        <pt x="214" y="-13" on="1"/>
        <pt x="177" y="-13" on="0"/>
        <pt x="105" y="2" on="0"/>
        <pt x="77" y="14" on="1"/>
        <pt x="77" y="761" on="1"/>
        <pt x="163" y="776" on="1"/>
      </contour>
    </TTGlyph>
    <TTGlyph name="backslash" xMin="-26" yMin="-185" xMax="296" yMax="783">
      <contour>
        <pt x="-26" y="783" on="1"/>
        <pt x="54" y="783" on="1"/>
        <pt x="296" y="-185" on="1"/>
        <pt x="216" y="-185" on="1"/>
      </contour>
    </TTGlyph>
    <TTGlyph name="bar" xMin="94" yMin="-185" xMax="175" yMax="783">
      <contour>
        <pt x="94" y="783" on="1"/>
        <pt x="175" y="783" on="1"/>
        <pt x="175" y="-185" on="1"/>
        <pt x="94" y="-185" on="1"/>
      </contour>
    </TTGlyph>
    <TTGlyph name="beta" xMin="78" yMin="-185" xMax="447" yMax="776">
      <contour>
        <pt x="247" y="-8" on="1"/>
        <pt x="228" y="-8" on="0"/>
        <pt x="185" y="0" on="0"/>
        <pt x="164" y="10" on="1"/>
        <pt x="164" y="-185" on="1"/>
        <pt x="78" y="-185" on="1"/>
        <pt x="78" y="587" on="1"/>
        <pt x="78" y="682" on="0"/>
        <pt x="170" y="776" on="0"/>
        <pt x="245" y="776" on="1"/>
        <pt x="326" y="776" on="0"/>
        <pt x="412" y="677" on="0"/>
        <pt x="412" y="596" on="1"/>
        <pt x="412" y="539" on="0"/>
        <pt x="361" y="453" on="0"/>
        <pt x="321" y="432" on="1"/>
        <pt x="379" y="412" on="0"/>
        <pt x="447" y="306" on="0"/>
        <pt x="447" y="225" on="1"/>
        <pt x="447" y="171" on="0"/>
        <pt x="418" y="85" on="0"/>
        <pt x="366" y="24" on="0"/>
        <pt x="292" y="-8" on="0"/>
      </contour>
      <contour>
        <pt x="164" y="84" on="1"/>
        <pt x="180" y="76" on="0"/>
        <pt x="216" y="68" on="0"/>
        <pt x="230" y="68" on="1"/>
        <pt x="293" y="68" on="0"/>
        <pt x="358" y="148" on="0"/>
        <pt x="358" y="225" on="1"/>
        <pt x="358" y="260" on="0"/>
        <pt x="344" y="320" on="0"/>
        <pt x="312" y="364" on="0"/>
        <pt x="263" y="389" on="0"/>
        <pt x="228" y="389" on="1"/>
        <pt x="228" y="460" on="1"/>
        <pt x="268" y="460" on="0"/>
        <pt x="325" y="523" on="0"/>
        <pt x="325" y="591" on="1"/>
        <pt x="325" y="642" on="0"/>
        <pt x="286" y="703" on="0"/>
        <pt x="245" y="703" on="1"/>
        <pt x="207" y="703" on="0"/>
        <pt x="164" y="647" on="0"/>
        <pt x="164" y="587" on="1"/>
      </contour>
    </TTGlyph>
    <TTGlyph name="braceleft" xMin="37" yMin="-185" xMax="260" yMax="783">
      <contour>
        <pt x="37" y="332" on="1"/>
        <pt x="70" y="336" on="0"/>
        <pt x="102" y="399" on="0"/>
        <pt x="102" y="455" on="1"/>
        <pt x="102" y="627" on="1"/>
        <pt x="102" y="713" on="0"/>
        <pt x="183" y="783" on="0"/>
        <pt x="260" y="783" on="1"/>
        <pt x="260" y="716" on="1"/>
        <pt x="218" y="716" on="0"/>
        <pt x="184" y="673" on="0"/>
        <pt x="184" y="628" on="1"/>
        <pt x="184" y="457" on="1"/>
        <pt x="184" y="340" on="0"/>
        <pt x="115" y="299" on="1"/>
        <pt x="184" y="258" on="0"/>
        <pt x="184" y="141" on="1"/>
        <pt x="184" y="-30" on="1"/>
        <pt x="184" y="-75" on="0"/>
        <pt x="218" y="-118" on="0"/>
        <pt x="260" y="-118" on="1"/>
        <pt x="260" y="-185" on="1"/>
        <pt x="183" y="-185" on="0"/>
        <pt x="102" y="-115" on="0"/>
        <pt x="102" y="-29" on="1"/>
        <pt x="102" y="143" on="1"/>
        <pt x="102" y="199" on="0"/>
        <pt x="70" y="262" on="0"/>
        <pt x="37" y="266" on="1"/>
      </contour>
    </TTGlyph>
    <TTGlyph name="braceright" xMin="6" yMin="-185" xMax="229" yMax="783">
      <contour>
        <pt x="229" y="266" on="1"/>
        <pt x="196" y="262" on="0"/>
        <pt x="164" y="199" on="0"/>
        <pt x="164" y="143" on="1"/>
        <pt x="164" y="-29" on="1"/>
        <pt x="164" y="-115" on="0"/>
        <pt x="83" y="-185" on="0"/>
        <pt x="6" y="-185" on="1"/>
        <pt x="6" y="-118" on="1"/>
        <pt x="48" y="-118" on="0"/>
        <pt x="82" y="-75" on="0"/>
        <pt x="82" y="-30" on="1"/>
        <pt x="82" y="141" on="1"/>
        <pt x="82" y="258" on="0"/>
        <pt x="151" y="299" on="1"/>
        <pt x="82" y="340" on="0"/>
        <pt x="82" y="457" on="1"/>
        <pt x="82" y="628" on="1"/>
        <pt x="82" y="673" on="0"/>
        <pt x="48" y="716" on="0"/>
        <pt x="6" y="716" on="1"/>
        <pt x="6" y="783" on="1"/>
        <pt x="83" y="783" on="0"/>
        <pt x="164" y="713" on="0"/>
        <pt x="164" y="627" on="1"/>
        <pt x="164" y="455" on="1"/>
        <pt x="164" y="399" on="0"/>
        <pt x="196" y="336" on="0"/>
        <pt x="229" y="332" on="1"/>
      </contour>
    </TTGlyph>
    <TTGlyph name="bracketleft" xMin="94" yMin="-185" xMax="275" yMax="783">
      <contour>
        <pt x="94" y="783" on="1"/>
        <pt x="275" y="783" on="1"/>
        <pt x="275" y="715" on="1"/>
        <pt x="176" y="715" on="1"/>
        <pt x="176" y="-117" on="1"/>
        <pt x="275" y="-117" on="1"/>
        <pt x="275" y="-185" on="1"/>
        <pt x="94" y="-185" on="1"/>
      </contour>
    </TTGlyph>
    <TTGlyph name="bracketright" xMin="6" yMin="-185" xMax="187" yMax="783">
      <contour>
        <pt x="187" y="-185" on="1"/>
        <pt x="6" y="-185" on="1"/>
        <pt x="6" y="-117" on="1"/>
        <pt x="105" y="-117" on="1"/>
        <pt x="105" y="715" on="1"/>
        <pt x="6" y="715" on="1"/>
        <pt x="6" y="783" on="1"/>
        <pt x="187" y="783" on="1"/>
      </contour>
    </TTGlyph>
    <TTGlyph name="breve" xMin="42" yMin="615" xMax="272" yMax="754">
      <contour>
        <pt x="157" y="615" on="1"/>
        <pt x="101" y="615" on="0"/>
        <pt x="42" y="688" on="0"/>
        <pt x="42" y="754" on="1"/>
        <pt x="100" y="754" on="1"/>
        <pt x="102" y="721" on="0"/>
        <pt x="125" y="673" on="0"/>
        <pt x="157" y="673" on="1"/>
        <pt x="189" y="673" on="0"/>
        <pt x="212" y="721" on="0"/>
        <pt x="214" y="754" on="1"/>
        <pt x="272" y="754" on="1"/>
        <pt x="272" y="688" on="0"/>
        <pt x="212" y="615" on="0"/>
      </contour>
    </TTGlyph>
    <TTGlyph name="breve_inverted" xMin="42" yMin="620" xMax="272" yMax="759">
      <contour>
        <pt x="157" y="759" on="1"/>
        <pt x="212" y="759" on="0"/>
        <pt x="272" y="686" on="0"/>
        <pt x="272" y="620" on="1"/>
        <pt x="214" y="620" on="1"/>
        <pt x="212" y="653" on="0"/>
        <pt x="189" y="701" on="0"/>
        <pt x="157" y="701" on="1"/>
        <pt x="125" y="701" on="0"/>
        <pt x="102" y="653" on="0"/>
        <pt x="100" y="620" on="1"/>
        <pt x="42" y="620" on="1"/>
        <pt x="42" y="686" on="0"/>
        <pt x="101" y="759" on="0"/>
      </contour>
    </TTGlyph>
    <TTGlyph name="brokenbar" xMin="94" yMin="-185" xMax="175" yMax="783">
      <contour>
        <pt x="94" y="400" on="1"/>
        <pt x="94" y="783" on="1"/>
        <pt x="175" y="783" on="1"/>
        <pt x="175" y="400" on="1"/>
      </contour>
      <contour>
        <pt x="175" y="198" on="1"/>
        <pt x="175" y="-185" on="1"/>
        <pt x="94" y="-185" on="1"/>
        <pt x="94" y="198" on="1"/>
      </contour>
    </TTGlyph>
    <TTGlyph name="bullet" xMin="50" yMin="240" xMax="278" yMax="466">
      <contour>
        <pt x="278" y="353" on="1"/>
        <pt x="278" y="330" on="0"/>
        <pt x="262" y="289" on="0"/>
        <pt x="232" y="258" on="0"/>
        <pt x="190" y="240" on="0"/>
        <pt x="164" y="240" on="1"/>
        <pt x="138" y="240" on="0"/>
        <pt x="96" y="258" on="0"/>
        <pt x="66" y="289" on="0"/>
        <pt x="50" y="330" on="0"/>
        <pt x="50" y="353" on="1"/>
        <pt x="50" y="376" on="0"/>
        <pt x="66" y="417" on="0"/>
        <pt x="96" y="448" on="0"/>
        <pt x="138" y="466" on="0"/>
        <pt x="164" y="466" on="1"/>
        <pt x="190" y="466" on="0"/>
        <pt x="232" y="448" on="0"/>
        <pt x="262" y="417" on="0"/>
        <pt x="278" y="376" on="0"/>
      </contour>
    </TTGlyph>
    <TTGlyph name="c" xMin="48" yMin="-13" xMax="338" yMax="538">
      <contour>
        <pt x="238" y="-13" on="1"/>
        <pt x="184" y="-13" on="0"/>
        <pt x="112" y="29" on="0"/>
        <pt x="67" y="102" on="0"/>
        <pt x="48" y="202" on="0"/>
        <pt x="48" y="261" on="1"/>
        <pt x="48" y="391" on="0"/>
        <pt x="143" y="538" on="0"/>
        <pt x="239" y="538" on="1"/>
        <pt x="268" y="538" on="0"/>
        <pt x="314" y="524" on="0"/>
        <pt x="334" y="513" on="1"/>
        <pt x="312" y="442" on="1"/>
        <pt x="281" y="462" on="0"/>
        <pt x="243" y="462" on="1"/>
        <pt x="189" y="462" on="0"/>
        <pt x="138" y="364" on="0"/>
        <pt x="138" y="261" on="1"/>
        <pt x="138" y="218" on="0"/>
        <pt x="148" y="145" on="0"/>
        <pt x="173" y="93" on="0"/>
        <pt x="214" y="63" on="0"/>
        <pt x="246" y="63" on="1"/>
        <pt x="268" y="63" on="0"/>
        <pt x="303" y="74" on="0"/>
        <pt x="319" y="83" on="1"/>
        <pt x="338" y="16" on="1"/>
        <pt x="322" y="5" on="0"/>
        <pt x="269" y="-13" on="0"/>
      </contour>
    </TTGlyph>
    <TTGlyph name="cacute" xMin="48" yMin="-13" xMax="338" yMax="778">
      <component glyphName="c" x="0" y="0" flags="0x204"/>
      <component glyphName="acute" x="47" y="0" flags="0x4"/>
    </TTGlyph>
    <TTGlyph name="caron" xMin="42" yMin="581" xMax="272" yMax="768">
      <contour>
        <pt x="230" y="768" on="1"/>
        <pt x="272" y="733" on="1"/>
        <pt x="157" y="581" on="1"/>
        <pt x="42" y="733" on="1"/>
        <pt x="84" y="768" on="1"/>
        <pt x="157" y="683" on="1"/>
      </contour>
    </TTGlyph>
    <TTGlyph name="caron.alt" xMin="115" yMin="553" xMax="199" yMax="776">
      <contour>
        <pt x="199" y="776" on="1"/>
        <pt x="172" y="553" on="1"/>
        <pt x="115" y="553" on="1"/>
        <pt x="115" y="776" on="1"/>
      </contour>
    </TTGlyph>
    <TTGlyph name="caron.alt.short" xMin="115" yMin="582" xMax="199" yMax="776">
      <contour>
        <pt x="199" y="776" on="1"/>
        <pt x="172" y="582" on="1"/>
        <pt x="115" y="582" on="1"/>
        <pt x="115" y="776" on="1"/>
      </contour>
    </TTGlyph>
    <TTGlyph name="caron.asc" xMin="39" yMin="819" xMax="275" yMax="956">
      <contour>
        <pt x="243" y="956" on="1"/>
        <pt x="275" y="914" on="1"/>
        <pt x="157" y="819" on="1"/>
        <pt x="39" y="914" on="1"/>
        <pt x="70" y="956" on="1"/>
        <pt x="157" y="896" on="1"/>
      </contour>
    </TTGlyph>
    <TTGlyph name="ccaron" xMin="48" yMin="-13" xMax="338" yMax="768">
      <component glyphName="c" x="0" y="0" flags="0x204"/>
      <component glyphName="caron" x="59" y="0" flags="0x4"/>
    </TTGlyph>
</ttFont>
